<svg width="636" height="559" viewBox="0 0 636 559" fill="none" xmlns="http://www.w3.org/2000/svg">
<g opacity="0.05">
<g clip-path="url(#clip0)">
<path d="M525.683 355.648H566.699V551.671H525.683V355.648Z" fill="#333333"/>
<path d="M536.994 345.71H555.637V356.766H536.994V345.71Z" fill="#333333"/>
<path d="M540.847 339.251H551.66V345.586H540.847V339.251Z" fill="#333333"/>
<path d="M546.937 355.275L546.191 248.444L545.57 355.275H546.937Z" fill="#333333"/>
<path opacity="0.09" d="M544.078 370.431H548.429V374.778H544.078V370.431Z" fill="white"/>
<path opacity="0.33" d="M544.078 384.219H548.429V388.567H544.078V384.219Z" fill="white"/>
<path opacity="0.37" d="M544.078 398.132H548.429V402.48H544.078V398.132Z" fill="white"/>
<path opacity="0.14" d="M544.078 411.921H548.429V416.269H544.078V411.921Z" fill="white"/>
<path opacity="0.3" d="M544.078 425.834H548.429V430.182H544.078V425.834Z" fill="white"/>
<path opacity="0.16" d="M544.078 439.622H548.429V443.97H544.078V439.622Z" fill="white"/>
<path opacity="0.34" d="M544.078 453.535H548.429V457.883H544.078V453.535Z" fill="white"/>
<path opacity="0.29" d="M544.078 467.324H548.429V471.672H544.078V467.324Z" fill="white"/>
<path opacity="0.12" d="M544.078 481.237H548.429V485.585H544.078V481.237Z" fill="white"/>
<path d="M600.631 399.996H729.148V571.05H600.631V399.996Z" fill="#4D4D4D"/>
<path d="M634.314 407.076H641.15V413.908H634.314V407.076Z" fill="white"/>
<path d="M625.241 407.076H632.077V413.908H625.241V407.076Z" fill="white"/>
<path d="M634.314 416.02H641.15V422.853H634.314V416.02Z" fill="white"/>
<path d="M625.241 416.02H632.077V422.853H625.241V416.02Z" fill="white"/>
<path d="M634.314 424.964H641.15V431.797H634.314V424.964Z" fill="white"/>
<path d="M625.241 424.964H632.077V431.797H625.241V424.964Z" fill="white"/>
<path d="M634.314 433.784H641.15V440.616H634.314V433.784Z" fill="white"/>
<path d="M625.241 433.784H632.077V440.616H625.241V433.784Z" fill="white"/>
<path d="M634.314 442.728H641.15V449.56H634.314V442.728Z" fill="white"/>
<path d="M625.241 442.728H632.077V449.56H625.241V442.728Z" fill="white"/>
<path d="M634.314 451.672H641.15V458.504H634.314V451.672Z" fill="white"/>
<path d="M625.241 451.672H632.077V458.504H625.241V451.672Z" fill="white"/>
<path d="M634.314 460.616H641.15V467.448H634.314V460.616Z" fill="white"/>
<path d="M625.241 460.616H632.077V467.448H625.241V460.616Z" fill="white"/>
<path d="M634.314 469.56H641.15V476.392H634.314V469.56Z" fill="white"/>
<path d="M625.241 469.56H632.077V476.392H625.241V469.56Z" fill="white"/>
<path d="M634.314 478.38H641.15V485.212H634.314V478.38Z" fill="white"/>
<path d="M625.241 478.38H632.077V485.212H625.241V478.38Z" fill="white"/>
<path d="M634.314 487.324H641.15V494.156H634.314V487.324Z" fill="white"/>
<path d="M625.241 487.324H632.077V494.156H625.241V487.324Z" fill="white"/>
<path d="M634.314 496.268H641.15V503.1H634.314V496.268Z" fill="white"/>
<path d="M625.241 496.268H632.077V503.1H625.241V496.268Z" fill="white"/>
<path d="M634.314 505.212H641.15V512.044H634.314V505.212Z" fill="white"/>
<path d="M625.241 505.212H632.077V512.044H625.241V505.212Z" fill="white"/>
<path d="M634.314 514.156H641.15V520.988H634.314V514.156Z" fill="white"/>
<path d="M625.241 514.156H632.077V520.988H625.241V514.156Z" fill="white"/>
<path d="M634.314 522.976H641.15V529.808H634.314V522.976Z" fill="white"/>
<path d="M625.241 522.976H632.077V529.808H625.241V522.976Z" fill="white"/>
<path d="M616.167 522.976H623.003V529.808H616.167V522.976Z" fill="white"/>
<path d="M634.314 531.92H641.15V538.752H634.314V531.92Z" fill="white"/>
<path d="M625.241 531.92H632.077V538.752H625.241V531.92Z" fill="white"/>
<path d="M616.167 531.92H623.003V538.752H616.167V531.92Z" fill="white"/>
<path d="M634.314 540.864H641.15V547.696H634.314V540.864Z" fill="white"/>
<path d="M625.241 540.864H632.077V547.696H625.241V540.864Z" fill="white"/>
<path d="M616.167 540.864H623.003V547.696H616.167V540.864Z" fill="white"/>
<path d="M634.314 549.808H641.15V556.64H634.314V549.808Z" fill="white"/>
<path d="M625.241 549.808H632.077V556.64H625.241V549.808Z" fill="white"/>
<path d="M616.167 549.808H623.003V556.64H616.167V549.808Z" fill="white"/>
<path d="M634.314 558.751H641.15V565.584H634.314V558.751Z" fill="white"/>
<path d="M625.241 558.751H632.077V565.584H625.241V558.751Z" fill="white"/>
<path d="M616.167 558.751H623.003V565.584H616.167V558.751Z" fill="white"/>
<path d="M619.647 382.604H710.131V399.996H619.647V382.604Z" fill="#4D4D4D"/>
<path opacity="0.19" d="M616.167 407.076H623.003V413.908H616.167V407.076Z" fill="white"/>
<path opacity="0.24" d="M616.167 416.02H623.003V422.852H616.167V416.02Z" fill="white"/>
<path opacity="0.29" d="M616.167 424.964H623.003V431.796H616.167V424.964Z" fill="white"/>
<path opacity="0.39" d="M616.167 433.784H623.003V440.616H616.167V433.784Z" fill="white"/>
<path opacity="0.21" d="M616.167 442.728H623.003V449.56H616.167V442.728Z" fill="white"/>
<path opacity="0.48" d="M616.167 451.672H623.003V458.504H616.167V451.672Z" fill="white"/>
<path opacity="0.32" d="M616.167 460.616H623.003V467.448H616.167V460.616Z" fill="white"/>
<path opacity="0.13" d="M616.167 469.56H623.003V476.392H616.167V469.56Z" fill="white"/>
<path opacity="0.19" d="M616.167 478.38H623.003V485.212H616.167V478.38Z" fill="white"/>
<path opacity="0.03" d="M616.167 487.324H623.003V494.156H616.167V487.324Z" fill="white"/>
<path opacity="0.36" d="M616.167 496.268H623.003V503.1H616.167V496.268Z" fill="white"/>
<path opacity="0.25" d="M616.167 505.212H623.003V512.044H616.167V505.212Z" fill="white"/>
<path d="M616.167 514.156H623.003V520.988H616.167V514.156Z" fill="white"/>
<path d="M340.117 477.634H381.133V573.658H340.117V477.634Z" fill="#333333"/>
<path d="M362.489 472.79H381.133V478.255H362.489V472.79Z" fill="#333333"/>
<path d="M370.319 469.684H381.133V472.79H370.319V469.684Z" fill="#333333"/>
<path opacity="0.06" d="M357.269 484.342H363.98V489.311H357.269V484.342Z" fill="white"/>
<path opacity="0.12" d="M357.269 496.64H363.98V501.609H357.269V496.64Z" fill="white"/>
<path opacity="0.19" d="M357.269 521.236H363.98V526.205H357.269V521.236Z" fill="white"/>
<path opacity="0.14" d="M357.269 545.832H363.98V550.801H357.269V545.832Z" fill="white"/>
<path opacity="0.1" d="M357.269 558.13H363.98V563.099H357.269V558.13Z" fill="white"/>
<path d="M443.03 488.069H499.209V539.497H443.03V488.069Z" fill="#333333"/>
<path d="M451.854 483.473H490.26V505.584H451.854V483.473Z" fill="#333333"/>
<path d="M438.928 520.491H495.108V571.919H438.928V520.491Z" fill="#333333"/>
<path d="M447.877 515.895H486.283V538.006H447.877V515.895Z" fill="#333333"/>
<path d="M364.105 513.659H420.284V572.913H364.105V513.659Z" fill="#333333"/>
<path d="M372.929 508.441H411.335V534.031H372.929V508.441Z" fill="#333333"/>
<path d="M176.052 531.671H232.232V588.938H176.052V531.671Z" fill="#333333"/>
<path d="M184.877 526.578H223.283V551.298H184.877V526.578Z" fill="#333333"/>
<path d="M297.858 413.411H360.625V572.789H297.858V413.411Z" fill="#333333"/>
<path opacity="0.46" d="M342.354 420.616H357.517V423.474H342.354V420.616Z" fill="#E6E6E6"/>
<path opacity="0.34" d="M321.597 420.616H336.761V423.474H321.597V420.616Z" fill="#E6E6E6"/>
<path opacity="0.52" d="M300.965 420.616H316.128V423.474H300.965V420.616Z" fill="#E6E6E6"/>
<path opacity="0.54" d="M342.354 427.2H357.517V430.057H342.354V427.2Z" fill="#E6E6E6"/>
<path opacity="0.3" d="M321.597 427.2H336.761V430.057H321.597V427.2Z" fill="#E6E6E6"/>
<path opacity="0.06" d="M300.965 427.2H316.128V430.057H300.965V427.2Z" fill="#E6E6E6"/>
<path opacity="0.15" d="M342.354 433.784H357.517V436.641H342.354V433.784Z" fill="#E6E6E6"/>
<path opacity="0.42" d="M321.597 433.784H336.761V436.641H321.597V433.784Z" fill="#E6E6E6"/>
<path opacity="0.48" d="M300.965 433.784H316.128V436.641H300.965V433.784Z" fill="#E6E6E6"/>
<path opacity="0.18" d="M342.354 440.368H357.517V443.225H342.354V440.368Z" fill="#E6E6E6"/>
<path opacity="0.28" d="M300.965 440.368H316.128V443.225H300.965V440.368Z" fill="#E6E6E6"/>
<path opacity="0.29" d="M342.354 446.951H357.517V449.809H342.354V446.951Z" fill="#E6E6E6"/>
<path opacity="0.28" d="M321.597 446.951H336.761V449.809H321.597V446.951Z" fill="#E6E6E6"/>
<path opacity="0.56" d="M300.965 446.951H316.128V449.809H300.965V446.951Z" fill="#E6E6E6"/>
<path opacity="0.41" d="M342.354 453.535H357.517V456.392H342.354V453.535Z" fill="#E6E6E6"/>
<path opacity="0.16" d="M321.597 453.535H336.761V456.392H321.597V453.535Z" fill="#E6E6E6"/>
<path opacity="0.4" d="M300.965 453.535H316.128V456.392H300.965V453.535Z" fill="#E6E6E6"/>
<path opacity="0.1" d="M342.354 460.119H357.517V462.976H342.354V460.119Z" fill="#E6E6E6"/>
<path opacity="0.17" d="M321.597 460.119H336.761V462.976H321.597V460.119Z" fill="#E6E6E6"/>
<path opacity="0.08" d="M300.965 460.119H316.128V462.976H300.965V460.119Z" fill="#E6E6E6"/>
<path opacity="0.49" d="M342.354 466.703H357.517V469.56H342.354V466.703Z" fill="#E6E6E6"/>
<path opacity="0.58" d="M321.597 466.703H336.761V469.56H321.597V466.703Z" fill="#E6E6E6"/>
<path opacity="0.58" d="M300.965 466.703H316.128V469.56H300.965V466.703Z" fill="#E6E6E6"/>
<path opacity="0.26" d="M342.354 473.287H357.517V476.144H342.354V473.287Z" fill="#E6E6E6"/>
<path opacity="0.37" d="M321.597 473.287H336.761V476.144H321.597V473.287Z" fill="#E6E6E6"/>
<path opacity="0.34" d="M300.965 473.287H316.128V476.144H300.965V473.287Z" fill="#E6E6E6"/>
<path opacity="0.55" d="M342.354 479.87H357.517V482.727H342.354V479.87Z" fill="#E6E6E6"/>
<path opacity="0.12" d="M321.597 479.87H336.761V482.727H321.597V479.87Z" fill="#E6E6E6"/>
<path opacity="0.6" d="M300.965 479.87H316.128V482.727H300.965V479.87Z" fill="#E6E6E6"/>
<path opacity="0.02" d="M342.354 486.454H357.517V489.311H342.354V486.454Z" fill="#E6E6E6"/>
<path opacity="0.28" d="M321.597 486.454H336.761V489.311H321.597V486.454Z" fill="#E6E6E6"/>
<path opacity="0.21" d="M300.965 486.454H316.128V489.311H300.965V486.454Z" fill="#E6E6E6"/>
<path opacity="0.57" d="M342.354 493.038H357.517V495.895H342.354V493.038Z" fill="#E6E6E6"/>
<path opacity="0.38" d="M321.597 493.038H336.761V495.895H321.597V493.038Z" fill="#E6E6E6"/>
<path opacity="0.25" d="M300.965 493.038H316.128V495.895H300.965V493.038Z" fill="#E6E6E6"/>
<path opacity="0.15" d="M342.354 499.622H357.517V502.479H342.354V499.622Z" fill="#E6E6E6"/>
<path opacity="0.47" d="M321.597 499.622H336.761V502.479H321.597V499.622Z" fill="#E6E6E6"/>
<path opacity="0.3" d="M300.965 499.622H316.128V502.479H300.965V499.622Z" fill="#E6E6E6"/>
<path opacity="0.4" d="M342.354 506.206H357.517V509.063H342.354V506.206Z" fill="#E6E6E6"/>
<path opacity="0.39" d="M321.597 506.206H336.761V509.063H321.597V506.206Z" fill="#E6E6E6"/>
<path opacity="0.24" d="M300.965 506.206H316.128V509.063H300.965V506.206Z" fill="#E6E6E6"/>
<path opacity="0.46" d="M342.354 512.789H357.517V515.646H342.354V512.789Z" fill="#E6E6E6"/>
<path opacity="0.22" d="M321.597 512.789H336.761V515.646H321.597V512.789Z" fill="#E6E6E6"/>
<path opacity="0.11" d="M300.965 512.789H316.128V515.646H300.965V512.789Z" fill="#E6E6E6"/>
<path opacity="0.11" d="M321.597 519.373H336.761V522.23H321.597V519.373Z" fill="#E6E6E6"/>
<path opacity="0.02" d="M300.965 519.373H316.128V522.23H300.965V519.373Z" fill="#E6E6E6"/>
<path opacity="0.27" d="M342.354 525.957H357.517V528.814H342.354V525.957Z" fill="#E6E6E6"/>
<path opacity="0.21" d="M321.597 525.957H336.761V528.814H321.597V525.957Z" fill="#E6E6E6"/>
<path opacity="0.49" d="M300.965 525.957H316.128V528.814H300.965V525.957Z" fill="#E6E6E6"/>
<path opacity="0.6" d="M342.354 532.541H357.517V535.398H342.354V532.541Z" fill="#E6E6E6"/>
<path opacity="0.31" d="M321.597 532.541H336.761V535.398H321.597V532.541Z" fill="#E6E6E6"/>
<path opacity="0.22" d="M300.965 532.541H316.128V535.398H300.965V532.541Z" fill="#E6E6E6"/>
<path opacity="0.54" d="M342.354 539.125H357.517V541.982H342.354V539.125Z" fill="#E6E6E6"/>
<path opacity="0.6" d="M321.597 539.125H336.761V541.982H321.597V539.125Z" fill="#E6E6E6"/>
<path opacity="0.08" d="M300.965 539.125H316.128V541.982H300.965V539.125Z" fill="#E6E6E6"/>
<path opacity="0.55" d="M321.597 545.708H336.761V548.565H321.597V545.708Z" fill="#E6E6E6"/>
<path d="M300.965 545.708H316.128V548.565H300.965V545.708Z" fill="#E6E6E6"/>
<path opacity="0.6" d="M341.359 420.616H342.354V548.565H341.359V420.616Z" fill="#E6E6E6"/>
<path opacity="0.6" d="M316.128 420.616H317.123V548.565H316.128V420.616Z" fill="#E6E6E6"/>
<path d="M266.536 413.411H297.858V572.789H266.536V413.411Z" fill="#4D4D4D"/>
<path opacity="0.69" d="M271.135 420.616H294.75V423.474H271.135V420.616Z" fill="#E6E6E6"/>
<path opacity="0.79" d="M271.135 427.2H294.75V430.057H271.135V427.2Z" fill="#E6E6E6"/>
<path opacity="0.19" d="M271.135 433.784H294.75V436.641H271.135V433.784Z" fill="#E6E6E6"/>
<path opacity="0.88" d="M271.135 440.368H294.75V443.225H271.135V440.368Z" fill="#E6E6E6"/>
<path opacity="0.5" d="M271.135 446.951H294.75V449.809H271.135V446.951Z" fill="#E6E6E6"/>
<path opacity="0.25" d="M271.135 453.535H294.75V456.392H271.135V453.535Z" fill="#E6E6E6"/>
<path opacity="0.91" d="M271.135 460.119H294.75V462.976H271.135V460.119Z" fill="#E6E6E6"/>
<path opacity="0.02" d="M271.135 466.703H294.75V469.56H271.135V466.703Z" fill="#E6E6E6"/>
<path opacity="0.53" d="M271.135 473.287H294.75V476.144H271.135V473.287Z" fill="#E6E6E6"/>
<path opacity="0.65" d="M271.135 479.87H294.75V482.727H271.135V479.87Z" fill="#E6E6E6"/>
<path d="M271.135 486.454H294.75V489.311H271.135V486.454Z" fill="#E6E6E6"/>
<path opacity="0.8" d="M271.135 493.038H294.75V495.895H271.135V493.038Z" fill="#E6E6E6"/>
<path opacity="0.82" d="M271.135 499.622H294.75V502.479H271.135V499.622Z" fill="#E6E6E6"/>
<path opacity="0.75" d="M271.135 506.206H294.75V509.063H271.135V506.206Z" fill="#E6E6E6"/>
<path opacity="0.31" d="M271.135 512.789H294.75V515.646H271.135V512.789Z" fill="#E6E6E6"/>
<path opacity="0.22" d="M271.135 519.373H294.75V522.23H271.135V519.373Z" fill="#E6E6E6"/>
<path opacity="0.43" d="M271.135 525.957H294.75V528.814H271.135V525.957Z" fill="#E6E6E6"/>
<path opacity="0.68" d="M271.135 532.541H294.75V535.398H271.135V532.541Z" fill="#E6E6E6"/>
<path opacity="0.38" d="M271.135 539.125H294.75V541.982H271.135V539.125Z" fill="#E6E6E6"/>
<path opacity="0.84" d="M271.135 545.708H294.75V548.565H271.135V545.708Z" fill="#E6E6E6"/>
<path d="M349.563 404.964V413.411H308.919V404.964H349.563ZM340.489 410.679H344.715V407.821H340.489V410.679ZM333.902 410.679H338.004V407.821H333.902V410.679ZM327.19 410.679H331.292V407.821H327.19V410.679ZM320.478 410.679H324.704V407.821H320.478V410.679ZM313.767 410.679H317.993V407.821H313.767V410.679Z" fill="#333333"/>
<path d="M301.462 407.822H302.581V410.679H301.462V407.822Z" fill="#333333"/>
<path d="M308.919 404.964V413.411H289.779V404.964H308.919ZM301.462 410.679H305.564V407.821H301.462V410.679ZM292.637 410.679H296.739V407.821H292.637V410.679Z" fill="#4D4D4D"/>
<path d="M292.762 407.822H293.88V410.679H292.762V407.822Z" fill="#333333"/>
<path d="M289.53 583.596H374.048L289.53 521.236V583.596Z" fill="#333333"/>
<path d="M415.561 379.623H422.397V405.586H415.561V379.623Z" fill="#4D4D4D"/>
<path d="M422.273 379.623H429.233V405.586H422.273V379.623Z" fill="#333333"/>
<path d="M408.477 379.623H415.437V405.586H408.477V379.623Z" fill="#666666"/>
<path d="M388.341 423.349H407.731V571.422H388.341V423.349Z" fill="#666666"/>
<path d="M430.476 423.349H447.38V571.422H430.476V423.349Z" fill="#333333"/>
<path d="M407.731 423.349H430.6V571.422H407.731V423.349Z" fill="#4D4D4D"/>
<path opacity="0.6" d="M442.532 427.697H445.018V569.435H442.532V427.697Z" fill="#E6E6E6"/>
<path opacity="0.6" d="M437.685 427.697H440.171V569.435H437.685V427.697Z" fill="#E6E6E6"/>
<path opacity="0.6" d="M432.838 427.697H435.323V569.435H432.838V427.697Z" fill="#E6E6E6"/>
<path d="M403.878 427.697H406.364V569.435H403.878V427.697Z" fill="#E6E6E6"/>
<path d="M399.03 427.697H401.516V569.435H399.03V427.697Z" fill="#E6E6E6"/>
<path d="M389.584 427.697H392.07V569.435H389.584V427.697Z" fill="#E6E6E6"/>
<path d="M394.183 427.697H396.669V569.435H394.183V427.697Z" fill="#E6E6E6"/>
<path opacity="0.8" d="M427.742 569.435H410.59V427.697H427.742V569.435ZM425.007 430.181H413.324V566.95H425.007V430.181Z" fill="#E6E6E6"/>
<path opacity="0.8" d="M422.77 564.59H415.437V432.417H422.77V564.59ZM420.284 435.523H419.414H418.917H417.923V561.484H418.917H419.414H420.284V435.523Z" fill="#E6E6E6"/>
<path opacity="0.8" d="M418.917 435.523H419.414V561.484H418.917V435.523Z" fill="#E6E6E6"/>
<path d="M410.341 397.387H427.493V423.349H410.341V397.387Z" fill="#4D4D4D"/>
<path d="M410.341 397.387H427.493V423.349H410.341V397.387Z" fill="#4D4D4D"/>
<path d="M393.189 397.387H410.341V423.349H393.189V397.387Z" fill="#666666"/>
<path d="M427.493 397.387H444.645V423.349H427.493V397.387Z" fill="#333333"/>
<path d="M408.601 379.623H429.233L422.397 384.343H415.437L408.601 379.623Z" fill="#808080"/>
<path d="M39.829 370.058H49.7723V399.25H39.829V370.058Z" fill="#4D4D4D"/>
<path d="M49.8966 370.058H59.8399V399.25H49.8966V370.058Z" fill="#333333"/>
<path d="M29.8856 370.058H39.829V399.25H29.8856V370.058Z" fill="#666666"/>
<path d="M0.552979 419.374H28.6428V586.204H0.552979V419.374Z" fill="#666666"/>
<path d="M61.7043 419.374H86.0653V586.204H61.7043V419.374Z" fill="#333333"/>
<path d="M28.6428 419.374H61.7043V586.204H28.6428V419.374Z" fill="#4D4D4D"/>
<path opacity="0.4" d="M79.105 424.343H82.7094V583.969H79.105V424.343Z" fill="#E6E6E6"/>
<path opacity="0.4" d="M72.0204 424.343H75.6249V583.969H72.0204V424.343Z" fill="#E6E6E6"/>
<path opacity="0.4" d="M64.9358 424.343H68.5403V583.969H64.9358V424.343Z" fill="#E6E6E6"/>
<path d="M23.0496 424.343H26.6541V583.969H23.0496V424.343Z" fill="#E6E6E6"/>
<path d="M15.9651 424.343H19.5695V583.969H15.9651V424.343Z" fill="#E6E6E6"/>
<path d="M2.41736 424.343H6.02179V583.969H2.41736V424.343Z" fill="#E6E6E6"/>
<path d="M9.00476 424.343H12.6093V583.969H9.00476V424.343Z" fill="#E6E6E6"/>
<path d="M57.4783 583.969H32.6201V424.343H57.4783V583.969ZM53.6253 427.076H36.7217V581.236H53.6253V427.076Z" fill="#E6E6E6"/>
<path d="M50.5181 578.627H39.829V429.685H50.5181V578.627ZM46.7893 433.163H45.4221H44.8006H43.4335V575.149H44.8006H45.4221H46.7893V433.163Z" fill="#E6E6E6"/>
<path d="M44.8006 433.163H45.4221V575.149H44.8006V433.163Z" fill="#E6E6E6"/>
<path d="M32.3715 390.182H57.2297V419.374H32.3715V390.182Z" fill="#4D4D4D"/>
<path d="M32.3715 390.182H57.2297V419.374H32.3715V390.182Z" fill="#4D4D4D"/>
<path d="M7.51324 390.182H32.3715V419.374H7.51324V390.182Z" fill="#666666"/>
<path d="M57.1055 390.182H81.9637V419.374H57.1055V390.182Z" fill="#333333"/>
<path d="M29.7614 370.058H59.8399L49.7723 375.399H39.829L29.7614 370.058Z" fill="#808080"/>
<path d="M111.545 442.479H179.532V465.088H111.545V442.479Z" fill="#E6E6E6"/>
<path d="M152.81 442.479H179.532V465.088H152.81V442.479Z" fill="#B3B3B3"/>
<path d="M152.81 465.212H205.633V575.025H152.81V465.212Z" fill="#333333"/>
<path d="M70.2803 465.212H152.81V575.025H70.2803V465.212Z" fill="#4D4D4D"/>
<path d="M159.273 454.032H199.916V465.212H159.273V454.032Z" fill="#333333"/>
<path d="M82.5851 454.032H140.629V465.212H82.5851V454.032Z" fill="#4D4D4D"/>
<path d="M129.567 433.908H152.81V442.479H129.567V433.908Z" fill="#E6E6E6"/>
<path d="M141.251 425.213H152.81V433.784H141.251V425.213Z" fill="#4D4D4D"/>
<path d="M152.934 425.213H164.493V433.784H152.934V425.213Z" fill="#333333"/>
<path d="M152.81 433.908H170.583V442.479H152.81V433.908Z" fill="#B3B3B3"/>
<path d="M153.555 425.213L152.81 405.337L152.188 425.213H153.555Z" fill="#333333"/>
<path opacity="0.12" d="M188.978 469.684H193.329V474.032H188.978V469.684Z" fill="white"/>
<path opacity="0.25" d="M183.012 469.684H187.363V474.032H183.012V469.684Z" fill="white"/>
<path opacity="0.36" d="M177.047 469.684H181.397V474.032H177.047V469.684Z" fill="white"/>
<path opacity="0.12" d="M171.081 469.684H175.431V474.032H171.081V469.684Z" fill="white"/>
<path opacity="0.14" d="M165.115 469.684H169.465V474.032H165.115V469.684Z" fill="white"/>
<path opacity="0.28" d="M188.978 475.399H193.329V479.746H188.978V475.399Z" fill="white"/>
<path opacity="0.4" d="M183.012 475.399H187.363V479.746H183.012V475.399Z" fill="white"/>
<path opacity="0.16" d="M177.047 475.399H181.397V479.746H177.047V475.399Z" fill="white"/>
<path opacity="0.17" d="M165.115 475.399H169.465V479.746H165.115V475.399Z" fill="white"/>
<path opacity="0.27" d="M188.978 481.113H193.329V485.461H188.978V481.113Z" fill="white"/>
<path opacity="0.45" d="M183.012 481.113H187.363V485.461H183.012V481.113Z" fill="white"/>
<path opacity="0.45" d="M177.047 481.113H181.397V485.461H177.047V481.113Z" fill="white"/>
<path opacity="0.48" d="M171.081 481.113H175.431V485.461H171.081V481.113Z" fill="white"/>
<path opacity="0.25" d="M165.115 481.113H169.465V485.461H165.115V481.113Z" fill="white"/>
<path opacity="0.28" d="M188.978 486.827H193.329V491.175H188.978V486.827Z" fill="white"/>
<path opacity="0.13" d="M183.012 486.827H187.363V491.175H183.012V486.827Z" fill="white"/>
<path opacity="0.07" d="M177.047 486.827H181.397V491.175H177.047V486.827Z" fill="white"/>
<path opacity="0.39" d="M171.081 486.827H175.431V491.175H171.081V486.827Z" fill="white"/>
<path opacity="0.47" d="M165.115 486.827H169.465V491.175H165.115V486.827Z" fill="white"/>
<path opacity="0.28" d="M188.978 492.541H193.329V496.889H188.978V492.541Z" fill="white"/>
<path opacity="0.2" d="M183.012 492.541H187.363V496.889H183.012V492.541Z" fill="white"/>
<path opacity="0.04" d="M177.047 492.541H181.397V496.889H177.047V492.541Z" fill="white"/>
<path opacity="0.43" d="M171.081 492.541H175.431V496.889H171.081V492.541Z" fill="white"/>
<path opacity="0.48" d="M165.115 492.541H169.465V496.889H165.115V492.541Z" fill="white"/>
<path opacity="0.28" d="M188.978 498.255H193.329V502.603H188.978V498.255Z" fill="white"/>
<path opacity="0.19" d="M183.012 498.255H187.363V502.603H183.012V498.255Z" fill="white"/>
<path opacity="0.01" d="M177.047 498.255H181.397V502.603H177.047V498.255Z" fill="white"/>
<path opacity="0.27" d="M171.081 498.255H175.431V502.603H171.081V498.255Z" fill="white"/>
<path opacity="0.24" d="M165.115 498.255H169.465V502.603H165.115V498.255Z" fill="white"/>
<path opacity="0.07" d="M188.978 504.094H193.329V508.442H188.978V504.094Z" fill="white"/>
<path opacity="0.25" d="M183.012 504.094H187.363V508.442H183.012V504.094Z" fill="white"/>
<path opacity="0.26" d="M177.047 504.094H181.397V508.442H177.047V504.094Z" fill="white"/>
<path opacity="0.39" d="M171.081 504.094H175.431V508.442H171.081V504.094Z" fill="white"/>
<path opacity="0.22" d="M165.115 504.094H169.465V508.442H165.115V504.094Z" fill="white"/>
<path opacity="0.15" d="M188.978 509.808H193.329V514.156H188.978V509.808Z" fill="white"/>
<path opacity="0.23" d="M183.012 509.808H187.363V514.156H183.012V509.808Z" fill="white"/>
<path opacity="0.05" d="M177.047 509.808H181.397V514.156H177.047V509.808Z" fill="white"/>
<path opacity="0.2" d="M171.081 509.808H175.431V514.156H171.081V509.808Z" fill="white"/>
<path opacity="0.31" d="M165.115 509.808H169.465V514.156H165.115V509.808Z" fill="white"/>
<path opacity="0.15" d="M188.978 515.522H193.329V519.87H188.978V515.522Z" fill="white"/>
<path opacity="0.33" d="M183.012 515.522H187.363V519.87H183.012V515.522Z" fill="white"/>
<path opacity="0.46" d="M177.047 515.522H181.397V519.87H177.047V515.522Z" fill="white"/>
<path opacity="0.25" d="M171.081 515.522H175.431V519.87H171.081V515.522Z" fill="white"/>
<path opacity="0.43" d="M165.115 515.522H169.465V519.87H165.115V515.522Z" fill="white"/>
<path opacity="0.4" d="M188.978 521.237H193.329V525.584H188.978V521.237Z" fill="white"/>
<path opacity="0.39" d="M183.012 521.237H187.363V525.584H183.012V521.237Z" fill="white"/>
<path opacity="0.01" d="M177.047 521.237H181.397V525.584H177.047V521.237Z" fill="white"/>
<path opacity="0.12" d="M171.081 521.237H175.431V525.584H171.081V521.237Z" fill="white"/>
<path opacity="0.07" d="M165.115 521.237H169.465V525.584H165.115V521.237Z" fill="white"/>
<path opacity="0.07" d="M188.978 526.951H193.329V531.299H188.978V526.951Z" fill="white"/>
<path opacity="0.02" d="M183.012 526.951H187.363V531.299H183.012V526.951Z" fill="white"/>
<path opacity="0.12" d="M177.047 526.951H181.397V531.299H177.047V526.951Z" fill="white"/>
<path opacity="0.23" d="M171.081 526.951H175.431V531.299H171.081V526.951Z" fill="white"/>
<path opacity="0.26" d="M165.115 526.951H169.465V531.299H165.115V526.951Z" fill="white"/>
<path opacity="0.27" d="M188.978 532.665H193.329V537.013H188.978V532.665Z" fill="white"/>
<path opacity="0.38" d="M183.012 532.665H187.363V537.013H183.012V532.665Z" fill="white"/>
<path opacity="0.05" d="M177.047 532.665H181.397V537.013H177.047V532.665Z" fill="white"/>
<path opacity="0.45" d="M171.081 532.665H175.431V537.013H171.081V532.665Z" fill="white"/>
<path opacity="0.15" d="M165.115 532.665H169.465V537.013H165.115V532.665Z" fill="white"/>
<path opacity="0.06" d="M188.978 538.379H193.329V542.727H188.978V538.379Z" fill="white"/>
<path opacity="0.47" d="M183.012 538.379H187.363V542.727H183.012V538.379Z" fill="white"/>
<path opacity="0.15" d="M177.047 538.379H181.397V542.727H177.047V538.379Z" fill="white"/>
<path opacity="0.44" d="M171.081 538.379H175.431V542.727H171.081V538.379Z" fill="white"/>
<path opacity="0.14" d="M165.115 538.379H169.465V542.727H165.115V538.379Z" fill="white"/>
<path opacity="0.15" d="M188.978 544.094H193.329V548.441H188.978V544.094Z" fill="white"/>
<path opacity="0.43" d="M183.012 544.094H187.363V548.441H183.012V544.094Z" fill="white"/>
<path opacity="0.07" d="M177.047 544.094H181.397V548.441H177.047V544.094Z" fill="white"/>
<path opacity="0.47" d="M171.081 544.094H175.431V548.441H171.081V544.094Z" fill="white"/>
<path opacity="0.11" d="M165.115 544.094H169.465V548.441H165.115V544.094Z" fill="white"/>
<path opacity="0.07" d="M188.978 549.808H193.329V554.155H188.978V549.808Z" fill="white"/>
<path opacity="0.34" d="M183.012 549.808H187.363V554.155H183.012V549.808Z" fill="white"/>
<path opacity="0.5" d="M177.047 549.808H181.397V554.155H177.047V549.808Z" fill="white"/>
<path opacity="0.36" d="M171.081 549.808H175.431V554.155H171.081V549.808Z" fill="white"/>
<path opacity="0.34" d="M165.115 549.808H169.465V554.155H165.115V549.808Z" fill="white"/>
<path opacity="0.47" d="M188.978 555.522H193.329V559.87H188.978V555.522Z" fill="white"/>
<path opacity="0.41" d="M183.012 555.522H187.363V559.87H183.012V555.522Z" fill="white"/>
<path opacity="0.3" d="M177.047 555.522H181.397V559.87H177.047V555.522Z" fill="white"/>
<path opacity="0.33" d="M171.081 555.522H175.431V559.87H171.081V555.522Z" fill="white"/>
<path opacity="0.12" d="M165.115 555.522H169.465V559.87H165.115V555.522Z" fill="white"/>
<path opacity="0.3" d="M138.392 469.684H142.742V474.032H138.392V469.684Z" fill="white"/>
<path opacity="0.72" d="M132.674 469.684H137.025V474.032H132.674V469.684Z" fill="white"/>
<path opacity="0.7" d="M126.833 469.684H131.183V474.032H126.833V469.684Z" fill="white"/>
<path opacity="0.52" d="M120.991 469.684H125.341V474.032H120.991V469.684Z" fill="white"/>
<path opacity="0.2" d="M115.149 469.684H119.5V474.032H115.149V469.684Z" fill="white"/>
<path opacity="0.32" d="M109.432 469.684H113.782V474.032H109.432V469.684Z" fill="white"/>
<path opacity="0.13" d="M103.59 469.684H107.941V474.032H103.59V469.684Z" fill="white"/>
<path opacity="0.38" d="M97.7487 469.684H102.099V474.032H97.7487V469.684Z" fill="white"/>
<path opacity="0.61" d="M92.0312 469.684H96.3815V474.032H92.0312V469.684Z" fill="white"/>
<path d="M86.1896 469.684H90.5399V474.032H86.1896V469.684Z" fill="white"/>
<path opacity="0.91" d="M80.348 469.684H84.6981V474.032H80.348V469.684Z" fill="white"/>
<path opacity="0.66" d="M138.392 475.399H142.742V479.746H138.392V475.399Z" fill="white"/>
<path opacity="0.31" d="M132.674 475.399H137.025V479.746H132.674V475.399Z" fill="white"/>
<path opacity="0.95" d="M126.833 475.399H131.183V479.746H126.833V475.399Z" fill="white"/>
<path opacity="0.7" d="M120.991 475.399H125.341V479.746H120.991V475.399Z" fill="white"/>
<path opacity="0.12" d="M115.149 475.399H119.5V479.746H115.149V475.399Z" fill="white"/>
<path opacity="0.24" d="M109.432 475.399H113.782V479.746H109.432V475.399Z" fill="white"/>
<path opacity="0.66" d="M103.59 475.399H107.941V479.746H103.59V475.399Z" fill="white"/>
<path opacity="0.71" d="M97.7487 475.399H102.099V479.746H97.7487V475.399Z" fill="white"/>
<path opacity="0.42" d="M92.0312 475.399H96.3815V479.746H92.0312V475.399Z" fill="white"/>
<path opacity="0.09" d="M86.1896 475.399H90.5399V479.746H86.1896V475.399Z" fill="white"/>
<path opacity="0.32" d="M80.348 475.399H84.6981V479.746H80.348V475.399Z" fill="white"/>
<path opacity="0.65" d="M138.392 481.113H142.742V485.461H138.392V481.113Z" fill="white"/>
<path d="M132.674 481.113H137.025V485.461H132.674V481.113Z" fill="white"/>
<path d="M126.833 481.113H131.183V485.461H126.833V481.113Z" fill="white"/>
<path opacity="0.71" d="M120.991 481.113H125.341V485.461H120.991V481.113Z" fill="white"/>
<path opacity="0.2" d="M115.149 481.113H119.5V485.461H115.149V481.113Z" fill="white"/>
<path opacity="0.19" d="M109.432 481.113H113.782V485.461H109.432V481.113Z" fill="white"/>
<path opacity="0.62" d="M103.59 481.113H107.941V485.461H103.59V481.113Z" fill="white"/>
<path opacity="0.93" d="M97.7487 481.113H102.099V485.461H97.7487V481.113Z" fill="white"/>
<path opacity="0.56" d="M92.0312 481.113H96.3815V485.461H92.0312V481.113Z" fill="white"/>
<path opacity="0.57" d="M86.1896 481.113H90.5399V485.461H86.1896V481.113Z" fill="white"/>
<path opacity="0.52" d="M80.348 481.113H84.6981V485.461H80.348V481.113Z" fill="white"/>
<path opacity="0.74" d="M138.392 486.827H142.742V491.175H138.392V486.827Z" fill="white"/>
<path opacity="0.56" d="M132.674 486.827H137.025V491.175H132.674V486.827Z" fill="white"/>
<path opacity="0.78" d="M126.833 486.827H131.183V491.175H126.833V486.827Z" fill="white"/>
<path opacity="0.41" d="M120.991 486.827H125.341V491.175H120.991V486.827Z" fill="white"/>
<path opacity="0.14" d="M115.149 486.827H119.5V491.175H115.149V486.827Z" fill="white"/>
<path opacity="0.28" d="M109.432 486.827H113.782V491.175H109.432V486.827Z" fill="white"/>
<path opacity="0.36" d="M103.59 486.827H107.941V491.175H103.59V486.827Z" fill="white"/>
<path opacity="0.14" d="M97.7487 486.827H102.099V491.175H97.7487V486.827Z" fill="white"/>
<path opacity="0.5" d="M92.0312 486.827H96.3815V491.175H92.0312V486.827Z" fill="white"/>
<path opacity="0.98" d="M86.1896 486.827H90.5399V491.175H86.1896V486.827Z" fill="white"/>
<path opacity="0.59" d="M80.348 486.827H84.6981V491.175H80.348V486.827Z" fill="white"/>
<path opacity="0.07" d="M138.392 492.541H142.742V496.889H138.392V492.541Z" fill="white"/>
<path opacity="0.1" d="M132.674 492.541H137.025V496.889H132.674V492.541Z" fill="white"/>
<path opacity="0.88" d="M126.833 492.541H131.183V496.889H126.833V492.541Z" fill="white"/>
<path opacity="0.68" d="M120.991 492.541H125.341V496.889H120.991V492.541Z" fill="white"/>
<path opacity="0.81" d="M115.149 492.541H119.5V496.889H115.149V492.541Z" fill="white"/>
<path opacity="0.62" d="M109.432 492.541H113.782V496.889H109.432V492.541Z" fill="white"/>
<path opacity="0.97" d="M103.59 492.541H107.941V496.889H103.59V492.541Z" fill="white"/>
<path opacity="0.81" d="M97.7487 492.541H102.099V496.889H97.7487V492.541Z" fill="white"/>
<path opacity="0.79" d="M92.0312 492.541H96.3815V496.889H92.0312V492.541Z" fill="white"/>
<path opacity="0.03" d="M86.1896 492.541H90.5399V496.889H86.1896V492.541Z" fill="white"/>
<path opacity="0.95" d="M80.348 492.541H84.6981V496.889H80.348V492.541Z" fill="white"/>
<path opacity="0.62" d="M138.392 498.255H142.742V502.603H138.392V498.255Z" fill="white"/>
<path opacity="0.22" d="M132.674 498.255H137.025V502.603H132.674V498.255Z" fill="white"/>
<path opacity="0.42" d="M126.833 498.255H131.183V502.603H126.833V498.255Z" fill="white"/>
<path opacity="0.56" d="M120.991 498.255H125.341V502.603H120.991V498.255Z" fill="white"/>
<path opacity="0.03" d="M115.149 498.255H119.5V502.603H115.149V498.255Z" fill="white"/>
<path opacity="0.64" d="M109.432 498.255H113.782V502.603H109.432V498.255Z" fill="white"/>
<path opacity="0.82" d="M103.59 498.255H107.941V502.603H103.59V498.255Z" fill="white"/>
<path opacity="0.52" d="M97.7487 498.255H102.099V502.603H97.7487V498.255Z" fill="white"/>
<path opacity="0.46" d="M92.0312 498.255H96.3815V502.603H92.0312V498.255Z" fill="white"/>
<path opacity="0.27" d="M86.1896 498.255H90.5399V502.603H86.1896V498.255Z" fill="white"/>
<path opacity="0.46" d="M80.348 498.255H84.6981V502.603H80.348V498.255Z" fill="white"/>
<path opacity="0.66" d="M138.392 504.094H142.742V508.442H138.392V504.094Z" fill="white"/>
<path opacity="0.7" d="M132.674 504.094H137.025V508.442H132.674V504.094Z" fill="white"/>
<path opacity="0.94" d="M126.833 504.094H131.183V508.442H126.833V504.094Z" fill="white"/>
<path opacity="0.5" d="M120.991 504.094H125.341V508.442H120.991V504.094Z" fill="white"/>
<path opacity="0.12" d="M115.149 504.094H119.5V508.442H115.149V504.094Z" fill="white"/>
<path opacity="0.36" d="M109.432 504.094H113.782V508.442H109.432V504.094Z" fill="white"/>
<path opacity="0.51" d="M103.59 504.094H107.941V508.442H103.59V504.094Z" fill="white"/>
<path opacity="0.37" d="M97.7487 504.094H102.099V508.442H97.7487V504.094Z" fill="white"/>
<path opacity="0.66" d="M92.0312 504.094H96.3815V508.442H92.0312V504.094Z" fill="white"/>
<path opacity="0.42" d="M86.1896 504.094H90.5399V508.442H86.1896V504.094Z" fill="white"/>
<path opacity="0.5" d="M80.348 504.094H84.6981V508.442H80.348V504.094Z" fill="white"/>
<path opacity="0.52" d="M138.392 509.808H142.742V514.156H138.392V509.808Z" fill="white"/>
<path opacity="0.61" d="M132.674 509.808H137.025V514.156H132.674V509.808Z" fill="white"/>
<path opacity="0.84" d="M126.833 509.808H131.183V514.156H126.833V509.808Z" fill="white"/>
<path opacity="0.89" d="M120.991 509.808H125.341V514.156H120.991V509.808Z" fill="white"/>
<path opacity="0.33" d="M115.149 509.808H119.5V514.156H115.149V509.808Z" fill="white"/>
<path opacity="0.25" d="M109.432 509.808H113.782V514.156H109.432V509.808Z" fill="white"/>
<path opacity="0.95" d="M103.59 509.808H107.941V514.156H103.59V509.808Z" fill="white"/>
<path opacity="0.09" d="M97.7487 509.808H102.099V514.156H97.7487V509.808Z" fill="white"/>
<path opacity="0.44" d="M92.0312 509.808H96.3815V514.156H92.0312V509.808Z" fill="white"/>
<path opacity="0.51" d="M86.1896 509.808H90.5399V514.156H86.1896V509.808Z" fill="white"/>
<path opacity="0.97" d="M80.348 509.808H84.6981V514.156H80.348V509.808Z" fill="white"/>
<path opacity="0.26" d="M138.392 515.522H142.742V519.87H138.392V515.522Z" fill="white"/>
<path opacity="0.92" d="M132.674 515.522H137.025V519.87H132.674V515.522Z" fill="white"/>
<path opacity="0.33" d="M126.833 515.522H131.183V519.87H126.833V515.522Z" fill="white"/>
<path opacity="0.23" d="M120.991 515.522H125.341V519.87H120.991V515.522Z" fill="white"/>
<path opacity="0.42" d="M115.149 515.522H119.5V519.87H115.149V515.522Z" fill="white"/>
<path opacity="0.57" d="M109.432 515.522H113.782V519.87H109.432V515.522Z" fill="white"/>
<path opacity="0.73" d="M103.59 515.522H107.941V519.87H103.59V515.522Z" fill="white"/>
<path opacity="0.87" d="M97.7487 515.522H102.099V519.87H97.7487V515.522Z" fill="white"/>
<path opacity="0.22" d="M92.0312 515.522H96.3815V519.87H92.0312V515.522Z" fill="white"/>
<path opacity="0.89" d="M86.1896 515.522H90.5399V519.87H86.1896V515.522Z" fill="white"/>
<path opacity="0.73" d="M80.348 515.522H84.6981V519.87H80.348V515.522Z" fill="white"/>
<path opacity="0.35" d="M138.392 521.237H142.742V525.584H138.392V521.237Z" fill="white"/>
<path opacity="0.81" d="M132.674 521.237H137.025V525.584H132.674V521.237Z" fill="white"/>
<path opacity="0.56" d="M126.833 521.237H131.183V525.584H126.833V521.237Z" fill="white"/>
<path opacity="0.81" d="M120.991 521.237H125.341V525.584H120.991V521.237Z" fill="white"/>
<path opacity="0.87" d="M115.149 521.237H119.5V525.584H115.149V521.237Z" fill="white"/>
<path opacity="0.39" d="M109.432 521.237H113.782V525.584H109.432V521.237Z" fill="white"/>
<path opacity="0.31" d="M103.59 521.237H107.941V525.584H103.59V521.237Z" fill="white"/>
<path opacity="0.98" d="M97.7487 521.237H102.099V525.584H97.7487V521.237Z" fill="white"/>
<path opacity="0.17" d="M92.0312 521.237H96.3815V525.584H92.0312V521.237Z" fill="white"/>
<path opacity="0.06" d="M86.1896 521.237H90.5399V525.584H86.1896V521.237Z" fill="white"/>
<path opacity="0.57" d="M80.348 521.237H84.6981V525.584H80.348V521.237Z" fill="white"/>
<path opacity="0.67" d="M138.392 526.951H142.742V531.299H138.392V526.951Z" fill="white"/>
<path opacity="0.83" d="M132.674 526.951H137.025V531.299H132.674V526.951Z" fill="white"/>
<path opacity="0.99" d="M126.833 526.951H131.183V531.299H126.833V526.951Z" fill="white"/>
<path opacity="0.62" d="M120.991 526.951H125.341V531.299H120.991V526.951Z" fill="white"/>
<path opacity="0.87" d="M115.149 526.951H119.5V531.299H115.149V526.951Z" fill="white"/>
<path opacity="0.14" d="M109.432 526.951H113.782V531.299H109.432V526.951Z" fill="white"/>
<path opacity="0.12" d="M103.59 526.951H107.941V531.299H103.59V526.951Z" fill="white"/>
<path opacity="0.11" d="M97.7487 526.951H102.099V531.299H97.7487V526.951Z" fill="white"/>
<path opacity="0.39" d="M92.0312 526.951H96.3815V531.299H92.0312V526.951Z" fill="white"/>
<path opacity="0.58" d="M86.1896 526.951H90.5399V531.299H86.1896V526.951Z" fill="white"/>
<path opacity="0.54" d="M80.348 526.951H84.6981V531.299H80.348V526.951Z" fill="white"/>
<path opacity="0.99" d="M138.392 532.665H142.742V537.013H138.392V532.665Z" fill="white"/>
<path opacity="0.28" d="M132.674 532.665H137.025V537.013H132.674V532.665Z" fill="white"/>
<path opacity="0.78" d="M126.833 532.665H131.183V537.013H126.833V532.665Z" fill="white"/>
<path opacity="0.65" d="M120.991 532.665H125.341V537.013H120.991V532.665Z" fill="white"/>
<path opacity="0.32" d="M115.149 532.665H119.5V537.013H115.149V532.665Z" fill="white"/>
<path opacity="0.55" d="M109.432 532.665H113.782V537.013H109.432V532.665Z" fill="white"/>
<path opacity="0.4" d="M103.59 532.665H107.941V537.013H103.59V532.665Z" fill="white"/>
<path opacity="0.22" d="M97.7487 532.665H102.099V537.013H97.7487V532.665Z" fill="white"/>
<path opacity="0.87" d="M92.0312 532.665H96.3815V537.013H92.0312V532.665Z" fill="white"/>
<path opacity="0.02" d="M86.1896 532.665H90.5399V537.013H86.1896V532.665Z" fill="white"/>
<path opacity="0.39" d="M80.348 532.665H84.6981V537.013H80.348V532.665Z" fill="white"/>
<path opacity="0.89" d="M138.392 538.379H142.742V542.727H138.392V538.379Z" fill="white"/>
<path opacity="0.97" d="M132.674 538.379H137.025V542.727H132.674V538.379Z" fill="white"/>
<path opacity="0.79" d="M126.833 538.379H131.183V542.727H126.833V538.379Z" fill="white"/>
<path opacity="0.41" d="M120.991 538.379H125.341V542.727H120.991V538.379Z" fill="white"/>
<path opacity="0.13" d="M115.149 538.379H119.5V542.727H115.149V538.379Z" fill="white"/>
<path opacity="0.9" d="M109.432 538.379H113.782V542.727H109.432V538.379Z" fill="white"/>
<path opacity="0.98" d="M103.59 538.379H107.941V542.727H103.59V538.379Z" fill="white"/>
<path opacity="0.67" d="M97.7487 538.379H102.099V542.727H97.7487V538.379Z" fill="white"/>
<path opacity="0.65" d="M92.0312 538.379H96.3815V542.727H92.0312V538.379Z" fill="white"/>
<path opacity="0.89" d="M86.1896 538.379H90.5399V542.727H86.1896V538.379Z" fill="white"/>
<path opacity="0.98" d="M80.348 538.379H84.6981V542.727H80.348V538.379Z" fill="white"/>
<path opacity="0.29" d="M138.392 544.094H142.742V548.441H138.392V544.094Z" fill="white"/>
<path opacity="0.74" d="M132.674 544.094H137.025V548.441H132.674V544.094Z" fill="white"/>
<path opacity="0.64" d="M126.833 544.094H131.183V548.441H126.833V544.094Z" fill="white"/>
<path opacity="0.65" d="M120.991 544.094H125.341V548.441H120.991V544.094Z" fill="white"/>
<path opacity="0.07" d="M115.149 544.094H119.5V548.441H115.149V544.094Z" fill="white"/>
<path opacity="0.16" d="M109.432 544.094H113.782V548.441H109.432V544.094Z" fill="white"/>
<path opacity="0.84" d="M103.59 544.094H107.941V548.441H103.59V544.094Z" fill="white"/>
<path opacity="0.88" d="M97.7487 544.094H102.099V548.441H97.7487V544.094Z" fill="white"/>
<path opacity="0.57" d="M92.0312 544.094H96.3815V548.441H92.0312V544.094Z" fill="white"/>
<path opacity="0.31" d="M86.1896 544.094H90.5399V548.441H86.1896V544.094Z" fill="white"/>
<path opacity="0.03" d="M80.348 544.094H84.6981V548.441H80.348V544.094Z" fill="white"/>
<path opacity="0.3" d="M138.392 549.808H142.742V554.155H138.392V549.808Z" fill="white"/>
<path opacity="0.59" d="M132.674 549.808H137.025V554.155H132.674V549.808Z" fill="white"/>
<path opacity="0.93" d="M126.833 549.808H131.183V554.155H126.833V549.808Z" fill="white"/>
<path opacity="0.06" d="M120.991 549.808H125.341V554.155H120.991V549.808Z" fill="white"/>
<path opacity="0.74" d="M115.149 549.808H119.5V554.155H115.149V549.808Z" fill="white"/>
<path opacity="0.22" d="M109.432 549.808H113.782V554.155H109.432V549.808Z" fill="white"/>
<path opacity="0.51" d="M103.59 549.808H107.941V554.155H103.59V549.808Z" fill="white"/>
<path opacity="0.7" d="M97.7487 549.808H102.099V554.155H97.7487V549.808Z" fill="white"/>
<path opacity="0.47" d="M92.0312 549.808H96.3815V554.155H92.0312V549.808Z" fill="white"/>
<path opacity="0.08" d="M86.1896 549.808H90.5399V554.155H86.1896V549.808Z" fill="white"/>
<path opacity="0.93" d="M80.348 549.808H84.6981V554.155H80.348V549.808Z" fill="white"/>
<path opacity="0.81" d="M138.392 555.522H142.742V559.87H138.392V555.522Z" fill="white"/>
<path opacity="0.9" d="M132.674 555.522H137.025V559.87H132.674V555.522Z" fill="white"/>
<path opacity="0.55" d="M126.833 555.522H131.183V559.87H126.833V555.522Z" fill="white"/>
<path opacity="0.14" d="M120.991 555.522H125.341V559.87H120.991V555.522Z" fill="white"/>
<path opacity="0.66" d="M115.149 555.522H119.5V559.87H115.149V555.522Z" fill="white"/>
<path opacity="0.92" d="M109.432 555.522H113.782V559.87H109.432V555.522Z" fill="white"/>
<path opacity="0.4" d="M103.59 555.522H107.941V559.87H103.59V555.522Z" fill="white"/>
<path opacity="0.6" d="M97.7487 555.522H102.099V559.87H97.7487V555.522Z" fill="white"/>
<path opacity="0.99" d="M92.0312 555.522H96.3815V559.87H92.0312V555.522Z" fill="white"/>
<path opacity="0.68" d="M86.1896 555.522H90.5399V559.87H86.1896V555.522Z" fill="white"/>
<path opacity="0.01" d="M80.348 555.522H84.6981V559.87H80.348V555.522Z" fill="white"/>
<path d="M211.848 441.734H252.864V570.18H211.848V441.734Z" fill="#333333"/>
<path d="M234.22 435.274H252.864V442.479H234.22V435.274Z" fill="#333333"/>
<path d="M242.051 431.051H252.864V435.275H242.051V431.051Z" fill="#333333"/>
<path opacity="0.25" d="M229.124 450.802H235.836V457.51H229.124V450.802Z" fill="white"/>
<path opacity="0.15" d="M229.124 467.324H235.836V474.032H229.124V467.324Z" fill="white"/>
<path opacity="0.19" d="M229.124 500.243H235.836V506.951H229.124V500.243Z" fill="white"/>
<path opacity="0.17" d="M229.124 516.64H235.836V523.348H229.124V516.64Z" fill="white"/>
<path opacity="0.22" d="M229.124 533.037H235.836V539.745H229.124V533.037Z" fill="white"/>
<path d="M229.124 549.559H235.836V556.267H229.124V549.559Z" fill="white"/>
<path d="M242.299 513.286H280.705V524.591H242.299V513.286Z" fill="#333333"/>
<path d="M223.159 513.286H242.299V524.591H223.159V513.286Z" fill="#4D4D4D"/>
<path d="M280.705 513.286L268.773 507.572L242.299 513.286H280.705Z" fill="#333333"/>
<path d="M268.773 507.572L242.299 513.286H223.159L268.773 507.572Z" fill="#4D4D4D"/>
<path d="M233.35 521.236H289.53V572.664H233.35V521.236Z" fill="#333333"/>
<path d="M214.707 521.236H233.35V572.664H214.707V521.236Z" fill="#4D4D4D"/>
<path opacity="0.81" d="M219.057 524.839H229.124V528.565H219.057V524.839Z" fill="white"/>
<path opacity="0.76" d="M219.057 531.671H229.124V535.398H219.057V531.671Z" fill="white"/>
<path opacity="0.32" d="M219.057 538.503H229.124V542.23H219.057V538.503Z" fill="white"/>
<path opacity="0.49" d="M219.057 545.46H229.124V549.186H219.057V545.46Z" fill="white"/>
<path opacity="0.1" d="M270.513 524.839H280.581V528.565H270.513V524.839Z" fill="white"/>
<path opacity="0.04" d="M256.469 524.839H266.536V528.565H256.469V524.839Z" fill="white"/>
<path opacity="0.07" d="M242.299 524.839H252.367V528.565H242.299V524.839Z" fill="white"/>
<path opacity="0.06" d="M270.513 531.671H280.581V535.398H270.513V531.671Z" fill="white"/>
<path opacity="0.44" d="M256.469 531.671H266.536V535.398H256.469V531.671Z" fill="white"/>
<path opacity="0.24" d="M242.299 531.671H252.367V535.398H242.299V531.671Z" fill="white"/>
<path opacity="0.55" d="M270.513 538.503H280.581V542.23H270.513V538.503Z" fill="white"/>
<path opacity="0.02" d="M256.469 538.503H266.536V542.23H256.469V538.503Z" fill="white"/>
<path opacity="0.14" d="M242.299 538.503H252.367V542.23H242.299V538.503Z" fill="white"/>
<path opacity="0.43" d="M270.513 545.46H280.581V549.186H270.513V545.46Z" fill="white"/>
<path opacity="0.41" d="M256.469 545.46H266.536V549.186H256.469V545.46Z" fill="white"/>
<path opacity="0.46" d="M242.299 545.46H252.367V549.186H242.299V545.46Z" fill="white"/>
<path opacity="0.45" d="M270.513 552.292H280.581V556.019H270.513V552.292Z" fill="white"/>
<path opacity="0.33" d="M256.469 552.292H266.536V556.019H256.469V552.292Z" fill="white"/>
<path opacity="0.05" d="M242.299 552.292H252.367V556.019H242.299V552.292Z" fill="white"/>
<path d="M506.667 469.808H541.468V577.012H506.667V469.808Z" fill="#333333"/>
<path d="M467.018 469.808H506.542V577.012H467.018V469.808Z" fill="#4D4D4D"/>
<path d="M506.667 478.877H541.468V480.74H506.667V478.877Z" fill="#4D4D4D"/>
<path d="M467.018 478.877H506.542V480.74H467.018V478.877Z" fill="#333333"/>
<path opacity="0.47" d="M534.881 482.852H538.609V486.578H534.881V482.852Z" fill="white"/>
<path opacity="0.26" d="M529.785 482.852H533.514V486.578H529.785V482.852Z" fill="white"/>
<path opacity="0.32" d="M524.689 482.852H528.418V486.578H524.689V482.852Z" fill="white"/>
<path opacity="0.25" d="M519.593 482.852H523.322V486.578H519.593V482.852Z" fill="white"/>
<path opacity="0.12" d="M509.401 482.852H513.13V486.578H509.401V482.852Z" fill="white"/>
<path opacity="0.32" d="M534.881 487.945H538.609V491.671H534.881V487.945Z" fill="white"/>
<path opacity="0.22" d="M524.689 487.945H528.418V491.671H524.689V487.945Z" fill="white"/>
<path opacity="0.47" d="M519.593 487.945H523.322V491.671H519.593V487.945Z" fill="white"/>
<path opacity="0.22" d="M514.497 487.945H518.226V491.671H514.497V487.945Z" fill="white"/>
<path opacity="0.32" d="M509.401 487.945H513.13V491.671H509.401V487.945Z" fill="white"/>
<path opacity="0.37" d="M534.881 493.038H538.609V496.765H534.881V493.038Z" fill="white"/>
<path opacity="0.34" d="M529.785 493.038H533.514V496.765H529.785V493.038Z" fill="white"/>
<path opacity="0.18" d="M524.689 493.038H528.418V496.765H524.689V493.038Z" fill="white"/>
<path opacity="0.28" d="M519.593 493.038H523.322V496.765H519.593V493.038Z" fill="white"/>
<path opacity="0.2" d="M509.401 493.038H513.13V496.765H509.401V493.038Z" fill="white"/>
<path opacity="0.18" d="M534.881 498.131H538.609V501.858H534.881V498.131Z" fill="white"/>
<path opacity="0.33" d="M524.689 498.131H528.418V501.858H524.689V498.131Z" fill="white"/>
<path opacity="0.05" d="M519.593 498.131H523.322V501.858H519.593V498.131Z" fill="white"/>
<path opacity="0.08" d="M514.497 498.131H518.226V501.858H514.497V498.131Z" fill="white"/>
<path opacity="0.08" d="M519.593 503.224H523.322V506.951H519.593V503.224Z" fill="white"/>
<path opacity="0.02" d="M514.497 503.224H518.226V506.951H514.497V503.224Z" fill="white"/>
<path opacity="0.03" d="M534.881 508.317H538.609V512.044H534.881V508.317Z" fill="white"/>
<path opacity="0.46" d="M529.785 508.317H533.514V512.044H529.785V508.317Z" fill="white"/>
<path opacity="0.05" d="M524.689 508.317H528.418V512.044H524.689V508.317Z" fill="white"/>
<path opacity="0.2" d="M519.593 508.317H523.322V512.044H519.593V508.317Z" fill="white"/>
<path opacity="0.23" d="M514.497 508.317H518.226V512.044H514.497V508.317Z" fill="white"/>
<path opacity="0.17" d="M534.881 513.41H538.609V517.137H534.881V513.41Z" fill="white"/>
<path opacity="0.08" d="M529.785 513.41H533.514V517.137H529.785V513.41Z" fill="white"/>
<path opacity="0.14" d="M524.689 513.41H528.418V517.137H524.689V513.41Z" fill="white"/>
<path opacity="0.24" d="M514.497 513.41H518.226V517.137H514.497V513.41Z" fill="white"/>
<path opacity="0.28" d="M534.881 518.503H538.609V522.23H534.881V518.503Z" fill="white"/>
<path opacity="0.3" d="M529.785 518.503H533.514V522.23H529.785V518.503Z" fill="white"/>
<path opacity="0.23" d="M524.689 518.503H528.418V522.23H524.689V518.503Z" fill="white"/>
<path opacity="0.02" d="M519.593 518.503H523.322V522.23H519.593V518.503Z" fill="white"/>
<path opacity="0.04" d="M514.497 518.503H518.226V522.23H514.497V518.503Z" fill="white"/>
<path opacity="0.3" d="M509.401 518.503H513.13V522.23H509.401V518.503Z" fill="white"/>
<path opacity="0.08" d="M529.785 523.472H533.514V527.199H529.785V523.472Z" fill="white"/>
<path opacity="0.4" d="M509.401 523.472H513.13V527.199H509.401V523.472Z" fill="white"/>
<path opacity="0.31" d="M534.881 528.565H538.609V532.292H534.881V528.565Z" fill="white"/>
<path opacity="0.31" d="M529.785 528.565H533.514V532.292H529.785V528.565Z" fill="white"/>
<path opacity="0.12" d="M524.689 528.565H528.418V532.292H524.689V528.565Z" fill="white"/>
<path opacity="0.19" d="M514.497 528.565H518.226V532.292H514.497V528.565Z" fill="white"/>
<path opacity="0.43" d="M509.401 528.565H513.13V532.292H509.401V528.565Z" fill="white"/>
<path opacity="0.12" d="M534.881 533.659H538.609V537.385H534.881V533.659Z" fill="white"/>
<path opacity="0.42" d="M519.593 533.659H523.322V537.385H519.593V533.659Z" fill="white"/>
<path opacity="0.31" d="M509.401 533.659H513.13V537.385H509.401V533.659Z" fill="white"/>
<path opacity="0.23" d="M534.881 538.752H538.609V542.478H534.881V538.752Z" fill="white"/>
<path opacity="0.31" d="M519.593 538.752H523.322V542.478H519.593V538.752Z" fill="white"/>
<path opacity="0.33" d="M509.401 538.752H513.13V542.478H509.401V538.752Z" fill="white"/>
<path opacity="0.49" d="M534.881 543.845H538.609V547.572H534.881V543.845Z" fill="white"/>
<path opacity="0.06" d="M529.785 543.845H533.514V547.572H529.785V543.845Z" fill="white"/>
<path opacity="0.17" d="M519.593 543.845H523.322V547.572H519.593V543.845Z" fill="white"/>
<path opacity="0.01" d="M514.497 543.845H518.226V547.572H514.497V543.845Z" fill="white"/>
<path opacity="0.48" d="M509.401 543.845H513.13V547.572H509.401V543.845Z" fill="white"/>
<path opacity="0.05" d="M534.881 548.938H538.609V552.665H534.881V548.938Z" fill="white"/>
<path opacity="0.23" d="M529.785 548.938H533.514V552.665H529.785V548.938Z" fill="white"/>
<path opacity="0.28" d="M524.689 548.938H528.418V552.665H524.689V548.938Z" fill="white"/>
<path opacity="0.02" d="M519.593 548.938H523.322V552.665H519.593V548.938Z" fill="white"/>
<path opacity="0.17" d="M514.497 548.938H518.226V552.665H514.497V548.938Z" fill="white"/>
<path opacity="0.42" d="M509.401 548.938H513.13V552.665H509.401V548.938Z" fill="white"/>
<path opacity="0.13" d="M534.881 554.031H538.609V557.758H534.881V554.031Z" fill="white"/>
<path opacity="0.11" d="M524.689 554.031H528.418V557.758H524.689V554.031Z" fill="white"/>
<path opacity="0.02" d="M519.593 554.031H523.322V557.758H519.593V554.031Z" fill="white"/>
<path opacity="0.3" d="M509.401 554.031H513.13V557.758H509.401V554.031Z" fill="white"/>
<path opacity="0.08" d="M514.497 482.852H518.226V486.578H514.497V482.852Z" fill="white"/>
<path opacity="0.1" d="M529.785 487.945H533.514V491.671H529.785V487.945Z" fill="white"/>
<path opacity="0.08" d="M514.497 493.038H518.226V496.765H514.497V493.038Z" fill="white"/>
<path opacity="0.1" d="M529.785 498.131H533.514V501.858H529.785V498.131Z" fill="white"/>
<path opacity="0.01" d="M509.401 498.131H513.13V501.858H509.401V498.131Z" fill="white"/>
<path opacity="0.17" d="M534.881 503.224H538.609V506.951H534.881V503.224Z" fill="white"/>
<path opacity="0.01" d="M529.785 503.224H533.514V506.951H529.785V503.224Z" fill="white"/>
<path opacity="0.15" d="M524.689 503.224H528.418V506.951H524.689V503.224Z" fill="white"/>
<path opacity="0.12" d="M509.401 503.224H513.13V506.951H509.401V503.224Z" fill="white"/>
<path opacity="0.13" d="M519.593 513.41H523.322V517.137H519.593V513.41Z" fill="white"/>
<path opacity="0.07" d="M509.401 513.41H513.13V517.137H509.401V513.41Z" fill="white"/>
<path opacity="0.13" d="M534.881 523.472H538.609V527.199H534.881V523.472Z" fill="white"/>
<path opacity="0.02" d="M524.689 523.472H528.418V527.199H524.689V523.472Z" fill="white"/>
<path opacity="0.02" d="M519.593 523.472H523.322V527.199H519.593V523.472Z" fill="white"/>
<path opacity="0.14" d="M514.497 523.472H518.226V527.199H514.497V523.472Z" fill="white"/>
<path opacity="0.09" d="M524.689 533.659H528.418V537.385H524.689V533.659Z" fill="white"/>
<path opacity="0.02" d="M514.497 533.659H518.226V537.385H514.497V533.659Z" fill="white"/>
<path opacity="0.19" d="M524.689 538.752H528.418V542.478H524.689V538.752Z" fill="white"/>
<path opacity="0.06" d="M514.497 538.752H518.226V542.478H514.497V538.752Z" fill="white"/>
<path opacity="0.16" d="M524.689 543.845H528.418V547.572H524.689V543.845Z" fill="white"/>
<path opacity="0.19" d="M529.785 554.031H533.514V557.758H529.785V554.031Z" fill="white"/>
<path opacity="0.04" d="M514.497 554.031H518.226V557.758H514.497V554.031Z" fill="white"/>
<g opacity="0.7">
<path opacity="0.7" d="M499.085 480.74H502.938V572.292H499.085V480.74Z" fill="#E6E6E6"/>
<path opacity="0.7" d="M492.497 480.74H496.351V572.292H492.497V480.74Z" fill="#E6E6E6"/>
<path opacity="0.7" d="M485.786 480.74H489.639V572.292H485.786V480.74Z" fill="#E6E6E6"/>
<path opacity="0.7" d="M479.074 480.74H482.927V572.292H479.074V480.74Z" fill="#E6E6E6"/>
<path opacity="0.7" d="M472.362 480.74H476.215V572.292H472.362V480.74Z" fill="#E6E6E6"/>
</g>
<path d="M584.224 417.262L591.93 396.89L571.298 417.262H584.224Z" fill="#4D4D4D"/>
<path d="M602.247 417.262L591.93 396.89L584.224 417.262H602.247Z" fill="#333333"/>
<path d="M584.224 417.262H602.247V439.001H584.224V417.262Z" fill="#333333"/>
<path d="M571.298 417.262H584.224V439.001H571.298V417.262Z" fill="#4D4D4D"/>
<path d="M565.954 515.025H620.517V577.509H565.954V515.025Z" fill="#333333"/>
<path d="M573.411 470.305H612.936V515.025H573.411V470.305Z" fill="#333333"/>
<path d="M579.128 425.585H607.218V470.305H579.128V425.585Z" fill="#333333"/>
<path d="M559.863 425.585H579.253V470.305H559.863V425.585Z" fill="#4D4D4D"/>
<path d="M532.395 515.025H565.954V577.509H532.395V515.025Z" fill="#4D4D4D"/>
<path d="M547.931 470.305H573.411V515.025H547.931V470.305Z" fill="#4D4D4D"/>
<path opacity="0.53" d="M566.575 428.815H572.417V434.653H566.575V428.815Z" fill="white"/>
<path opacity="0.34" d="M566.575 436.144H572.417V441.982H566.575V436.144Z" fill="white"/>
<path opacity="0.9" d="M566.575 443.349H572.417V449.187H566.575V443.349Z" fill="white"/>
<path opacity="0.14" d="M566.575 450.554H572.417V456.392H566.575V450.554Z" fill="white"/>
<path d="M566.575 457.883H572.417V463.721H566.575V457.883Z" fill="white"/>
<path opacity="0.29" d="M562.225 474.156H568.067V479.994H562.225V474.156Z" fill="white"/>
<path opacity="0.81" d="M553.276 474.156H559.118V479.994H553.276V474.156Z" fill="white"/>
<path opacity="0.18" d="M562.225 481.485H568.067V487.324H562.225V481.485Z" fill="white"/>
<path opacity="0.41" d="M553.276 481.485H559.118V487.324H553.276V481.485Z" fill="white"/>
<path opacity="0.03" d="M553.276 488.938H559.118V494.777H553.276V488.938Z" fill="white"/>
<path opacity="0.85" d="M562.225 496.392H568.067V502.23H562.225V496.392Z" fill="white"/>
<path opacity="0.06" d="M553.276 496.392H559.118V502.23H553.276V496.392Z" fill="white"/>
<path opacity="0.94" d="M562.225 503.721H568.067V509.559H562.225V503.721Z" fill="white"/>
<path opacity="0.25" d="M553.276 503.721H559.118V509.559H553.276V503.721Z" fill="white"/>
<path opacity="0.6" d="M554.022 518.876H559.863V524.714H554.022V518.876Z" fill="white"/>
<path opacity="0.83" d="M546.191 518.876H552.033V524.714H546.191V518.876Z" fill="white"/>
<path opacity="0.74" d="M538.361 518.876H544.203V524.714H538.361V518.876Z" fill="white"/>
<path opacity="0.35" d="M546.191 525.957H552.033V531.795H546.191V525.957Z" fill="white"/>
<path opacity="0.54" d="M538.361 525.957H544.203V531.795H538.361V525.957Z" fill="white"/>
<path opacity="0.2" d="M554.022 533.037H559.863V538.876H554.022V533.037Z" fill="white"/>
<path opacity="0.04" d="M546.191 533.037H552.033V538.876H546.191V533.037Z" fill="white"/>
<path opacity="0.86" d="M538.361 533.037H544.203V538.876H538.361V533.037Z" fill="white"/>
<path opacity="0.06" d="M554.022 540.118H559.863V545.957H554.022V540.118Z" fill="white"/>
<path opacity="0.01" d="M546.191 540.118H552.033V545.957H546.191V540.118Z" fill="white"/>
<path opacity="0.39" d="M538.361 540.118H544.203V545.957H538.361V540.118Z" fill="white"/>
<path opacity="0.1" d="M554.022 547.323H559.863V553.161H554.022V547.323Z" fill="white"/>
<path d="M546.191 547.323H552.033V553.161H546.191V547.323Z" fill="white"/>
<path opacity="0.62" d="M538.361 547.323H544.203V553.161H538.361V547.323Z" fill="white"/>
<path opacity="0.48" d="M554.022 554.652H559.863V560.491H554.022V554.652Z" fill="white"/>
<path opacity="0.27" d="M546.191 554.652H552.033V560.491H546.191V554.652Z" fill="white"/>
<path opacity="0.42" d="M538.361 554.652H544.203V560.491H538.361V554.652Z" fill="white"/>
<path opacity="0.27" d="M608.834 518.876H614.676V524.714H608.834V518.876Z" fill="white"/>
<path opacity="0.11" d="M602.247 474.156H608.088V479.994H602.247V474.156Z" fill="white"/>
<path opacity="0.41" d="M597.648 428.815H603.49V434.653H597.648V428.815Z" fill="white"/>
<path opacity="0.38" d="M590.315 428.815H596.156V434.653H590.315V428.815Z" fill="white"/>
<path opacity="0.02" d="M582.857 428.815H588.699V434.653H582.857V428.815Z" fill="white"/>
<path opacity="0.46" d="M597.648 436.144H603.49V441.982H597.648V436.144Z" fill="white"/>
<path opacity="0.31" d="M590.315 436.144H596.156V441.982H590.315V436.144Z" fill="white"/>
<path opacity="0.61" d="M582.857 436.144H588.699V441.982H582.857V436.144Z" fill="white"/>
<path opacity="0.03" d="M597.648 443.349H603.49V449.187H597.648V443.349Z" fill="white"/>
<path opacity="0.03" d="M590.315 443.349H596.156V449.187H590.315V443.349Z" fill="white"/>
<path opacity="0.46" d="M582.857 443.349H588.699V449.187H582.857V443.349Z" fill="white"/>
<path opacity="0.32" d="M597.648 450.554H603.49V456.392H597.648V450.554Z" fill="white"/>
<path opacity="0.14" d="M590.315 450.554H596.156V456.392H590.315V450.554Z" fill="white"/>
<path opacity="0.3" d="M582.857 450.554H588.699V456.392H582.857V450.554Z" fill="white"/>
<path opacity="0.04" d="M597.648 457.883H603.49V463.721H597.648V457.883Z" fill="white"/>
<path opacity="0.64" d="M590.315 457.883H596.156V463.721H590.315V457.883Z" fill="white"/>
<path opacity="0.05" d="M582.857 457.883H588.699V463.721H582.857V457.883Z" fill="white"/>
<path opacity="0.15" d="M594.789 474.156H600.631V479.994H594.789V474.156Z" fill="white"/>
<path opacity="0.15" d="M587.332 474.156H593.173V479.994H587.332V474.156Z" fill="white"/>
<path opacity="0.52" d="M579.999 474.156H585.84V479.994H579.999V474.156Z" fill="white"/>
<path opacity="0.58" d="M602.247 481.485H608.088V487.324H602.247V481.485Z" fill="white"/>
<path opacity="0.62" d="M594.789 481.485H600.631V487.324H594.789V481.485Z" fill="white"/>
<path opacity="0.04" d="M587.332 481.485H593.173V487.324H587.332V481.485Z" fill="white"/>
<path opacity="0.06" d="M579.999 481.485H585.84V487.324H579.999V481.485Z" fill="white"/>
<path opacity="0.3" d="M602.247 488.938H608.088V494.777H602.247V488.938Z" fill="white"/>
<path opacity="0.01" d="M594.789 488.938H600.631V494.777H594.789V488.938Z" fill="white"/>
<path opacity="0.37" d="M587.332 488.938H593.173V494.777H587.332V488.938Z" fill="white"/>
<path opacity="0.62" d="M579.999 488.938H585.84V494.777H579.999V488.938Z" fill="white"/>
<path opacity="0.54" d="M602.247 496.392H608.088V502.23H602.247V496.392Z" fill="white"/>
<path opacity="0.21" d="M594.789 496.392H600.631V502.23H594.789V496.392Z" fill="white"/>
<path opacity="0.41" d="M587.332 496.392H593.173V502.23H587.332V496.392Z" fill="white"/>
<path opacity="0.1" d="M579.999 496.392H585.84V502.23H579.999V496.392Z" fill="white"/>
<path opacity="0.17" d="M602.247 503.721H608.088V509.559H602.247V503.721Z" fill="white"/>
<path opacity="0.17" d="M594.789 503.721H600.631V509.559H594.789V503.721Z" fill="white"/>
<path opacity="0.13" d="M587.332 503.721H593.173V509.559H587.332V503.721Z" fill="white"/>
<path opacity="0.5" d="M579.999 503.721H585.84V509.559H579.999V503.721Z" fill="white"/>
<path opacity="0.06" d="M601.377 518.876H607.218V524.714H601.377V518.876Z" fill="white"/>
<path opacity="0.27" d="M594.043 518.876H599.885V524.714H594.043V518.876Z" fill="white"/>
<path opacity="0.51" d="M586.586 518.876H592.428V524.714H586.586V518.876Z" fill="white"/>
<path opacity="0.42" d="M579.128 518.876H584.97V524.714H579.128V518.876Z" fill="white"/>
<path opacity="0.64" d="M571.795 518.876H577.637V524.714H571.795V518.876Z" fill="white"/>
<path opacity="0.29" d="M608.834 525.957H614.676V531.795H608.834V525.957Z" fill="white"/>
<path opacity="0.6" d="M601.377 525.957H607.218V531.795H601.377V525.957Z" fill="white"/>
<path opacity="0.2" d="M594.043 525.957H599.885V531.795H594.043V525.957Z" fill="white"/>
<path opacity="0.24" d="M586.586 525.957H592.428V531.795H586.586V525.957Z" fill="white"/>
<path opacity="0.62" d="M579.128 525.957H584.97V531.795H579.128V525.957Z" fill="white"/>
<path opacity="0.62" d="M571.795 525.957H577.637V531.795H571.795V525.957Z" fill="white"/>
<path opacity="0.25" d="M608.834 533.037H614.676V538.876H608.834V533.037Z" fill="white"/>
<path opacity="0.36" d="M601.377 533.037H607.218V538.876H601.377V533.037Z" fill="white"/>
<path opacity="0.16" d="M594.043 533.037H599.885V538.876H594.043V533.037Z" fill="white"/>
<path opacity="0.1" d="M586.586 533.037H592.428V538.876H586.586V533.037Z" fill="white"/>
<path opacity="0.04" d="M579.128 533.037H584.97V538.876H579.128V533.037Z" fill="white"/>
<path opacity="0.44" d="M571.795 533.037H577.637V538.876H571.795V533.037Z" fill="white"/>
<path opacity="0.68" d="M608.834 540.118H614.676V545.957H608.834V540.118Z" fill="white"/>
<path opacity="0.01" d="M601.377 540.118H607.218V545.957H601.377V540.118Z" fill="white"/>
<path opacity="0.29" d="M594.043 540.118H599.885V545.957H594.043V540.118Z" fill="white"/>
<path opacity="0.66" d="M586.586 540.118H592.428V545.957H586.586V540.118Z" fill="white"/>
<path opacity="0.12" d="M579.128 540.118H584.97V545.957H579.128V540.118Z" fill="white"/>
<path opacity="0.34" d="M571.795 540.118H577.637V545.957H571.795V540.118Z" fill="white"/>
<path opacity="0.36" d="M608.834 547.323H614.676V553.161H608.834V547.323Z" fill="white"/>
<path opacity="0.5" d="M601.377 547.323H607.218V553.161H601.377V547.323Z" fill="white"/>
<path opacity="0.07" d="M594.043 547.323H599.885V553.161H594.043V547.323Z" fill="white"/>
<path opacity="0.64" d="M586.586 547.323H592.428V553.161H586.586V547.323Z" fill="white"/>
<path opacity="0.4" d="M579.128 547.323H584.97V553.161H579.128V547.323Z" fill="white"/>
<path opacity="0.27" d="M571.795 547.323H577.637V553.161H571.795V547.323Z" fill="white"/>
<path opacity="0.09" d="M608.834 554.652H614.676V560.491H608.834V554.652Z" fill="white"/>
<path opacity="0.47" d="M601.377 554.652H607.218V560.491H601.377V554.652Z" fill="white"/>
<path opacity="0.57" d="M594.043 554.652H599.885V560.491H594.043V554.652Z" fill="white"/>
<path opacity="0.12" d="M586.586 554.652H592.428V560.491H586.586V554.652Z" fill="white"/>
<path opacity="0.23" d="M579.128 554.652H584.97V560.491H579.128V554.652Z" fill="white"/>
<path opacity="0.36" d="M571.795 554.652H577.637V560.491H571.795V554.652Z" fill="white"/>
<path d="M447.131 572.292H524.44L447.131 504.963V572.292Z" fill="#333333"/>
<path d="M612.936 573.658H720.075L612.936 480.491V573.658Z" fill="#333333"/>
<path d="M455.707 556.888H478.328V563.845H455.707V556.888Z" fill="#4D4D4D"/>
<path d="M458.317 559H475.842L469.752 548.814H464.408L458.317 559Z" fill="#4D4D4D"/>
<path d="M552.406 566.702C552.406 571.546 556.259 575.521 560.982 575.521C565.705 575.521 569.558 571.546 569.558 566.702C569.558 561.857 565.705 557.882 560.982 557.882C556.259 557.758 552.406 561.733 552.406 566.702Z" fill="#333333"/>
<path d="M321.597 562.851C321.597 566.081 324.207 568.814 327.315 568.814C330.422 568.814 333.032 566.205 333.032 562.851C333.032 559.621 330.422 556.888 327.315 556.888C324.207 556.888 321.597 559.621 321.597 562.851Z" fill="#333333"/>
<path d="M521.83 563.223C521.83 566.577 524.44 569.31 527.796 569.31C531.028 569.31 533.762 566.577 533.762 563.223C533.762 559.869 531.152 557.136 527.796 557.136C524.44 557.136 521.83 559.869 521.83 563.223Z" fill="#333333"/>
</g>
</g>
<defs>
<clipPath id="clip0">
<rect width="811" height="559" transform="matrix(-1 0 0 1 811.553 0)" fill="white"/>
</clipPath>
</defs>
</svg>
