<svg width="636" height="559" viewBox="0 0 637 559" fill="none" xmlns="http://www.w3.org/2000/svg">
<g opacity="0.05">
<g clip-path="url(#clip0)">
<path d="M111.87 355.648H70.8536V551.671H111.87V355.648Z" fill="#333333"/>
<path d="M100.559 345.71H81.9155V356.766H100.559V345.71Z" fill="#333333"/>
<path d="M96.7062 339.251H85.8929V345.586H96.7062V339.251Z" fill="#333333"/>
<path d="M90.6159 355.275L91.3617 248.444L91.9832 355.275H90.6159Z" fill="#333333"/>
<path opacity="0.09" d="M93.4746 370.431H89.1245V374.778H93.4746V370.431Z" fill="white"/>
<path opacity="0.33" d="M93.4746 384.219H89.1245V388.567H93.4746V384.219Z" fill="white"/>
<path opacity="0.37" d="M93.4746 398.132H89.1245V402.48H93.4746V398.132Z" fill="white"/>
<path opacity="0.14" d="M93.4746 411.921H89.1245V416.269H93.4746V411.921Z" fill="white"/>
<path opacity="0.3" d="M93.4746 425.834H89.1245V430.182H93.4746V425.834Z" fill="white"/>
<path opacity="0.16" d="M93.4746 439.622H89.1245V443.97H93.4746V439.622Z" fill="white"/>
<path opacity="0.34" d="M93.4746 453.535H89.1245V457.883H93.4746V453.535Z" fill="white"/>
<path opacity="0.29" d="M93.4746 467.324H89.1245V471.672H93.4746V467.324Z" fill="white"/>
<path opacity="0.12" d="M93.4746 481.237H89.1245V485.585H93.4746V481.237Z" fill="white"/>
<path d="M36.9221 399.996H-91.595V571.05H36.9221V399.996Z" fill="#4D4D4D"/>
<path d="M3.23921 407.076H-3.5968V413.908H3.23921V407.076Z" fill="white"/>
<path d="M12.3125 407.076H5.47644V413.908H12.3125V407.076Z" fill="white"/>
<path d="M3.23921 416.02H-3.5968V422.853H3.23921V416.02Z" fill="white"/>
<path d="M12.3125 416.02H5.47644V422.853H12.3125V416.02Z" fill="white"/>
<path d="M3.23921 424.964H-3.5968V431.797H3.23921V424.964Z" fill="white"/>
<path d="M12.3125 424.964H5.47644V431.797H12.3125V424.964Z" fill="white"/>
<path d="M3.23921 433.784H-3.5968V440.616H3.23921V433.784Z" fill="white"/>
<path d="M12.3125 433.784H5.47644V440.616H12.3125V433.784Z" fill="white"/>
<path d="M3.23921 442.728H-3.5968V449.56H3.23921V442.728Z" fill="white"/>
<path d="M12.3125 442.728H5.47644V449.56H12.3125V442.728Z" fill="white"/>
<path d="M3.23921 451.672H-3.5968V458.504H3.23921V451.672Z" fill="white"/>
<path d="M12.3125 451.672H5.47644V458.504H12.3125V451.672Z" fill="white"/>
<path d="M3.23921 460.616H-3.5968V467.448H3.23921V460.616Z" fill="white"/>
<path d="M12.3125 460.616H5.47644V467.448H12.3125V460.616Z" fill="white"/>
<path d="M3.23921 469.56H-3.5968V476.392H3.23921V469.56Z" fill="white"/>
<path d="M12.3125 469.56H5.47644V476.392H12.3125V469.56Z" fill="white"/>
<path d="M3.23921 478.38H-3.5968V485.212H3.23921V478.38Z" fill="white"/>
<path d="M12.3125 478.38H5.47644V485.212H12.3125V478.38Z" fill="white"/>
<path d="M3.23921 487.324H-3.5968V494.156H3.23921V487.324Z" fill="white"/>
<path d="M12.3125 487.324H5.47644V494.156H12.3125V487.324Z" fill="white"/>
<path d="M3.23921 496.268H-3.5968V503.1H3.23921V496.268Z" fill="white"/>
<path d="M12.3125 496.268H5.47644V503.1H12.3125V496.268Z" fill="white"/>
<path d="M3.23921 505.212H-3.5968V512.044H3.23921V505.212Z" fill="white"/>
<path d="M12.3125 505.212H5.47644V512.044H12.3125V505.212Z" fill="white"/>
<path d="M3.23921 514.156H-3.5968V520.988H3.23921V514.156Z" fill="white"/>
<path d="M12.3125 514.156H5.47644V520.988H12.3125V514.156Z" fill="white"/>
<path d="M3.23921 522.976H-3.5968V529.808H3.23921V522.976Z" fill="white"/>
<path d="M12.3125 522.976H5.47644V529.808H12.3125V522.976Z" fill="white"/>
<path d="M21.3858 522.976H14.5497V529.808H21.3858V522.976Z" fill="white"/>
<path d="M3.23921 531.92H-3.5968V538.752H3.23921V531.92Z" fill="white"/>
<path d="M12.3125 531.92H5.47644V538.752H12.3125V531.92Z" fill="white"/>
<path d="M21.3858 531.92H14.5497V538.752H21.3858V531.92Z" fill="white"/>
<path d="M3.23921 540.864H-3.5968V547.696H3.23921V540.864Z" fill="white"/>
<path d="M12.3125 540.864H5.47644V547.696H12.3125V540.864Z" fill="white"/>
<path d="M21.3858 540.864H14.5497V547.696H21.3858V540.864Z" fill="white"/>
<path d="M3.23921 549.808H-3.5968V556.64H3.23921V549.808Z" fill="white"/>
<path d="M12.3125 549.808H5.47644V556.64H12.3125V549.808Z" fill="white"/>
<path d="M21.3858 549.808H14.5497V556.64H21.3858V549.808Z" fill="white"/>
<path d="M3.23921 558.751H-3.5968V565.584H3.23921V558.751Z" fill="white"/>
<path d="M12.3125 558.751H5.47644V565.584H12.3125V558.751Z" fill="white"/>
<path d="M21.3858 558.751H14.5497V565.584H21.3858V558.751Z" fill="white"/>
<path d="M17.9056 382.604H-72.5784V399.996H17.9056V382.604Z" fill="#4D4D4D"/>
<path opacity="0.19" d="M21.3858 407.076H14.5497V413.908H21.3858V407.076Z" fill="white"/>
<path opacity="0.24" d="M21.3858 416.02H14.5497V422.852H21.3858V416.02Z" fill="white"/>
<path opacity="0.29" d="M21.3858 424.964H14.5497V431.796H21.3858V424.964Z" fill="white"/>
<path opacity="0.39" d="M21.3858 433.784H14.5497V440.616H21.3858V433.784Z" fill="white"/>
<path opacity="0.21" d="M21.3858 442.728H14.5497V449.56H21.3858V442.728Z" fill="white"/>
<path opacity="0.48" d="M21.3858 451.672H14.5497V458.504H21.3858V451.672Z" fill="white"/>
<path opacity="0.32" d="M21.3858 460.616H14.5497V467.448H21.3858V460.616Z" fill="white"/>
<path opacity="0.13" d="M21.3858 469.56H14.5497V476.392H21.3858V469.56Z" fill="white"/>
<path opacity="0.19" d="M21.3858 478.38H14.5497V485.212H21.3858V478.38Z" fill="white"/>
<path opacity="0.03" d="M21.3858 487.324H14.5497V494.156H21.3858V487.324Z" fill="white"/>
<path opacity="0.36" d="M21.3858 496.268H14.5497V503.1H21.3858V496.268Z" fill="white"/>
<path opacity="0.25" d="M21.3858 505.212H14.5497V512.044H21.3858V505.212Z" fill="white"/>
<path d="M21.3858 514.156H14.5497V520.988H21.3858V514.156Z" fill="white"/>
<path d="M297.436 477.634H256.42V573.658H297.436V477.634Z" fill="#333333"/>
<path d="M275.064 472.79H256.42V478.255H275.064V472.79Z" fill="#333333"/>
<path d="M267.234 469.684H256.42V472.79H267.234V469.684Z" fill="#333333"/>
<path opacity="0.06" d="M280.284 484.342H273.573V489.311H280.284V484.342Z" fill="white"/>
<path opacity="0.12" d="M280.284 496.64H273.573V501.609H280.284V496.64Z" fill="white"/>
<path opacity="0.19" d="M280.284 521.236H273.573V526.205H280.284V521.236Z" fill="white"/>
<path opacity="0.14" d="M280.284 545.832H273.573V550.801H280.284V545.832Z" fill="white"/>
<path opacity="0.1" d="M280.284 558.13H273.573V563.099H280.284V558.13Z" fill="white"/>
<path d="M194.523 488.069H138.344V539.497H194.523V488.069Z" fill="#333333"/>
<path d="M185.699 483.473H147.293V505.584H185.699V483.473Z" fill="#333333"/>
<path d="M198.625 520.491H142.445V571.919H198.625V520.491Z" fill="#333333"/>
<path d="M189.676 515.895H151.27V538.006H189.676V515.895Z" fill="#333333"/>
<path d="M273.448 513.659H217.269V572.913H273.448V513.659Z" fill="#333333"/>
<path d="M264.624 508.441H226.218V534.031H264.624V508.441Z" fill="#333333"/>
<path d="M461.501 531.671H405.321V588.938H461.501V531.671Z" fill="#333333"/>
<path d="M452.676 526.578H414.27V551.298H452.676V526.578Z" fill="#333333"/>
<path d="M339.695 413.411H276.928V572.789H339.695V413.411Z" fill="#333333"/>
<path opacity="0.46" d="M295.199 420.616H280.036V423.474H295.199V420.616Z" fill="#E6E6E6"/>
<path opacity="0.34" d="M315.956 420.616H300.792V423.474H315.956V420.616Z" fill="#E6E6E6"/>
<path opacity="0.52" d="M336.588 420.616H321.425V423.474H336.588V420.616Z" fill="#E6E6E6"/>
<path opacity="0.54" d="M295.199 427.2H280.036V430.057H295.199V427.2Z" fill="#E6E6E6"/>
<path opacity="0.3" d="M315.956 427.2H300.792V430.057H315.956V427.2Z" fill="#E6E6E6"/>
<path opacity="0.06" d="M336.588 427.2H321.425V430.057H336.588V427.2Z" fill="#E6E6E6"/>
<path opacity="0.15" d="M295.199 433.784H280.036V436.641H295.199V433.784Z" fill="#E6E6E6"/>
<path opacity="0.42" d="M315.956 433.784H300.792V436.641H315.956V433.784Z" fill="#E6E6E6"/>
<path opacity="0.48" d="M336.588 433.784H321.425V436.641H336.588V433.784Z" fill="#E6E6E6"/>
<path opacity="0.18" d="M295.199 440.368H280.036V443.225H295.199V440.368Z" fill="#E6E6E6"/>
<path opacity="0.28" d="M336.588 440.368H321.425V443.225H336.588V440.368Z" fill="#E6E6E6"/>
<path opacity="0.29" d="M295.199 446.951H280.036V449.809H295.199V446.951Z" fill="#E6E6E6"/>
<path opacity="0.28" d="M315.956 446.951H300.792V449.809H315.956V446.951Z" fill="#E6E6E6"/>
<path opacity="0.56" d="M336.588 446.951H321.425V449.809H336.588V446.951Z" fill="#E6E6E6"/>
<path opacity="0.41" d="M295.199 453.535H280.036V456.392H295.199V453.535Z" fill="#E6E6E6"/>
<path opacity="0.16" d="M315.956 453.535H300.792V456.392H315.956V453.535Z" fill="#E6E6E6"/>
<path opacity="0.4" d="M336.588 453.535H321.425V456.392H336.588V453.535Z" fill="#E6E6E6"/>
<path opacity="0.1" d="M295.199 460.119H280.036V462.976H295.199V460.119Z" fill="#E6E6E6"/>
<path opacity="0.17" d="M315.956 460.119H300.792V462.976H315.956V460.119Z" fill="#E6E6E6"/>
<path opacity="0.08" d="M336.588 460.119H321.425V462.976H336.588V460.119Z" fill="#E6E6E6"/>
<path opacity="0.49" d="M295.199 466.703H280.036V469.56H295.199V466.703Z" fill="#E6E6E6"/>
<path opacity="0.58" d="M315.956 466.703H300.792V469.56H315.956V466.703Z" fill="#E6E6E6"/>
<path opacity="0.58" d="M336.588 466.703H321.425V469.56H336.588V466.703Z" fill="#E6E6E6"/>
<path opacity="0.26" d="M295.199 473.287H280.036V476.144H295.199V473.287Z" fill="#E6E6E6"/>
<path opacity="0.37" d="M315.956 473.287H300.792V476.144H315.956V473.287Z" fill="#E6E6E6"/>
<path opacity="0.34" d="M336.588 473.287H321.425V476.144H336.588V473.287Z" fill="#E6E6E6"/>
<path opacity="0.55" d="M295.199 479.87H280.036V482.727H295.199V479.87Z" fill="#E6E6E6"/>
<path opacity="0.12" d="M315.956 479.87H300.792V482.727H315.956V479.87Z" fill="#E6E6E6"/>
<path opacity="0.6" d="M336.588 479.87H321.425V482.727H336.588V479.87Z" fill="#E6E6E6"/>
<path opacity="0.02" d="M295.199 486.454H280.036V489.311H295.199V486.454Z" fill="#E6E6E6"/>
<path opacity="0.28" d="M315.956 486.454H300.792V489.311H315.956V486.454Z" fill="#E6E6E6"/>
<path opacity="0.21" d="M336.588 486.454H321.425V489.311H336.588V486.454Z" fill="#E6E6E6"/>
<path opacity="0.57" d="M295.199 493.038H280.036V495.895H295.199V493.038Z" fill="#E6E6E6"/>
<path opacity="0.38" d="M315.956 493.038H300.792V495.895H315.956V493.038Z" fill="#E6E6E6"/>
<path opacity="0.25" d="M336.588 493.038H321.425V495.895H336.588V493.038Z" fill="#E6E6E6"/>
<path opacity="0.15" d="M295.199 499.622H280.036V502.479H295.199V499.622Z" fill="#E6E6E6"/>
<path opacity="0.47" d="M315.956 499.622H300.792V502.479H315.956V499.622Z" fill="#E6E6E6"/>
<path opacity="0.3" d="M336.588 499.622H321.425V502.479H336.588V499.622Z" fill="#E6E6E6"/>
<path opacity="0.4" d="M295.199 506.206H280.036V509.063H295.199V506.206Z" fill="#E6E6E6"/>
<path opacity="0.39" d="M315.956 506.206H300.792V509.063H315.956V506.206Z" fill="#E6E6E6"/>
<path opacity="0.24" d="M336.588 506.206H321.425V509.063H336.588V506.206Z" fill="#E6E6E6"/>
<path opacity="0.46" d="M295.199 512.789H280.036V515.646H295.199V512.789Z" fill="#E6E6E6"/>
<path opacity="0.22" d="M315.956 512.789H300.792V515.646H315.956V512.789Z" fill="#E6E6E6"/>
<path opacity="0.11" d="M336.588 512.789H321.425V515.646H336.588V512.789Z" fill="#E6E6E6"/>
<path opacity="0.11" d="M315.956 519.373H300.792V522.23H315.956V519.373Z" fill="#E6E6E6"/>
<path opacity="0.02" d="M336.588 519.373H321.425V522.23H336.588V519.373Z" fill="#E6E6E6"/>
<path opacity="0.27" d="M295.199 525.957H280.036V528.814H295.199V525.957Z" fill="#E6E6E6"/>
<path opacity="0.21" d="M315.956 525.957H300.792V528.814H315.956V525.957Z" fill="#E6E6E6"/>
<path opacity="0.49" d="M336.588 525.957H321.425V528.814H336.588V525.957Z" fill="#E6E6E6"/>
<path opacity="0.6" d="M295.199 532.541H280.036V535.398H295.199V532.541Z" fill="#E6E6E6"/>
<path opacity="0.31" d="M315.956 532.541H300.792V535.398H315.956V532.541Z" fill="#E6E6E6"/>
<path opacity="0.22" d="M336.588 532.541H321.425V535.398H336.588V532.541Z" fill="#E6E6E6"/>
<path opacity="0.54" d="M295.199 539.125H280.036V541.982H295.199V539.125Z" fill="#E6E6E6"/>
<path opacity="0.6" d="M315.956 539.125H300.792V541.982H315.956V539.125Z" fill="#E6E6E6"/>
<path opacity="0.08" d="M336.588 539.125H321.425V541.982H336.588V539.125Z" fill="#E6E6E6"/>
<path opacity="0.55" d="M315.956 545.708H300.792V548.565H315.956V545.708Z" fill="#E6E6E6"/>
<path d="M336.588 545.708H321.425V548.565H336.588V545.708Z" fill="#E6E6E6"/>
<path opacity="0.6" d="M296.194 420.616H295.199V548.565H296.194V420.616Z" fill="#E6E6E6"/>
<path opacity="0.6" d="M321.425 420.616H320.43V548.565H321.425V420.616Z" fill="#E6E6E6"/>
<path d="M371.017 413.411H339.695V572.789H371.017V413.411Z" fill="#4D4D4D"/>
<path opacity="0.69" d="M366.418 420.616H342.803V423.474H366.418V420.616Z" fill="#E6E6E6"/>
<path opacity="0.79" d="M366.418 427.2H342.803V430.057H366.418V427.2Z" fill="#E6E6E6"/>
<path opacity="0.19" d="M366.418 433.784H342.803V436.641H366.418V433.784Z" fill="#E6E6E6"/>
<path opacity="0.88" d="M366.418 440.368H342.803V443.225H366.418V440.368Z" fill="#E6E6E6"/>
<path opacity="0.5" d="M366.418 446.951H342.803V449.809H366.418V446.951Z" fill="#E6E6E6"/>
<path opacity="0.25" d="M366.418 453.535H342.803V456.392H366.418V453.535Z" fill="#E6E6E6"/>
<path opacity="0.91" d="M366.418 460.119H342.803V462.976H366.418V460.119Z" fill="#E6E6E6"/>
<path opacity="0.02" d="M366.418 466.703H342.803V469.56H366.418V466.703Z" fill="#E6E6E6"/>
<path opacity="0.53" d="M366.418 473.287H342.803V476.144H366.418V473.287Z" fill="#E6E6E6"/>
<path opacity="0.65" d="M366.418 479.87H342.803V482.727H366.418V479.87Z" fill="#E6E6E6"/>
<path d="M366.418 486.454H342.803V489.311H366.418V486.454Z" fill="#E6E6E6"/>
<path opacity="0.8" d="M366.418 493.038H342.803V495.895H366.418V493.038Z" fill="#E6E6E6"/>
<path opacity="0.82" d="M366.418 499.622H342.803V502.479H366.418V499.622Z" fill="#E6E6E6"/>
<path opacity="0.75" d="M366.418 506.206H342.803V509.063H366.418V506.206Z" fill="#E6E6E6"/>
<path opacity="0.31" d="M366.418 512.789H342.803V515.646H366.418V512.789Z" fill="#E6E6E6"/>
<path opacity="0.22" d="M366.418 519.373H342.803V522.23H366.418V519.373Z" fill="#E6E6E6"/>
<path opacity="0.43" d="M366.418 525.957H342.803V528.814H366.418V525.957Z" fill="#E6E6E6"/>
<path opacity="0.68" d="M366.418 532.541H342.803V535.398H366.418V532.541Z" fill="#E6E6E6"/>
<path opacity="0.38" d="M366.418 539.125H342.803V541.982H366.418V539.125Z" fill="#E6E6E6"/>
<path opacity="0.84" d="M366.418 545.708H342.803V548.565H366.418V545.708Z" fill="#E6E6E6"/>
<path d="M287.99 404.964V413.411H328.634V404.964H287.99ZM297.064 410.679H292.838V407.821H297.064V410.679ZM303.651 410.679H299.549V407.821H303.651V410.679ZM310.363 410.679H306.261V407.821H310.363V410.679ZM317.074 410.679H312.849V407.821H317.074V410.679ZM323.786 410.679H319.56V407.821H323.786V410.679Z" fill="#333333"/>
<path d="M336.091 407.822H334.972V410.679H336.091V407.822Z" fill="#333333"/>
<path d="M328.634 404.964V413.411H347.774V404.964H328.634ZM336.091 410.679H331.989V407.821H336.091V410.679ZM344.916 410.679H340.814V407.821H344.916V410.679Z" fill="#4D4D4D"/>
<path d="M344.791 407.822H343.673V410.679H344.791V407.822Z" fill="#333333"/>
<path d="M348.023 583.596H263.505L348.023 521.236V583.596Z" fill="#333333"/>
<path d="M221.992 379.623H215.156V405.586H221.992V379.623Z" fill="#4D4D4D"/>
<path d="M215.28 379.623H208.32V405.586H215.28V379.623Z" fill="#333333"/>
<path d="M229.076 379.623H222.116V405.586H229.076V379.623Z" fill="#666666"/>
<path d="M249.212 423.349H229.822V571.422H249.212V423.349Z" fill="#666666"/>
<path d="M207.077 423.349H190.173V571.422H207.077V423.349Z" fill="#333333"/>
<path d="M229.822 423.349H206.953V571.422H229.822V423.349Z" fill="#4D4D4D"/>
<path opacity="0.6" d="M195.021 427.697H192.535V569.435H195.021V427.697Z" fill="#E6E6E6"/>
<path opacity="0.6" d="M199.868 427.697H197.382V569.435H199.868V427.697Z" fill="#E6E6E6"/>
<path opacity="0.6" d="M204.715 427.697H202.229V569.435H204.715V427.697Z" fill="#E6E6E6"/>
<path d="M233.675 427.697H231.189V569.435H233.675V427.697Z" fill="#E6E6E6"/>
<path d="M238.522 427.697H236.037V569.435H238.522V427.697Z" fill="#E6E6E6"/>
<path d="M247.969 427.697H245.483V569.435H247.969V427.697Z" fill="#E6E6E6"/>
<path d="M243.37 427.697H240.884V569.435H243.37V427.697Z" fill="#E6E6E6"/>
<path opacity="0.8" d="M209.811 569.435H226.963V427.697H209.811V569.435ZM212.546 430.181H224.229V566.95H212.546V430.181Z" fill="#E6E6E6"/>
<path opacity="0.8" d="M214.783 564.59H222.116V432.417H214.783V564.59ZM217.269 435.523H218.139H218.636H219.63V561.484H218.636H218.139H217.269V435.523Z" fill="#E6E6E6"/>
<path opacity="0.8" d="M218.636 435.523H218.139V561.484H218.636V435.523Z" fill="#E6E6E6"/>
<path d="M227.212 397.387H210.06V423.349H227.212V397.387Z" fill="#4D4D4D"/>
<path d="M227.212 397.387H210.06V423.349H227.212V397.387Z" fill="#4D4D4D"/>
<path d="M244.364 397.387H227.212V423.349H244.364V397.387Z" fill="#666666"/>
<path d="M210.06 397.387H192.908V423.349H210.06V397.387Z" fill="#333333"/>
<path d="M228.952 379.623H208.32L215.156 384.343H222.116L228.952 379.623Z" fill="#808080"/>
<path d="M597.724 370.058H587.781V399.25H597.724V370.058Z" fill="#4D4D4D"/>
<path d="M587.656 370.058H577.713V399.25H587.656V370.058Z" fill="#333333"/>
<path d="M607.667 370.058H597.724V399.25H607.667V370.058Z" fill="#666666"/>
<path d="M637 419.374H608.91V586.204H637V419.374Z" fill="#666666"/>
<path d="M575.849 419.374H551.488V586.204H575.849V419.374Z" fill="#333333"/>
<path d="M608.91 419.374H575.849V586.204H608.91V419.374Z" fill="#4D4D4D"/>
<path opacity="0.4" d="M558.448 424.343H554.844V583.969H558.448V424.343Z" fill="#E6E6E6"/>
<path opacity="0.4" d="M565.533 424.343H561.928V583.969H565.533V424.343Z" fill="#E6E6E6"/>
<path opacity="0.4" d="M572.617 424.343H569.013V583.969H572.617V424.343Z" fill="#E6E6E6"/>
<path d="M614.503 424.343H610.899V583.969H614.503V424.343Z" fill="#E6E6E6"/>
<path d="M621.588 424.343H617.983V583.969H621.588V424.343Z" fill="#E6E6E6"/>
<path d="M635.136 424.343H631.531V583.969H635.136V424.343Z" fill="#E6E6E6"/>
<path d="M628.548 424.343H624.944V583.969H628.548V424.343Z" fill="#E6E6E6"/>
<path d="M580.075 583.969H604.933V424.343H580.075V583.969ZM583.928 427.076H600.831V581.236H583.928V427.076Z" fill="#E6E6E6"/>
<path d="M587.035 578.627H597.724V429.685H587.035V578.627ZM590.764 433.163H592.131H592.752H594.12V575.149H592.752H592.131H590.764V433.163Z" fill="#E6E6E6"/>
<path d="M592.752 433.163H592.131V575.149H592.752V433.163Z" fill="#E6E6E6"/>
<path d="M605.181 390.182H580.323V419.374H605.181V390.182Z" fill="#4D4D4D"/>
<path d="M605.181 390.182H580.323V419.374H605.181V390.182Z" fill="#4D4D4D"/>
<path d="M630.04 390.182H605.181V419.374H630.04V390.182Z" fill="#666666"/>
<path d="M580.448 390.182H555.589V419.374H580.448V390.182Z" fill="#333333"/>
<path d="M607.792 370.058H577.713L587.781 375.399H597.724L607.792 370.058Z" fill="#808080"/>
<path d="M526.008 442.479H458.021V465.088H526.008V442.479Z" fill="#E6E6E6"/>
<path d="M484.743 442.479H458.021V465.088H484.743V442.479Z" fill="#B3B3B3"/>
<path d="M484.743 465.212H431.92V575.025H484.743V465.212Z" fill="#333333"/>
<path d="M567.273 465.212H484.743V575.025H567.273V465.212Z" fill="#4D4D4D"/>
<path d="M478.28 454.032H437.637V465.212H478.28V454.032Z" fill="#333333"/>
<path d="M554.968 454.032H496.924V465.212H554.968V454.032Z" fill="#4D4D4D"/>
<path d="M507.986 433.908H484.743V442.479H507.986V433.908Z" fill="#E6E6E6"/>
<path d="M496.302 425.213H484.743V433.784H496.302V425.213Z" fill="#4D4D4D"/>
<path d="M484.619 425.213H473.06V433.784H484.619V425.213Z" fill="#333333"/>
<path d="M484.743 433.908H466.97V442.479H484.743V433.908Z" fill="#B3B3B3"/>
<path d="M483.998 425.213L484.743 405.337L485.365 425.213H483.998Z" fill="#333333"/>
<path opacity="0.12" d="M448.575 469.684H444.224V474.032H448.575V469.684Z" fill="white"/>
<path opacity="0.25" d="M454.541 469.684H450.19V474.032H454.541V469.684Z" fill="white"/>
<path opacity="0.36" d="M460.506 469.684H456.156V474.032H460.506V469.684Z" fill="white"/>
<path opacity="0.12" d="M466.472 469.684H462.122V474.032H466.472V469.684Z" fill="white"/>
<path opacity="0.14" d="M472.438 469.684H468.088V474.032H472.438V469.684Z" fill="white"/>
<path opacity="0.28" d="M448.575 475.399H444.224V479.746H448.575V475.399Z" fill="white"/>
<path opacity="0.4" d="M454.541 475.399H450.19V479.746H454.541V475.399Z" fill="white"/>
<path opacity="0.16" d="M460.506 475.399H456.156V479.746H460.506V475.399Z" fill="white"/>
<path opacity="0.17" d="M472.438 475.399H468.088V479.746H472.438V475.399Z" fill="white"/>
<path opacity="0.27" d="M448.575 481.113H444.224V485.461H448.575V481.113Z" fill="white"/>
<path opacity="0.45" d="M454.541 481.113H450.19V485.461H454.541V481.113Z" fill="white"/>
<path opacity="0.45" d="M460.506 481.113H456.156V485.461H460.506V481.113Z" fill="white"/>
<path opacity="0.48" d="M466.472 481.113H462.122V485.461H466.472V481.113Z" fill="white"/>
<path opacity="0.25" d="M472.438 481.113H468.088V485.461H472.438V481.113Z" fill="white"/>
<path opacity="0.28" d="M448.575 486.827H444.224V491.175H448.575V486.827Z" fill="white"/>
<path opacity="0.13" d="M454.541 486.827H450.19V491.175H454.541V486.827Z" fill="white"/>
<path opacity="0.07" d="M460.506 486.827H456.156V491.175H460.506V486.827Z" fill="white"/>
<path opacity="0.39" d="M466.472 486.827H462.122V491.175H466.472V486.827Z" fill="white"/>
<path opacity="0.47" d="M472.438 486.827H468.088V491.175H472.438V486.827Z" fill="white"/>
<path opacity="0.28" d="M448.575 492.541H444.224V496.889H448.575V492.541Z" fill="white"/>
<path opacity="0.2" d="M454.541 492.541H450.19V496.889H454.541V492.541Z" fill="white"/>
<path opacity="0.04" d="M460.506 492.541H456.156V496.889H460.506V492.541Z" fill="white"/>
<path opacity="0.43" d="M466.472 492.541H462.122V496.889H466.472V492.541Z" fill="white"/>
<path opacity="0.48" d="M472.438 492.541H468.088V496.889H472.438V492.541Z" fill="white"/>
<path opacity="0.28" d="M448.575 498.255H444.224V502.603H448.575V498.255Z" fill="white"/>
<path opacity="0.19" d="M454.541 498.255H450.19V502.603H454.541V498.255Z" fill="white"/>
<path opacity="0.01" d="M460.506 498.255H456.156V502.603H460.506V498.255Z" fill="white"/>
<path opacity="0.27" d="M466.472 498.255H462.122V502.603H466.472V498.255Z" fill="white"/>
<path opacity="0.24" d="M472.438 498.255H468.088V502.603H472.438V498.255Z" fill="white"/>
<path opacity="0.07" d="M448.575 504.094H444.224V508.442H448.575V504.094Z" fill="white"/>
<path opacity="0.25" d="M454.541 504.094H450.19V508.442H454.541V504.094Z" fill="white"/>
<path opacity="0.26" d="M460.506 504.094H456.156V508.442H460.506V504.094Z" fill="white"/>
<path opacity="0.39" d="M466.472 504.094H462.122V508.442H466.472V504.094Z" fill="white"/>
<path opacity="0.22" d="M472.438 504.094H468.088V508.442H472.438V504.094Z" fill="white"/>
<path opacity="0.15" d="M448.575 509.808H444.224V514.156H448.575V509.808Z" fill="white"/>
<path opacity="0.23" d="M454.541 509.808H450.19V514.156H454.541V509.808Z" fill="white"/>
<path opacity="0.05" d="M460.506 509.808H456.156V514.156H460.506V509.808Z" fill="white"/>
<path opacity="0.2" d="M466.472 509.808H462.122V514.156H466.472V509.808Z" fill="white"/>
<path opacity="0.31" d="M472.438 509.808H468.088V514.156H472.438V509.808Z" fill="white"/>
<path opacity="0.15" d="M448.575 515.522H444.224V519.87H448.575V515.522Z" fill="white"/>
<path opacity="0.33" d="M454.541 515.522H450.19V519.87H454.541V515.522Z" fill="white"/>
<path opacity="0.46" d="M460.506 515.522H456.156V519.87H460.506V515.522Z" fill="white"/>
<path opacity="0.25" d="M466.472 515.522H462.122V519.87H466.472V515.522Z" fill="white"/>
<path opacity="0.43" d="M472.438 515.522H468.088V519.87H472.438V515.522Z" fill="white"/>
<path opacity="0.4" d="M448.575 521.237H444.224V525.584H448.575V521.237Z" fill="white"/>
<path opacity="0.39" d="M454.541 521.237H450.19V525.584H454.541V521.237Z" fill="white"/>
<path opacity="0.01" d="M460.506 521.237H456.156V525.584H460.506V521.237Z" fill="white"/>
<path opacity="0.12" d="M466.472 521.237H462.122V525.584H466.472V521.237Z" fill="white"/>
<path opacity="0.07" d="M472.438 521.237H468.088V525.584H472.438V521.237Z" fill="white"/>
<path opacity="0.07" d="M448.575 526.951H444.224V531.299H448.575V526.951Z" fill="white"/>
<path opacity="0.02" d="M454.541 526.951H450.19V531.299H454.541V526.951Z" fill="white"/>
<path opacity="0.12" d="M460.506 526.951H456.156V531.299H460.506V526.951Z" fill="white"/>
<path opacity="0.23" d="M466.472 526.951H462.122V531.299H466.472V526.951Z" fill="white"/>
<path opacity="0.26" d="M472.438 526.951H468.088V531.299H472.438V526.951Z" fill="white"/>
<path opacity="0.27" d="M448.575 532.665H444.224V537.013H448.575V532.665Z" fill="white"/>
<path opacity="0.38" d="M454.541 532.665H450.19V537.013H454.541V532.665Z" fill="white"/>
<path opacity="0.05" d="M460.506 532.665H456.156V537.013H460.506V532.665Z" fill="white"/>
<path opacity="0.45" d="M466.472 532.665H462.122V537.013H466.472V532.665Z" fill="white"/>
<path opacity="0.15" d="M472.438 532.665H468.088V537.013H472.438V532.665Z" fill="white"/>
<path opacity="0.06" d="M448.575 538.379H444.224V542.727H448.575V538.379Z" fill="white"/>
<path opacity="0.47" d="M454.541 538.379H450.19V542.727H454.541V538.379Z" fill="white"/>
<path opacity="0.15" d="M460.506 538.379H456.156V542.727H460.506V538.379Z" fill="white"/>
<path opacity="0.44" d="M466.472 538.379H462.122V542.727H466.472V538.379Z" fill="white"/>
<path opacity="0.14" d="M472.438 538.379H468.088V542.727H472.438V538.379Z" fill="white"/>
<path opacity="0.15" d="M448.575 544.094H444.224V548.441H448.575V544.094Z" fill="white"/>
<path opacity="0.43" d="M454.541 544.094H450.19V548.441H454.541V544.094Z" fill="white"/>
<path opacity="0.07" d="M460.506 544.094H456.156V548.441H460.506V544.094Z" fill="white"/>
<path opacity="0.47" d="M466.472 544.094H462.122V548.441H466.472V544.094Z" fill="white"/>
<path opacity="0.11" d="M472.438 544.094H468.088V548.441H472.438V544.094Z" fill="white"/>
<path opacity="0.07" d="M448.575 549.808H444.224V554.155H448.575V549.808Z" fill="white"/>
<path opacity="0.34" d="M454.541 549.808H450.19V554.155H454.541V549.808Z" fill="white"/>
<path opacity="0.5" d="M460.506 549.808H456.156V554.155H460.506V549.808Z" fill="white"/>
<path opacity="0.36" d="M466.472 549.808H462.122V554.155H466.472V549.808Z" fill="white"/>
<path opacity="0.34" d="M472.438 549.808H468.088V554.155H472.438V549.808Z" fill="white"/>
<path opacity="0.47" d="M448.575 555.522H444.224V559.87H448.575V555.522Z" fill="white"/>
<path opacity="0.41" d="M454.541 555.522H450.19V559.87H454.541V555.522Z" fill="white"/>
<path opacity="0.3" d="M460.506 555.522H456.156V559.87H460.506V555.522Z" fill="white"/>
<path opacity="0.33" d="M466.472 555.522H462.122V559.87H466.472V555.522Z" fill="white"/>
<path opacity="0.12" d="M472.438 555.522H468.088V559.87H472.438V555.522Z" fill="white"/>
<path opacity="0.3" d="M499.161 469.684H494.811V474.032H499.161V469.684Z" fill="white"/>
<path opacity="0.72" d="M504.878 469.684H500.528V474.032H504.878V469.684Z" fill="white"/>
<path opacity="0.7" d="M510.72 469.684H506.37V474.032H510.72V469.684Z" fill="white"/>
<path opacity="0.52" d="M516.562 469.684H512.212V474.032H516.562V469.684Z" fill="white"/>
<path opacity="0.2" d="M522.404 469.684H518.053V474.032H522.404V469.684Z" fill="white"/>
<path opacity="0.32" d="M528.121 469.684H523.771V474.032H528.121V469.684Z" fill="white"/>
<path opacity="0.13" d="M533.963 469.684H529.612V474.032H533.963V469.684Z" fill="white"/>
<path opacity="0.38" d="M539.804 469.684H535.454V474.032H539.804V469.684Z" fill="white"/>
<path opacity="0.61" d="M545.522 469.684H541.172V474.032H545.522V469.684Z" fill="white"/>
<path d="M551.363 469.684H547.013V474.032H551.363V469.684Z" fill="white"/>
<path opacity="0.91" d="M557.205 469.684H552.855V474.032H557.205V469.684Z" fill="white"/>
<path opacity="0.66" d="M499.161 475.399H494.811V479.746H499.161V475.399Z" fill="white"/>
<path opacity="0.31" d="M504.878 475.399H500.528V479.746H504.878V475.399Z" fill="white"/>
<path opacity="0.95" d="M510.72 475.399H506.37V479.746H510.72V475.399Z" fill="white"/>
<path opacity="0.7" d="M516.562 475.399H512.212V479.746H516.562V475.399Z" fill="white"/>
<path opacity="0.12" d="M522.404 475.399H518.053V479.746H522.404V475.399Z" fill="white"/>
<path opacity="0.24" d="M528.121 475.399H523.771V479.746H528.121V475.399Z" fill="white"/>
<path opacity="0.66" d="M533.963 475.399H529.612V479.746H533.963V475.399Z" fill="white"/>
<path opacity="0.71" d="M539.804 475.399H535.454V479.746H539.804V475.399Z" fill="white"/>
<path opacity="0.42" d="M545.522 475.399H541.172V479.746H545.522V475.399Z" fill="white"/>
<path opacity="0.09" d="M551.363 475.399H547.013V479.746H551.363V475.399Z" fill="white"/>
<path opacity="0.32" d="M557.205 475.399H552.855V479.746H557.205V475.399Z" fill="white"/>
<path opacity="0.65" d="M499.161 481.113H494.811V485.461H499.161V481.113Z" fill="white"/>
<path d="M504.878 481.113H500.528V485.461H504.878V481.113Z" fill="white"/>
<path d="M510.72 481.113H506.37V485.461H510.72V481.113Z" fill="white"/>
<path opacity="0.71" d="M516.562 481.113H512.212V485.461H516.562V481.113Z" fill="white"/>
<path opacity="0.2" d="M522.404 481.113H518.053V485.461H522.404V481.113Z" fill="white"/>
<path opacity="0.19" d="M528.121 481.113H523.771V485.461H528.121V481.113Z" fill="white"/>
<path opacity="0.62" d="M533.963 481.113H529.612V485.461H533.963V481.113Z" fill="white"/>
<path opacity="0.93" d="M539.804 481.113H535.454V485.461H539.804V481.113Z" fill="white"/>
<path opacity="0.56" d="M545.522 481.113H541.172V485.461H545.522V481.113Z" fill="white"/>
<path opacity="0.57" d="M551.363 481.113H547.013V485.461H551.363V481.113Z" fill="white"/>
<path opacity="0.52" d="M557.205 481.113H552.855V485.461H557.205V481.113Z" fill="white"/>
<path opacity="0.74" d="M499.161 486.827H494.811V491.175H499.161V486.827Z" fill="white"/>
<path opacity="0.56" d="M504.878 486.827H500.528V491.175H504.878V486.827Z" fill="white"/>
<path opacity="0.78" d="M510.72 486.827H506.37V491.175H510.72V486.827Z" fill="white"/>
<path opacity="0.41" d="M516.562 486.827H512.212V491.175H516.562V486.827Z" fill="white"/>
<path opacity="0.14" d="M522.404 486.827H518.053V491.175H522.404V486.827Z" fill="white"/>
<path opacity="0.28" d="M528.121 486.827H523.771V491.175H528.121V486.827Z" fill="white"/>
<path opacity="0.36" d="M533.963 486.827H529.612V491.175H533.963V486.827Z" fill="white"/>
<path opacity="0.14" d="M539.804 486.827H535.454V491.175H539.804V486.827Z" fill="white"/>
<path opacity="0.5" d="M545.522 486.827H541.172V491.175H545.522V486.827Z" fill="white"/>
<path opacity="0.98" d="M551.363 486.827H547.013V491.175H551.363V486.827Z" fill="white"/>
<path opacity="0.59" d="M557.205 486.827H552.855V491.175H557.205V486.827Z" fill="white"/>
<path opacity="0.07" d="M499.161 492.541H494.811V496.889H499.161V492.541Z" fill="white"/>
<path opacity="0.1" d="M504.878 492.541H500.528V496.889H504.878V492.541Z" fill="white"/>
<path opacity="0.88" d="M510.72 492.541H506.37V496.889H510.72V492.541Z" fill="white"/>
<path opacity="0.68" d="M516.562 492.541H512.212V496.889H516.562V492.541Z" fill="white"/>
<path opacity="0.81" d="M522.404 492.541H518.053V496.889H522.404V492.541Z" fill="white"/>
<path opacity="0.62" d="M528.121 492.541H523.771V496.889H528.121V492.541Z" fill="white"/>
<path opacity="0.97" d="M533.963 492.541H529.612V496.889H533.963V492.541Z" fill="white"/>
<path opacity="0.81" d="M539.804 492.541H535.454V496.889H539.804V492.541Z" fill="white"/>
<path opacity="0.79" d="M545.522 492.541H541.172V496.889H545.522V492.541Z" fill="white"/>
<path opacity="0.03" d="M551.363 492.541H547.013V496.889H551.363V492.541Z" fill="white"/>
<path opacity="0.95" d="M557.205 492.541H552.855V496.889H557.205V492.541Z" fill="white"/>
<path opacity="0.62" d="M499.161 498.255H494.811V502.603H499.161V498.255Z" fill="white"/>
<path opacity="0.22" d="M504.878 498.255H500.528V502.603H504.878V498.255Z" fill="white"/>
<path opacity="0.42" d="M510.72 498.255H506.37V502.603H510.72V498.255Z" fill="white"/>
<path opacity="0.56" d="M516.562 498.255H512.212V502.603H516.562V498.255Z" fill="white"/>
<path opacity="0.03" d="M522.404 498.255H518.053V502.603H522.404V498.255Z" fill="white"/>
<path opacity="0.64" d="M528.121 498.255H523.771V502.603H528.121V498.255Z" fill="white"/>
<path opacity="0.82" d="M533.963 498.255H529.612V502.603H533.963V498.255Z" fill="white"/>
<path opacity="0.52" d="M539.804 498.255H535.454V502.603H539.804V498.255Z" fill="white"/>
<path opacity="0.46" d="M545.522 498.255H541.172V502.603H545.522V498.255Z" fill="white"/>
<path opacity="0.27" d="M551.363 498.255H547.013V502.603H551.363V498.255Z" fill="white"/>
<path opacity="0.46" d="M557.205 498.255H552.855V502.603H557.205V498.255Z" fill="white"/>
<path opacity="0.66" d="M499.161 504.094H494.811V508.442H499.161V504.094Z" fill="white"/>
<path opacity="0.7" d="M504.878 504.094H500.528V508.442H504.878V504.094Z" fill="white"/>
<path opacity="0.94" d="M510.72 504.094H506.37V508.442H510.72V504.094Z" fill="white"/>
<path opacity="0.5" d="M516.562 504.094H512.212V508.442H516.562V504.094Z" fill="white"/>
<path opacity="0.12" d="M522.404 504.094H518.053V508.442H522.404V504.094Z" fill="white"/>
<path opacity="0.36" d="M528.121 504.094H523.771V508.442H528.121V504.094Z" fill="white"/>
<path opacity="0.51" d="M533.963 504.094H529.612V508.442H533.963V504.094Z" fill="white"/>
<path opacity="0.37" d="M539.804 504.094H535.454V508.442H539.804V504.094Z" fill="white"/>
<path opacity="0.66" d="M545.522 504.094H541.172V508.442H545.522V504.094Z" fill="white"/>
<path opacity="0.42" d="M551.363 504.094H547.013V508.442H551.363V504.094Z" fill="white"/>
<path opacity="0.5" d="M557.205 504.094H552.855V508.442H557.205V504.094Z" fill="white"/>
<path opacity="0.52" d="M499.161 509.808H494.811V514.156H499.161V509.808Z" fill="white"/>
<path opacity="0.61" d="M504.878 509.808H500.528V514.156H504.878V509.808Z" fill="white"/>
<path opacity="0.84" d="M510.72 509.808H506.37V514.156H510.72V509.808Z" fill="white"/>
<path opacity="0.89" d="M516.562 509.808H512.212V514.156H516.562V509.808Z" fill="white"/>
<path opacity="0.33" d="M522.404 509.808H518.053V514.156H522.404V509.808Z" fill="white"/>
<path opacity="0.25" d="M528.121 509.808H523.771V514.156H528.121V509.808Z" fill="white"/>
<path opacity="0.95" d="M533.963 509.808H529.612V514.156H533.963V509.808Z" fill="white"/>
<path opacity="0.09" d="M539.804 509.808H535.454V514.156H539.804V509.808Z" fill="white"/>
<path opacity="0.44" d="M545.522 509.808H541.172V514.156H545.522V509.808Z" fill="white"/>
<path opacity="0.51" d="M551.363 509.808H547.013V514.156H551.363V509.808Z" fill="white"/>
<path opacity="0.97" d="M557.205 509.808H552.855V514.156H557.205V509.808Z" fill="white"/>
<path opacity="0.26" d="M499.161 515.522H494.811V519.87H499.161V515.522Z" fill="white"/>
<path opacity="0.92" d="M504.878 515.522H500.528V519.87H504.878V515.522Z" fill="white"/>
<path opacity="0.33" d="M510.72 515.522H506.37V519.87H510.72V515.522Z" fill="white"/>
<path opacity="0.23" d="M516.562 515.522H512.212V519.87H516.562V515.522Z" fill="white"/>
<path opacity="0.42" d="M522.404 515.522H518.053V519.87H522.404V515.522Z" fill="white"/>
<path opacity="0.57" d="M528.121 515.522H523.771V519.87H528.121V515.522Z" fill="white"/>
<path opacity="0.73" d="M533.963 515.522H529.612V519.87H533.963V515.522Z" fill="white"/>
<path opacity="0.87" d="M539.804 515.522H535.454V519.87H539.804V515.522Z" fill="white"/>
<path opacity="0.22" d="M545.522 515.522H541.172V519.87H545.522V515.522Z" fill="white"/>
<path opacity="0.89" d="M551.363 515.522H547.013V519.87H551.363V515.522Z" fill="white"/>
<path opacity="0.73" d="M557.205 515.522H552.855V519.87H557.205V515.522Z" fill="white"/>
<path opacity="0.35" d="M499.161 521.237H494.811V525.584H499.161V521.237Z" fill="white"/>
<path opacity="0.81" d="M504.878 521.237H500.528V525.584H504.878V521.237Z" fill="white"/>
<path opacity="0.56" d="M510.72 521.237H506.37V525.584H510.72V521.237Z" fill="white"/>
<path opacity="0.81" d="M516.562 521.237H512.212V525.584H516.562V521.237Z" fill="white"/>
<path opacity="0.87" d="M522.404 521.237H518.053V525.584H522.404V521.237Z" fill="white"/>
<path opacity="0.39" d="M528.121 521.237H523.771V525.584H528.121V521.237Z" fill="white"/>
<path opacity="0.31" d="M533.963 521.237H529.612V525.584H533.963V521.237Z" fill="white"/>
<path opacity="0.98" d="M539.804 521.237H535.454V525.584H539.804V521.237Z" fill="white"/>
<path opacity="0.17" d="M545.522 521.237H541.172V525.584H545.522V521.237Z" fill="white"/>
<path opacity="0.06" d="M551.363 521.237H547.013V525.584H551.363V521.237Z" fill="white"/>
<path opacity="0.57" d="M557.205 521.237H552.855V525.584H557.205V521.237Z" fill="white"/>
<path opacity="0.67" d="M499.161 526.951H494.811V531.299H499.161V526.951Z" fill="white"/>
<path opacity="0.83" d="M504.878 526.951H500.528V531.299H504.878V526.951Z" fill="white"/>
<path opacity="0.99" d="M510.72 526.951H506.37V531.299H510.72V526.951Z" fill="white"/>
<path opacity="0.62" d="M516.562 526.951H512.212V531.299H516.562V526.951Z" fill="white"/>
<path opacity="0.87" d="M522.404 526.951H518.053V531.299H522.404V526.951Z" fill="white"/>
<path opacity="0.14" d="M528.121 526.951H523.771V531.299H528.121V526.951Z" fill="white"/>
<path opacity="0.12" d="M533.963 526.951H529.612V531.299H533.963V526.951Z" fill="white"/>
<path opacity="0.11" d="M539.804 526.951H535.454V531.299H539.804V526.951Z" fill="white"/>
<path opacity="0.39" d="M545.522 526.951H541.172V531.299H545.522V526.951Z" fill="white"/>
<path opacity="0.58" d="M551.363 526.951H547.013V531.299H551.363V526.951Z" fill="white"/>
<path opacity="0.54" d="M557.205 526.951H552.855V531.299H557.205V526.951Z" fill="white"/>
<path opacity="0.99" d="M499.161 532.665H494.811V537.013H499.161V532.665Z" fill="white"/>
<path opacity="0.28" d="M504.878 532.665H500.528V537.013H504.878V532.665Z" fill="white"/>
<path opacity="0.78" d="M510.72 532.665H506.37V537.013H510.72V532.665Z" fill="white"/>
<path opacity="0.65" d="M516.562 532.665H512.212V537.013H516.562V532.665Z" fill="white"/>
<path opacity="0.32" d="M522.404 532.665H518.053V537.013H522.404V532.665Z" fill="white"/>
<path opacity="0.55" d="M528.121 532.665H523.771V537.013H528.121V532.665Z" fill="white"/>
<path opacity="0.4" d="M533.963 532.665H529.612V537.013H533.963V532.665Z" fill="white"/>
<path opacity="0.22" d="M539.804 532.665H535.454V537.013H539.804V532.665Z" fill="white"/>
<path opacity="0.87" d="M545.522 532.665H541.172V537.013H545.522V532.665Z" fill="white"/>
<path opacity="0.02" d="M551.363 532.665H547.013V537.013H551.363V532.665Z" fill="white"/>
<path opacity="0.39" d="M557.205 532.665H552.855V537.013H557.205V532.665Z" fill="white"/>
<path opacity="0.89" d="M499.161 538.379H494.811V542.727H499.161V538.379Z" fill="white"/>
<path opacity="0.97" d="M504.878 538.379H500.528V542.727H504.878V538.379Z" fill="white"/>
<path opacity="0.79" d="M510.72 538.379H506.37V542.727H510.72V538.379Z" fill="white"/>
<path opacity="0.41" d="M516.562 538.379H512.212V542.727H516.562V538.379Z" fill="white"/>
<path opacity="0.13" d="M522.404 538.379H518.053V542.727H522.404V538.379Z" fill="white"/>
<path opacity="0.9" d="M528.121 538.379H523.771V542.727H528.121V538.379Z" fill="white"/>
<path opacity="0.98" d="M533.963 538.379H529.612V542.727H533.963V538.379Z" fill="white"/>
<path opacity="0.67" d="M539.804 538.379H535.454V542.727H539.804V538.379Z" fill="white"/>
<path opacity="0.65" d="M545.522 538.379H541.172V542.727H545.522V538.379Z" fill="white"/>
<path opacity="0.89" d="M551.363 538.379H547.013V542.727H551.363V538.379Z" fill="white"/>
<path opacity="0.98" d="M557.205 538.379H552.855V542.727H557.205V538.379Z" fill="white"/>
<path opacity="0.29" d="M499.161 544.094H494.811V548.441H499.161V544.094Z" fill="white"/>
<path opacity="0.74" d="M504.878 544.094H500.528V548.441H504.878V544.094Z" fill="white"/>
<path opacity="0.64" d="M510.72 544.094H506.37V548.441H510.72V544.094Z" fill="white"/>
<path opacity="0.65" d="M516.562 544.094H512.212V548.441H516.562V544.094Z" fill="white"/>
<path opacity="0.07" d="M522.404 544.094H518.053V548.441H522.404V544.094Z" fill="white"/>
<path opacity="0.16" d="M528.121 544.094H523.771V548.441H528.121V544.094Z" fill="white"/>
<path opacity="0.84" d="M533.963 544.094H529.612V548.441H533.963V544.094Z" fill="white"/>
<path opacity="0.88" d="M539.804 544.094H535.454V548.441H539.804V544.094Z" fill="white"/>
<path opacity="0.57" d="M545.522 544.094H541.172V548.441H545.522V544.094Z" fill="white"/>
<path opacity="0.31" d="M551.363 544.094H547.013V548.441H551.363V544.094Z" fill="white"/>
<path opacity="0.03" d="M557.205 544.094H552.855V548.441H557.205V544.094Z" fill="white"/>
<path opacity="0.3" d="M499.161 549.808H494.811V554.155H499.161V549.808Z" fill="white"/>
<path opacity="0.59" d="M504.878 549.808H500.528V554.155H504.878V549.808Z" fill="white"/>
<path opacity="0.93" d="M510.72 549.808H506.37V554.155H510.72V549.808Z" fill="white"/>
<path opacity="0.06" d="M516.562 549.808H512.212V554.155H516.562V549.808Z" fill="white"/>
<path opacity="0.74" d="M522.404 549.808H518.053V554.155H522.404V549.808Z" fill="white"/>
<path opacity="0.22" d="M528.121 549.808H523.771V554.155H528.121V549.808Z" fill="white"/>
<path opacity="0.51" d="M533.963 549.808H529.612V554.155H533.963V549.808Z" fill="white"/>
<path opacity="0.7" d="M539.804 549.808H535.454V554.155H539.804V549.808Z" fill="white"/>
<path opacity="0.47" d="M545.522 549.808H541.172V554.155H545.522V549.808Z" fill="white"/>
<path opacity="0.08" d="M551.363 549.808H547.013V554.155H551.363V549.808Z" fill="white"/>
<path opacity="0.93" d="M557.205 549.808H552.855V554.155H557.205V549.808Z" fill="white"/>
<path opacity="0.81" d="M499.161 555.522H494.811V559.87H499.161V555.522Z" fill="white"/>
<path opacity="0.9" d="M504.878 555.522H500.528V559.87H504.878V555.522Z" fill="white"/>
<path opacity="0.55" d="M510.72 555.522H506.37V559.87H510.72V555.522Z" fill="white"/>
<path opacity="0.14" d="M516.562 555.522H512.212V559.87H516.562V555.522Z" fill="white"/>
<path opacity="0.66" d="M522.404 555.522H518.053V559.87H522.404V555.522Z" fill="white"/>
<path opacity="0.92" d="M528.121 555.522H523.771V559.87H528.121V555.522Z" fill="white"/>
<path opacity="0.4" d="M533.963 555.522H529.612V559.87H533.963V555.522Z" fill="white"/>
<path opacity="0.6" d="M539.804 555.522H535.454V559.87H539.804V555.522Z" fill="white"/>
<path opacity="0.99" d="M545.522 555.522H541.172V559.87H545.522V555.522Z" fill="white"/>
<path opacity="0.68" d="M551.363 555.522H547.013V559.87H551.363V555.522Z" fill="white"/>
<path opacity="0.01" d="M557.205 555.522H552.855V559.87H557.205V555.522Z" fill="white"/>
<path d="M425.705 441.734H384.689V570.18H425.705V441.734Z" fill="#333333"/>
<path d="M403.333 435.274H384.689V442.479H403.333V435.274Z" fill="#333333"/>
<path d="M395.502 431.051H384.689V435.275H395.502V431.051Z" fill="#333333"/>
<path opacity="0.25" d="M408.429 450.802H401.717V457.51H408.429V450.802Z" fill="white"/>
<path opacity="0.15" d="M408.429 467.324H401.717V474.032H408.429V467.324Z" fill="white"/>
<path opacity="0.19" d="M408.429 500.243H401.717V506.951H408.429V500.243Z" fill="white"/>
<path opacity="0.17" d="M408.429 516.64H401.717V523.348H408.429V516.64Z" fill="white"/>
<path opacity="0.22" d="M408.429 533.037H401.717V539.745H408.429V533.037Z" fill="white"/>
<path d="M408.429 549.559H401.717V556.267H408.429V549.559Z" fill="white"/>
<path d="M395.254 513.286H356.848V524.591H395.254V513.286Z" fill="#333333"/>
<path d="M414.394 513.286H395.254V524.591H414.394V513.286Z" fill="#4D4D4D"/>
<path d="M356.848 513.286L368.78 507.572L395.254 513.286H356.848Z" fill="#333333"/>
<path d="M368.78 507.572L395.254 513.286H414.394L368.78 507.572Z" fill="#4D4D4D"/>
<path d="M404.203 521.236H348.023V572.664H404.203V521.236Z" fill="#333333"/>
<path d="M422.846 521.236H404.203V572.664H422.846V521.236Z" fill="#4D4D4D"/>
<path opacity="0.81" d="M418.496 524.839H408.429V528.565H418.496V524.839Z" fill="white"/>
<path opacity="0.76" d="M418.496 531.671H408.429V535.398H418.496V531.671Z" fill="white"/>
<path opacity="0.32" d="M418.496 538.503H408.429V542.23H418.496V538.503Z" fill="white"/>
<path opacity="0.49" d="M418.496 545.46H408.429V549.186H418.496V545.46Z" fill="white"/>
<path opacity="0.1" d="M367.04 524.839H356.972V528.565H367.04V524.839Z" fill="white"/>
<path opacity="0.04" d="M381.084 524.839H371.017V528.565H381.084V524.839Z" fill="white"/>
<path opacity="0.07" d="M395.254 524.839H385.186V528.565H395.254V524.839Z" fill="white"/>
<path opacity="0.06" d="M367.04 531.671H356.972V535.398H367.04V531.671Z" fill="white"/>
<path opacity="0.44" d="M381.084 531.671H371.017V535.398H381.084V531.671Z" fill="white"/>
<path opacity="0.24" d="M395.254 531.671H385.186V535.398H395.254V531.671Z" fill="white"/>
<path opacity="0.55" d="M367.04 538.503H356.972V542.23H367.04V538.503Z" fill="white"/>
<path opacity="0.02" d="M381.084 538.503H371.017V542.23H381.084V538.503Z" fill="white"/>
<path opacity="0.14" d="M395.254 538.503H385.186V542.23H395.254V538.503Z" fill="white"/>
<path opacity="0.43" d="M367.04 545.46H356.972V549.186H367.04V545.46Z" fill="white"/>
<path opacity="0.41" d="M381.084 545.46H371.017V549.186H381.084V545.46Z" fill="white"/>
<path opacity="0.46" d="M395.254 545.46H385.186V549.186H395.254V545.46Z" fill="white"/>
<path opacity="0.45" d="M367.04 552.292H356.972V556.019H367.04V552.292Z" fill="white"/>
<path opacity="0.33" d="M381.084 552.292H371.017V556.019H381.084V552.292Z" fill="white"/>
<path opacity="0.05" d="M395.254 552.292H385.186V556.019H395.254V552.292Z" fill="white"/>
<path d="M130.886 469.808H96.0847V577.012H130.886V469.808Z" fill="#333333"/>
<path d="M170.535 469.808H131.011V577.012H170.535V469.808Z" fill="#4D4D4D"/>
<path d="M130.886 478.877H96.0847V480.74H130.886V478.877Z" fill="#4D4D4D"/>
<path d="M170.535 478.877H131.011V480.74H170.535V478.877Z" fill="#333333"/>
<path opacity="0.47" d="M102.672 482.852H98.9435V486.578H102.672V482.852Z" fill="white"/>
<path opacity="0.26" d="M107.768 482.852H104.039V486.578H107.768V482.852Z" fill="white"/>
<path opacity="0.32" d="M112.864 482.852H109.135V486.578H112.864V482.852Z" fill="white"/>
<path opacity="0.25" d="M117.96 482.852H114.231V486.578H117.96V482.852Z" fill="white"/>
<path opacity="0.12" d="M128.152 482.852H124.423V486.578H128.152V482.852Z" fill="white"/>
<path opacity="0.32" d="M102.672 487.945H98.9435V491.671H102.672V487.945Z" fill="white"/>
<path opacity="0.22" d="M112.864 487.945H109.135V491.671H112.864V487.945Z" fill="white"/>
<path opacity="0.47" d="M117.96 487.945H114.231V491.671H117.96V487.945Z" fill="white"/>
<path opacity="0.22" d="M123.056 487.945H119.327V491.671H123.056V487.945Z" fill="white"/>
<path opacity="0.32" d="M128.152 487.945H124.423V491.671H128.152V487.945Z" fill="white"/>
<path opacity="0.37" d="M102.672 493.038H98.9435V496.765H102.672V493.038Z" fill="white"/>
<path opacity="0.34" d="M107.768 493.038H104.039V496.765H107.768V493.038Z" fill="white"/>
<path opacity="0.18" d="M112.864 493.038H109.135V496.765H112.864V493.038Z" fill="white"/>
<path opacity="0.28" d="M117.96 493.038H114.231V496.765H117.96V493.038Z" fill="white"/>
<path opacity="0.2" d="M128.152 493.038H124.423V496.765H128.152V493.038Z" fill="white"/>
<path opacity="0.18" d="M102.672 498.131H98.9435V501.858H102.672V498.131Z" fill="white"/>
<path opacity="0.33" d="M112.864 498.131H109.135V501.858H112.864V498.131Z" fill="white"/>
<path opacity="0.05" d="M117.96 498.131H114.231V501.858H117.96V498.131Z" fill="white"/>
<path opacity="0.08" d="M123.056 498.131H119.327V501.858H123.056V498.131Z" fill="white"/>
<path opacity="0.08" d="M117.96 503.224H114.231V506.951H117.96V503.224Z" fill="white"/>
<path opacity="0.02" d="M123.056 503.224H119.327V506.951H123.056V503.224Z" fill="white"/>
<path opacity="0.03" d="M102.672 508.317H98.9435V512.044H102.672V508.317Z" fill="white"/>
<path opacity="0.46" d="M107.768 508.317H104.039V512.044H107.768V508.317Z" fill="white"/>
<path opacity="0.05" d="M112.864 508.317H109.135V512.044H112.864V508.317Z" fill="white"/>
<path opacity="0.2" d="M117.96 508.317H114.231V512.044H117.96V508.317Z" fill="white"/>
<path opacity="0.23" d="M123.056 508.317H119.327V512.044H123.056V508.317Z" fill="white"/>
<path opacity="0.17" d="M102.672 513.41H98.9435V517.137H102.672V513.41Z" fill="white"/>
<path opacity="0.08" d="M107.768 513.41H104.039V517.137H107.768V513.41Z" fill="white"/>
<path opacity="0.14" d="M112.864 513.41H109.135V517.137H112.864V513.41Z" fill="white"/>
<path opacity="0.24" d="M123.056 513.41H119.327V517.137H123.056V513.41Z" fill="white"/>
<path opacity="0.28" d="M102.672 518.503H98.9435V522.23H102.672V518.503Z" fill="white"/>
<path opacity="0.3" d="M107.768 518.503H104.039V522.23H107.768V518.503Z" fill="white"/>
<path opacity="0.23" d="M112.864 518.503H109.135V522.23H112.864V518.503Z" fill="white"/>
<path opacity="0.02" d="M117.96 518.503H114.231V522.23H117.96V518.503Z" fill="white"/>
<path opacity="0.04" d="M123.056 518.503H119.327V522.23H123.056V518.503Z" fill="white"/>
<path opacity="0.3" d="M128.152 518.503H124.423V522.23H128.152V518.503Z" fill="white"/>
<path opacity="0.08" d="M107.768 523.472H104.039V527.199H107.768V523.472Z" fill="white"/>
<path opacity="0.4" d="M128.152 523.472H124.423V527.199H128.152V523.472Z" fill="white"/>
<path opacity="0.31" d="M102.672 528.565H98.9435V532.292H102.672V528.565Z" fill="white"/>
<path opacity="0.31" d="M107.768 528.565H104.039V532.292H107.768V528.565Z" fill="white"/>
<path opacity="0.12" d="M112.864 528.565H109.135V532.292H112.864V528.565Z" fill="white"/>
<path opacity="0.19" d="M123.056 528.565H119.327V532.292H123.056V528.565Z" fill="white"/>
<path opacity="0.43" d="M128.152 528.565H124.423V532.292H128.152V528.565Z" fill="white"/>
<path opacity="0.12" d="M102.672 533.659H98.9435V537.385H102.672V533.659Z" fill="white"/>
<path opacity="0.42" d="M117.96 533.659H114.231V537.385H117.96V533.659Z" fill="white"/>
<path opacity="0.31" d="M128.152 533.659H124.423V537.385H128.152V533.659Z" fill="white"/>
<path opacity="0.23" d="M102.672 538.752H98.9435V542.478H102.672V538.752Z" fill="white"/>
<path opacity="0.31" d="M117.96 538.752H114.231V542.478H117.96V538.752Z" fill="white"/>
<path opacity="0.33" d="M128.152 538.752H124.423V542.478H128.152V538.752Z" fill="white"/>
<path opacity="0.49" d="M102.672 543.845H98.9435V547.572H102.672V543.845Z" fill="white"/>
<path opacity="0.06" d="M107.768 543.845H104.039V547.572H107.768V543.845Z" fill="white"/>
<path opacity="0.17" d="M117.96 543.845H114.231V547.572H117.96V543.845Z" fill="white"/>
<path opacity="0.01" d="M123.056 543.845H119.327V547.572H123.056V543.845Z" fill="white"/>
<path opacity="0.48" d="M128.152 543.845H124.423V547.572H128.152V543.845Z" fill="white"/>
<path opacity="0.05" d="M102.672 548.938H98.9435V552.665H102.672V548.938Z" fill="white"/>
<path opacity="0.23" d="M107.768 548.938H104.039V552.665H107.768V548.938Z" fill="white"/>
<path opacity="0.28" d="M112.864 548.938H109.135V552.665H112.864V548.938Z" fill="white"/>
<path opacity="0.02" d="M117.96 548.938H114.231V552.665H117.96V548.938Z" fill="white"/>
<path opacity="0.17" d="M123.056 548.938H119.327V552.665H123.056V548.938Z" fill="white"/>
<path opacity="0.42" d="M128.152 548.938H124.423V552.665H128.152V548.938Z" fill="white"/>
<path opacity="0.13" d="M102.672 554.031H98.9435V557.758H102.672V554.031Z" fill="white"/>
<path opacity="0.11" d="M112.864 554.031H109.135V557.758H112.864V554.031Z" fill="white"/>
<path opacity="0.02" d="M117.96 554.031H114.231V557.758H117.96V554.031Z" fill="white"/>
<path opacity="0.3" d="M128.152 554.031H124.423V557.758H128.152V554.031Z" fill="white"/>
<path opacity="0.08" d="M123.056 482.852H119.327V486.578H123.056V482.852Z" fill="white"/>
<path opacity="0.1" d="M107.768 487.945H104.039V491.671H107.768V487.945Z" fill="white"/>
<path opacity="0.08" d="M123.056 493.038H119.327V496.765H123.056V493.038Z" fill="white"/>
<path opacity="0.1" d="M107.768 498.131H104.039V501.858H107.768V498.131Z" fill="white"/>
<path opacity="0.01" d="M128.152 498.131H124.423V501.858H128.152V498.131Z" fill="white"/>
<path opacity="0.17" d="M102.672 503.224H98.9435V506.951H102.672V503.224Z" fill="white"/>
<path opacity="0.01" d="M107.768 503.224H104.039V506.951H107.768V503.224Z" fill="white"/>
<path opacity="0.15" d="M112.864 503.224H109.135V506.951H112.864V503.224Z" fill="white"/>
<path opacity="0.12" d="M128.152 503.224H124.423V506.951H128.152V503.224Z" fill="white"/>
<path opacity="0.13" d="M117.96 513.41H114.231V517.137H117.96V513.41Z" fill="white"/>
<path opacity="0.07" d="M128.152 513.41H124.423V517.137H128.152V513.41Z" fill="white"/>
<path opacity="0.13" d="M102.672 523.472H98.9435V527.199H102.672V523.472Z" fill="white"/>
<path opacity="0.02" d="M112.864 523.472H109.135V527.199H112.864V523.472Z" fill="white"/>
<path opacity="0.02" d="M117.96 523.472H114.231V527.199H117.96V523.472Z" fill="white"/>
<path opacity="0.14" d="M123.056 523.472H119.327V527.199H123.056V523.472Z" fill="white"/>
<path opacity="0.09" d="M112.864 533.659H109.135V537.385H112.864V533.659Z" fill="white"/>
<path opacity="0.02" d="M123.056 533.659H119.327V537.385H123.056V533.659Z" fill="white"/>
<path opacity="0.19" d="M112.864 538.752H109.135V542.478H112.864V538.752Z" fill="white"/>
<path opacity="0.06" d="M123.056 538.752H119.327V542.478H123.056V538.752Z" fill="white"/>
<path opacity="0.16" d="M112.864 543.845H109.135V547.572H112.864V543.845Z" fill="white"/>
<path opacity="0.19" d="M107.768 554.031H104.039V557.758H107.768V554.031Z" fill="white"/>
<path opacity="0.04" d="M123.056 554.031H119.327V557.758H123.056V554.031Z" fill="white"/>
<g opacity="0.7">
<path opacity="0.7" d="M138.468 480.74H134.615V572.292H138.468V480.74Z" fill="#E6E6E6"/>
<path opacity="0.7" d="M145.055 480.74H141.202V572.292H145.055V480.74Z" fill="#E6E6E6"/>
<path opacity="0.7" d="M151.767 480.74H147.914V572.292H151.767V480.74Z" fill="#E6E6E6"/>
<path opacity="0.7" d="M158.479 480.74H154.626V572.292H158.479V480.74Z" fill="#E6E6E6"/>
<path opacity="0.7" d="M165.191 480.74H161.338V572.292H165.191V480.74Z" fill="#E6E6E6"/>
</g>
<path d="M53.3286 417.262L45.6225 396.89L66.2549 417.262H53.3286Z" fill="#4D4D4D"/>
<path d="M35.3063 417.262L45.6225 396.89L53.3286 417.262H35.3063Z" fill="#333333"/>
<path d="M53.3286 417.262H35.3063V439.001H53.3286V417.262Z" fill="#333333"/>
<path d="M66.2548 417.262H53.3286V439.001H66.2548V417.262Z" fill="#4D4D4D"/>
<path d="M71.5994 515.025H17.0355V577.509H71.5994V515.025Z" fill="#333333"/>
<path d="M64.1419 470.305H24.6173V515.025H64.1419V470.305Z" fill="#333333"/>
<path d="M58.4245 425.585H30.3347V470.305H58.4245V425.585Z" fill="#333333"/>
<path d="M77.6896 425.585H58.3002V470.305H77.6896V425.585Z" fill="#4D4D4D"/>
<path d="M105.158 515.025H71.5994V577.509H105.158V515.025Z" fill="#4D4D4D"/>
<path d="M89.6216 470.305H64.1419V515.025H89.6216V470.305Z" fill="#4D4D4D"/>
<path opacity="0.53" d="M70.9779 428.815H65.1362V434.653H70.9779V428.815Z" fill="white"/>
<path opacity="0.34" d="M70.9779 436.144H65.1362V441.982H70.9779V436.144Z" fill="white"/>
<path opacity="0.9" d="M70.9779 443.349H65.1362V449.187H70.9779V443.349Z" fill="white"/>
<path opacity="0.14" d="M70.9779 450.554H65.1362V456.392H70.9779V450.554Z" fill="white"/>
<path d="M70.9779 457.883H65.1362V463.721H70.9779V457.883Z" fill="white"/>
<path opacity="0.29" d="M75.3282 474.156H69.4865V479.994H75.3282V474.156Z" fill="white"/>
<path opacity="0.81" d="M84.2771 474.156H78.4354V479.994H84.2771V474.156Z" fill="white"/>
<path opacity="0.18" d="M75.3282 481.485H69.4865V487.324H75.3282V481.485Z" fill="white"/>
<path opacity="0.41" d="M84.2771 481.485H78.4354V487.324H84.2771V481.485Z" fill="white"/>
<path opacity="0.03" d="M84.2771 488.938H78.4354V494.777H84.2771V488.938Z" fill="white"/>
<path opacity="0.85" d="M75.3282 496.392H69.4865V502.23H75.3282V496.392Z" fill="white"/>
<path opacity="0.06" d="M84.2771 496.392H78.4354V502.23H84.2771V496.392Z" fill="white"/>
<path opacity="0.94" d="M75.3282 503.721H69.4865V509.559H75.3282V503.721Z" fill="white"/>
<path opacity="0.25" d="M84.2771 503.721H78.4354V509.559H84.2771V503.721Z" fill="white"/>
<path opacity="0.6" d="M83.5313 518.876H77.6896V524.714H83.5313V518.876Z" fill="white"/>
<path opacity="0.83" d="M91.3617 518.876H85.52V524.714H91.3617V518.876Z" fill="white"/>
<path opacity="0.74" d="M99.192 518.876H93.3503V524.714H99.192V518.876Z" fill="white"/>
<path opacity="0.35" d="M91.3617 525.957H85.52V531.795H91.3617V525.957Z" fill="white"/>
<path opacity="0.54" d="M99.192 525.957H93.3503V531.795H99.192V525.957Z" fill="white"/>
<path opacity="0.2" d="M83.5313 533.037H77.6896V538.876H83.5313V533.037Z" fill="white"/>
<path opacity="0.04" d="M91.3617 533.037H85.52V538.876H91.3617V533.037Z" fill="white"/>
<path opacity="0.86" d="M99.192 533.037H93.3503V538.876H99.192V533.037Z" fill="white"/>
<path opacity="0.06" d="M83.5313 540.118H77.6896V545.957H83.5313V540.118Z" fill="white"/>
<path opacity="0.01" d="M91.3617 540.118H85.52V545.957H91.3617V540.118Z" fill="white"/>
<path opacity="0.39" d="M99.192 540.118H93.3503V545.957H99.192V540.118Z" fill="white"/>
<path opacity="0.1" d="M83.5313 547.323H77.6896V553.161H83.5313V547.323Z" fill="white"/>
<path d="M91.3617 547.323H85.52V553.161H91.3617V547.323Z" fill="white"/>
<path opacity="0.62" d="M99.192 547.323H93.3503V553.161H99.192V547.323Z" fill="white"/>
<path opacity="0.48" d="M83.5313 554.652H77.6896V560.491H83.5313V554.652Z" fill="white"/>
<path opacity="0.27" d="M91.3617 554.652H85.52V560.491H91.3617V554.652Z" fill="white"/>
<path opacity="0.42" d="M99.192 554.652H93.3503V560.491H99.192V554.652Z" fill="white"/>
<path opacity="0.27" d="M28.7189 518.876H22.8772V524.714H28.7189V518.876Z" fill="white"/>
<path opacity="0.11" d="M35.3063 474.156H29.4646V479.994H35.3063V474.156Z" fill="white"/>
<path opacity="0.41" d="M39.9051 428.815H34.0634V434.653H39.9051V428.815Z" fill="white"/>
<path opacity="0.38" d="M47.2383 428.815H41.3966V434.653H47.2383V428.815Z" fill="white"/>
<path opacity="0.02" d="M54.6957 428.815H48.8541V434.653H54.6957V428.815Z" fill="white"/>
<path opacity="0.46" d="M39.9051 436.144H34.0634V441.982H39.9051V436.144Z" fill="white"/>
<path opacity="0.31" d="M47.2383 436.144H41.3966V441.982H47.2383V436.144Z" fill="white"/>
<path opacity="0.61" d="M54.6957 436.144H48.8541V441.982H54.6957V436.144Z" fill="white"/>
<path opacity="0.03" d="M39.9051 443.349H34.0634V449.187H39.9051V443.349Z" fill="white"/>
<path opacity="0.03" d="M47.2383 443.349H41.3966V449.187H47.2383V443.349Z" fill="white"/>
<path opacity="0.46" d="M54.6957 443.349H48.8541V449.187H54.6957V443.349Z" fill="white"/>
<path opacity="0.32" d="M39.9051 450.554H34.0634V456.392H39.9051V450.554Z" fill="white"/>
<path opacity="0.14" d="M47.2383 450.554H41.3966V456.392H47.2383V450.554Z" fill="white"/>
<path opacity="0.3" d="M54.6957 450.554H48.8541V456.392H54.6957V450.554Z" fill="white"/>
<path opacity="0.04" d="M39.9051 457.883H34.0634V463.721H39.9051V457.883Z" fill="white"/>
<path opacity="0.64" d="M47.2383 457.883H41.3966V463.721H47.2383V457.883Z" fill="white"/>
<path opacity="0.05" d="M54.6957 457.883H48.8541V463.721H54.6957V457.883Z" fill="white"/>
<path opacity="0.15" d="M42.7638 474.156H36.9221V479.994H42.7638V474.156Z" fill="white"/>
<path opacity="0.15" d="M50.2213 474.156H44.3796V479.994H50.2213V474.156Z" fill="white"/>
<path opacity="0.52" d="M57.5544 474.156H51.7128V479.994H57.5544V474.156Z" fill="white"/>
<path opacity="0.58" d="M35.3063 481.485H29.4646V487.324H35.3063V481.485Z" fill="white"/>
<path opacity="0.62" d="M42.7638 481.485H36.9221V487.324H42.7638V481.485Z" fill="white"/>
<path opacity="0.04" d="M50.2213 481.485H44.3796V487.324H50.2213V481.485Z" fill="white"/>
<path opacity="0.06" d="M57.5544 481.485H51.7128V487.324H57.5544V481.485Z" fill="white"/>
<path opacity="0.3" d="M35.3063 488.938H29.4646V494.777H35.3063V488.938Z" fill="white"/>
<path opacity="0.01" d="M42.7638 488.938H36.9221V494.777H42.7638V488.938Z" fill="white"/>
<path opacity="0.37" d="M50.2213 488.938H44.3796V494.777H50.2213V488.938Z" fill="white"/>
<path opacity="0.62" d="M57.5544 488.938H51.7128V494.777H57.5544V488.938Z" fill="white"/>
<path opacity="0.54" d="M35.3063 496.392H29.4646V502.23H35.3063V496.392Z" fill="white"/>
<path opacity="0.21" d="M42.7638 496.392H36.9221V502.23H42.7638V496.392Z" fill="white"/>
<path opacity="0.41" d="M50.2213 496.392H44.3796V502.23H50.2213V496.392Z" fill="white"/>
<path opacity="0.1" d="M57.5544 496.392H51.7128V502.23H57.5544V496.392Z" fill="white"/>
<path opacity="0.17" d="M35.3063 503.721H29.4646V509.559H35.3063V503.721Z" fill="white"/>
<path opacity="0.17" d="M42.7638 503.721H36.9221V509.559H42.7638V503.721Z" fill="white"/>
<path opacity="0.13" d="M50.2213 503.721H44.3796V509.559H50.2213V503.721Z" fill="white"/>
<path opacity="0.5" d="M57.5544 503.721H51.7128V509.559H57.5544V503.721Z" fill="white"/>
<path opacity="0.06" d="M36.1764 518.876H30.3347V524.714H36.1764V518.876Z" fill="white"/>
<path opacity="0.27" d="M43.5095 518.876H37.6678V524.714H43.5095V518.876Z" fill="white"/>
<path opacity="0.51" d="M50.9671 518.876H45.1254V524.714H50.9671V518.876Z" fill="white"/>
<path opacity="0.42" d="M58.4245 518.876H52.5828V524.714H58.4245V518.876Z" fill="white"/>
<path opacity="0.64" d="M65.7576 518.876H59.916V524.714H65.7576V518.876Z" fill="white"/>
<path opacity="0.29" d="M28.7189 525.957H22.8772V531.795H28.7189V525.957Z" fill="white"/>
<path opacity="0.6" d="M36.1764 525.957H30.3347V531.795H36.1764V525.957Z" fill="white"/>
<path opacity="0.2" d="M43.5095 525.957H37.6678V531.795H43.5095V525.957Z" fill="white"/>
<path opacity="0.24" d="M50.9671 525.957H45.1254V531.795H50.9671V525.957Z" fill="white"/>
<path opacity="0.62" d="M58.4245 525.957H52.5828V531.795H58.4245V525.957Z" fill="white"/>
<path opacity="0.62" d="M65.7576 525.957H59.916V531.795H65.7576V525.957Z" fill="white"/>
<path opacity="0.25" d="M28.7189 533.037H22.8772V538.876H28.7189V533.037Z" fill="white"/>
<path opacity="0.36" d="M36.1764 533.037H30.3347V538.876H36.1764V533.037Z" fill="white"/>
<path opacity="0.16" d="M43.5095 533.037H37.6678V538.876H43.5095V533.037Z" fill="white"/>
<path opacity="0.1" d="M50.9671 533.037H45.1254V538.876H50.9671V533.037Z" fill="white"/>
<path opacity="0.04" d="M58.4245 533.037H52.5828V538.876H58.4245V533.037Z" fill="white"/>
<path opacity="0.44" d="M65.7576 533.037H59.916V538.876H65.7576V533.037Z" fill="white"/>
<path opacity="0.68" d="M28.7189 540.118H22.8772V545.957H28.7189V540.118Z" fill="white"/>
<path opacity="0.01" d="M36.1764 540.118H30.3347V545.957H36.1764V540.118Z" fill="white"/>
<path opacity="0.29" d="M43.5095 540.118H37.6678V545.957H43.5095V540.118Z" fill="white"/>
<path opacity="0.66" d="M50.9671 540.118H45.1254V545.957H50.9671V540.118Z" fill="white"/>
<path opacity="0.12" d="M58.4245 540.118H52.5828V545.957H58.4245V540.118Z" fill="white"/>
<path opacity="0.34" d="M65.7576 540.118H59.916V545.957H65.7576V540.118Z" fill="white"/>
<path opacity="0.36" d="M28.7189 547.323H22.8772V553.161H28.7189V547.323Z" fill="white"/>
<path opacity="0.5" d="M36.1764 547.323H30.3347V553.161H36.1764V547.323Z" fill="white"/>
<path opacity="0.07" d="M43.5095 547.323H37.6678V553.161H43.5095V547.323Z" fill="white"/>
<path opacity="0.64" d="M50.9671 547.323H45.1254V553.161H50.9671V547.323Z" fill="white"/>
<path opacity="0.4" d="M58.4245 547.323H52.5828V553.161H58.4245V547.323Z" fill="white"/>
<path opacity="0.27" d="M65.7576 547.323H59.916V553.161H65.7576V547.323Z" fill="white"/>
<path opacity="0.09" d="M28.7189 554.652H22.8772V560.491H28.7189V554.652Z" fill="white"/>
<path opacity="0.47" d="M36.1764 554.652H30.3347V560.491H36.1764V554.652Z" fill="white"/>
<path opacity="0.57" d="M43.5095 554.652H37.6678V560.491H43.5095V554.652Z" fill="white"/>
<path opacity="0.12" d="M50.9671 554.652H45.1254V560.491H50.9671V554.652Z" fill="white"/>
<path opacity="0.23" d="M58.4245 554.652H52.5828V560.491H58.4245V554.652Z" fill="white"/>
<path opacity="0.36" d="M65.7576 554.652H59.916V560.491H65.7576V554.652Z" fill="white"/>
<path d="M190.422 572.292H113.113L190.422 504.963V572.292Z" fill="#333333"/>
<path d="M24.6173 573.658H-82.5217L24.6173 480.491V573.658Z" fill="#333333"/>
<path d="M181.846 556.888H159.225V563.845H181.846V556.888Z" fill="#4D4D4D"/>
<path d="M179.236 559H161.711L167.801 548.814H173.145L179.236 559Z" fill="#4D4D4D"/>
<path d="M85.1472 566.702C85.1472 571.546 81.2941 575.521 76.5711 575.521C71.848 575.521 67.9949 571.546 67.9949 566.702C67.9949 561.857 71.848 557.882 76.5711 557.882C81.2941 557.758 85.1472 561.733 85.1472 566.702Z" fill="#333333"/>
<path d="M315.956 562.851C315.956 566.081 313.346 568.814 310.238 568.814C307.131 568.814 304.521 566.205 304.521 562.851C304.521 559.621 307.131 556.888 310.238 556.888C313.346 556.888 315.956 559.621 315.956 562.851Z" fill="#333333"/>
<path d="M115.723 563.223C115.723 566.577 113.113 569.31 109.757 569.31C106.525 569.31 103.791 566.577 103.791 563.223C103.791 559.869 106.401 557.136 109.757 557.136C113.113 557.136 115.723 559.869 115.723 563.223Z" fill="#333333"/>
</g>
</g>
<defs>
<clipPath id="clip0">
<rect x="-174" width="811" height="559" fill="white"/>
</clipPath>
</defs>
</svg>
