<svg width="43" height="44" viewBox="0 0 43 44" fill="none" xmlns="http://www.w3.org/2000/svg">
<path d="M28.6292 2.92442L28.4547 3.89299C31.4466 5.00708 34.1541 6.83197 36.3396 9.24743C39.6824 12.9431 41.5234 17.7243 41.5234 22.7117C41.5234 22.7918 41.4589 22.8563 41.3789 22.8563C41.299 22.8563 41.2343 22.7916 41.2343 22.7117C41.2343 12.8164 34.0045 4.52414 24.2983 3.12958L23.7272 3.04752V3.62449V4.91557C23.7272 4.9956 23.6627 5.06011 23.5827 5.06011H19.3116C19.2318 5.06011 19.1671 4.99543 19.1671 4.91557V3.62449V3.04752L18.596 3.12958C8.88985 4.52414 1.65967 12.8164 1.65967 22.7117C1.65967 22.7916 1.595 22.8563 1.51514 22.8563C1.43527 22.8563 1.3706 22.7916 1.3706 22.7117C1.3706 17.7243 3.21157 12.9431 6.55477 9.24745C8.7399 6.83201 11.4474 5.00744 14.4393 3.89332L14.2648 2.92476H6.32732H5.96545L5.85237 3.2685C5.64604 3.89564 5.05495 4.3481 4.3625 4.3481C3.49818 4.3481 2.79428 3.64433 2.79428 2.78022C2.79428 1.91601 3.49829 1.21201 4.3625 1.21201C5.05491 1.21201 5.646 1.66443 5.85235 2.29189L5.96541 2.63569H6.32732H18.6671H19.1671V2.13569V0.644533C19.1671 0.564674 19.2318 0.499999 19.3116 0.499999H23.5827C23.6627 0.499999 23.7272 0.564503 23.7272 0.644533V2.13535V2.63535H24.2272H36.567H36.9289L37.042 2.29161C37.2483 1.66442 37.8394 1.21201 38.5315 1.21201C39.3958 1.21201 40.0997 1.91578 40.0997 2.77989C40.0997 3.64415 39.396 4.3481 38.5315 4.3481C37.8391 4.3481 37.248 3.89568 37.0417 3.26822L36.9286 2.92442H36.5667H28.6292ZM19.4562 4.27104V4.77104H19.9562H22.9382H23.4382V4.27104V2.89201V2.88966V2.78156V2.77989V2.77821V1.28907V0.789068H22.9382H19.9562H19.4562V1.28907V2.89067V2.891V4.27104ZM39.8106 2.77989C39.8106 2.07425 39.2372 1.50108 38.5315 1.50108C37.8258 1.50108 37.2524 2.07425 37.2524 2.77989C37.2524 3.48572 37.8257 4.05903 38.5315 4.05903C39.2373 4.05903 39.8106 3.48572 39.8106 2.77989ZM3.08335 2.78022C3.08335 3.48586 3.65681 4.05903 4.3625 4.05903C5.06819 4.05903 5.64165 3.48586 5.64165 2.78022C5.64165 2.07439 5.06833 1.50108 4.3625 1.50108C3.65667 1.50108 3.08335 2.07439 3.08335 2.78022Z" fill="white" stroke="white" stroke-width="0.999998"/>
<mask id="path-2-inside-1" fill="white">
<path d="M23.4336 7.44895C23.3198 7.24484 23.1046 7.11829 22.871 7.11829H20.0233C19.79 7.11829 19.5745 7.24484 19.4607 7.44895L10.9182 22.7536C10.8649 22.8496 10.8367 22.9577 10.8367 23.0678V23.7798C10.8367 23.9017 10.8712 24.0208 10.9364 24.1239L14.583 29.8975H12.1929C11.837 29.8975 11.5483 30.1859 11.5483 30.542C11.5483 30.8979 11.837 31.1866 12.1929 31.1866H12.2603V33.3894C12.2603 33.7456 12.5487 34.0339 12.9049 34.0339H13.6837V36.2371C13.6837 36.5929 13.9724 36.8816 14.3282 36.8816H15.1077V39.0821V39.0845V39.0871V43.3555C15.1077 43.7117 15.3964 44 15.7522 44H27.142C27.4979 44 27.7866 43.7117 27.7866 43.3555V36.8816H28.5657C28.9215 36.8816 29.2102 36.5929 29.2102 36.2371V34.0339H29.9894C30.3452 34.0339 30.6339 33.7456 30.6339 33.3894V31.1866H30.7014C31.0572 31.1866 31.3459 30.8979 31.3459 30.542C31.3459 30.1859 31.0572 29.8975 30.7014 29.8975H29.9911C29.9904 29.8975 29.99 29.8975 29.9894 29.8975C29.9887 29.8975 29.9884 29.8975 29.9877 29.8975H28.3112L31.9579 24.1239C32.023 24.0208 32.0576 23.9017 32.0576 23.7798V23.0678C32.0576 22.9577 32.0294 22.8496 31.9757 22.7536L23.4336 7.44895ZM21.4473 21.2208C21.877 21.2208 22.2264 21.5703 22.2264 22C22.2264 22.4296 21.877 22.7791 21.4473 22.7791C21.0176 22.7791 20.6682 22.4296 20.6682 22C20.6682 21.5703 21.0176 21.2208 21.4473 21.2208ZM27.9212 35.5922H20.8494C20.4936 35.5922 20.2049 35.8809 20.2049 36.2368C20.2049 36.5929 20.4936 36.8813 20.8494 36.8813H26.4975V38.4396H25.718C25.3622 38.4396 25.0735 38.7279 25.0735 39.0841C25.0735 39.4403 25.3622 39.7287 25.718 39.7287H26.4971V42.711H16.3968V39.729H17.1759C17.5318 39.729 17.8205 39.4406 17.8205 39.0845C17.8205 38.7283 17.5318 38.4399 17.1759 38.4399H16.3968V36.8813H18.0954C18.4516 36.8813 18.7399 36.5929 18.7399 36.2368C18.7399 35.8809 18.4516 35.5922 18.0954 35.5922H14.9728V34.0339H27.9212V35.5922ZM29.3448 32.7449H13.5494V31.1866H27.14H27.1413H27.1427H29.3448V32.7449ZM30.7685 23.5932L29.4842 25.6265H27.8537C27.4979 25.6265 27.2092 25.9148 27.2092 26.271C27.2092 26.6272 27.4979 26.9155 27.8537 26.9155H28.6701L26.7865 29.8975H22.0915V28.4064C22.0915 28.0505 21.8031 27.7618 21.447 27.7618C21.0911 27.7618 20.8024 28.0505 20.8024 28.4064V29.8975H16.1074L14.2242 26.9155H15.0402C15.3964 26.9155 15.6848 26.6272 15.6848 26.271C15.6848 25.9148 15.3964 25.6265 15.0402 25.6265H13.4098L12.1257 23.5932V23.2353L20.4019 8.40735H20.8024V20.0351C19.977 20.3067 19.3787 21.0845 19.3787 21.9996C19.3787 23.1403 20.3066 24.0682 21.447 24.0682C22.5877 24.0682 23.5155 23.1403 23.5155 21.9996C23.5155 21.0845 22.9173 20.3064 22.0918 20.0351V8.40735H22.4923L30.7685 23.2353V23.5932Z"/>
</mask>
<path d="M23.4336 7.44895C23.3198 7.24484 23.1046 7.11829 22.871 7.11829H20.0233C19.79 7.11829 19.5745 7.24484 19.4607 7.44895L10.9182 22.7536C10.8649 22.8496 10.8367 22.9577 10.8367 23.0678V23.7798C10.8367 23.9017 10.8712 24.0208 10.9364 24.1239L14.583 29.8975H12.1929C11.837 29.8975 11.5483 30.1859 11.5483 30.542C11.5483 30.8979 11.837 31.1866 12.1929 31.1866H12.2603V33.3894C12.2603 33.7456 12.5487 34.0339 12.9049 34.0339H13.6837V36.2371C13.6837 36.5929 13.9724 36.8816 14.3282 36.8816H15.1077V39.0821V39.0845V39.0871V43.3555C15.1077 43.7117 15.3964 44 15.7522 44H27.142C27.4979 44 27.7866 43.7117 27.7866 43.3555V36.8816H28.5657C28.9215 36.8816 29.2102 36.5929 29.2102 36.2371V34.0339H29.9894C30.3452 34.0339 30.6339 33.7456 30.6339 33.3894V31.1866H30.7014C31.0572 31.1866 31.3459 30.8979 31.3459 30.542C31.3459 30.1859 31.0572 29.8975 30.7014 29.8975H29.9911C29.9904 29.8975 29.99 29.8975 29.9894 29.8975C29.9887 29.8975 29.9884 29.8975 29.9877 29.8975H28.3112L31.9579 24.1239C32.023 24.0208 32.0576 23.9017 32.0576 23.7798V23.0678C32.0576 22.9577 32.0294 22.8496 31.9757 22.7536L23.4336 7.44895ZM21.4473 21.2208C21.877 21.2208 22.2264 21.5703 22.2264 22C22.2264 22.4296 21.877 22.7791 21.4473 22.7791C21.0176 22.7791 20.6682 22.4296 20.6682 22C20.6682 21.5703 21.0176 21.2208 21.4473 21.2208ZM27.9212 35.5922H20.8494C20.4936 35.5922 20.2049 35.8809 20.2049 36.2368C20.2049 36.5929 20.4936 36.8813 20.8494 36.8813H26.4975V38.4396H25.718C25.3622 38.4396 25.0735 38.7279 25.0735 39.0841C25.0735 39.4403 25.3622 39.7287 25.718 39.7287H26.4971V42.711H16.3968V39.729H17.1759C17.5318 39.729 17.8205 39.4406 17.8205 39.0845C17.8205 38.7283 17.5318 38.4399 17.1759 38.4399H16.3968V36.8813H18.0954C18.4516 36.8813 18.7399 36.5929 18.7399 36.2368C18.7399 35.8809 18.4516 35.5922 18.0954 35.5922H14.9728V34.0339H27.9212V35.5922ZM29.3448 32.7449H13.5494V31.1866H27.14H27.1413H27.1427H29.3448V32.7449ZM30.7685 23.5932L29.4842 25.6265H27.8537C27.4979 25.6265 27.2092 25.9148 27.2092 26.271C27.2092 26.6272 27.4979 26.9155 27.8537 26.9155H28.6701L26.7865 29.8975H22.0915V28.4064C22.0915 28.0505 21.8031 27.7618 21.447 27.7618C21.0911 27.7618 20.8024 28.0505 20.8024 28.4064V29.8975H16.1074L14.2242 26.9155H15.0402C15.3964 26.9155 15.6848 26.6272 15.6848 26.271C15.6848 25.9148 15.3964 25.6265 15.0402 25.6265H13.4098L12.1257 23.5932V23.2353L20.4019 8.40735H20.8024V20.0351C19.977 20.3067 19.3787 21.0845 19.3787 21.9996C19.3787 23.1403 20.3066 24.0682 21.447 24.0682C22.5877 24.0682 23.5155 23.1403 23.5155 21.9996C23.5155 21.0845 22.9173 20.3064 22.0918 20.0351V8.40735H22.4923L30.7685 23.2353V23.5932Z" fill="white" stroke="white" stroke-width="2" mask="url(#path-2-inside-1)"/>
</svg>
