<svg width="43" height="44" viewBox="0 0 43 44" fill="none" xmlns="http://www.w3.org/2000/svg">
<rect width="43" height="44" fill="#252525"/>
<g clip-path="url(#clip0)">
<rect width="375" height="8796" transform="translate(-32 -6770)" fill="#181818"/>
<g filter="url(#filter0_d)">
<rect x="-14" y="-13" width="70" height="70" fill="#E3B873"/>
</g>
<mask id="path-2-inside-1" fill="white">
<path d="M36.7104 8.91202C34.4709 6.43694 31.6961 4.56645 28.6292 3.42442H36.5667C36.8383 4.25023 37.6161 4.8481 38.5315 4.8481C39.6722 4.8481 40.5997 3.92024 40.5997 2.77989C40.5997 1.63953 39.6719 0.712008 38.5315 0.712008C37.6164 0.712008 36.8386 1.30988 36.567 2.13535H24.2272V0.644533C24.2272 0.288362 23.9389 0 23.5827 0H19.3116C18.9558 0 18.6671 0.288362 18.6671 0.644533V2.13569H6.32732C6.05574 1.30988 5.27794 0.712008 4.3625 0.712008C3.22215 0.712008 2.29429 1.63987 2.29429 2.78022C2.29429 3.92058 3.22215 4.8481 4.3625 4.8481C5.27794 4.8481 6.05574 4.25023 6.32732 3.42476H14.2648C11.1979 4.56679 8.42306 6.43694 6.18398 8.91202C2.75754 12.6997 0.870605 17.6005 0.870605 22.7117C0.870605 23.0679 1.1593 23.3563 1.51514 23.3563C1.87098 23.3563 2.15967 23.0679 2.15967 22.7117C2.15967 13.0652 9.20691 4.98372 18.6671 3.62449V4.91557C18.6671 5.27175 18.9558 5.56011 19.3116 5.56011H23.5827C23.9389 5.56011 24.2272 5.27175 24.2272 4.91557V3.62449C33.6874 4.98372 40.7343 13.0652 40.7343 22.7117C40.7343 23.0679 41.023 23.3563 41.3789 23.3563C41.735 23.3563 42.0234 23.0679 42.0234 22.7117C42.0234 17.6005 40.1365 12.6997 36.7104 8.91202ZM38.5315 2.00107C38.9612 2.00107 39.3106 2.35053 39.3106 2.77989C39.3106 3.20958 38.9612 3.55903 38.5315 3.55903C38.1018 3.55903 37.7524 3.20958 37.7524 2.77989C37.7524 2.35053 38.1018 2.00107 38.5315 2.00107ZM4.3625 3.55903C3.93281 3.55903 3.58335 3.20958 3.58335 2.78022C3.58335 2.35053 3.93281 2.00107 4.3625 2.00107C4.79219 2.00107 5.14165 2.35053 5.14165 2.78022C5.14165 3.20958 4.79219 3.55903 4.3625 3.55903ZM19.9562 4.27104V2.891V2.89067V1.28907H22.9382V2.77821V2.77989V2.78156V2.88966V2.89201V4.27104H19.9562Z"/>
</mask>
<path d="M36.7104 8.91202C34.4709 6.43694 31.6961 4.56645 28.6292 3.42442H36.5667C36.8383 4.25023 37.6161 4.8481 38.5315 4.8481C39.6722 4.8481 40.5997 3.92024 40.5997 2.77989C40.5997 1.63953 39.6719 0.712008 38.5315 0.712008C37.6164 0.712008 36.8386 1.30988 36.567 2.13535H24.2272V0.644533C24.2272 0.288362 23.9389 0 23.5827 0H19.3116C18.9558 0 18.6671 0.288362 18.6671 0.644533V2.13569H6.32732C6.05574 1.30988 5.27794 0.712008 4.3625 0.712008C3.22215 0.712008 2.29429 1.63987 2.29429 2.78022C2.29429 3.92058 3.22215 4.8481 4.3625 4.8481C5.27794 4.8481 6.05574 4.25023 6.32732 3.42476H14.2648C11.1979 4.56679 8.42306 6.43694 6.18398 8.91202C2.75754 12.6997 0.870605 17.6005 0.870605 22.7117C0.870605 23.0679 1.1593 23.3563 1.51514 23.3563C1.87098 23.3563 2.15967 23.0679 2.15967 22.7117C2.15967 13.0652 9.20691 4.98372 18.6671 3.62449V4.91557C18.6671 5.27175 18.9558 5.56011 19.3116 5.56011H23.5827C23.9389 5.56011 24.2272 5.27175 24.2272 4.91557V3.62449C33.6874 4.98372 40.7343 13.0652 40.7343 22.7117C40.7343 23.0679 41.023 23.3563 41.3789 23.3563C41.735 23.3563 42.0234 23.0679 42.0234 22.7117C42.0234 17.6005 40.1365 12.6997 36.7104 8.91202ZM38.5315 2.00107C38.9612 2.00107 39.3106 2.35053 39.3106 2.77989C39.3106 3.20958 38.9612 3.55903 38.5315 3.55903C38.1018 3.55903 37.7524 3.20958 37.7524 2.77989C37.7524 2.35053 38.1018 2.00107 38.5315 2.00107ZM4.3625 3.55903C3.93281 3.55903 3.58335 3.20958 3.58335 2.78022C3.58335 2.35053 3.93281 2.00107 4.3625 2.00107C4.79219 2.00107 5.14165 2.35053 5.14165 2.78022C5.14165 3.20958 4.79219 3.55903 4.3625 3.55903ZM19.9562 4.27104V2.891V2.89067V1.28907H22.9382V2.77821V2.77989V2.78156V2.88966V2.89201V4.27104H19.9562Z" fill="white" stroke="white" stroke-width="2" mask="url(#path-2-inside-1)"/>
<mask id="path-3-inside-2" fill="white">
<path d="M23.4336 7.44895C23.3198 7.24484 23.1046 7.11829 22.871 7.11829H20.0233C19.79 7.11829 19.5745 7.24484 19.4607 7.44895L10.9182 22.7536C10.8649 22.8496 10.8367 22.9577 10.8367 23.0678V23.7798C10.8367 23.9017 10.8712 24.0208 10.9364 24.1239L14.583 29.8975H12.1929C11.837 29.8975 11.5483 30.1859 11.5483 30.542C11.5483 30.8979 11.837 31.1866 12.1929 31.1866H12.2603V33.3894C12.2603 33.7456 12.5487 34.0339 12.9049 34.0339H13.6837V36.2371C13.6837 36.5929 13.9724 36.8816 14.3282 36.8816H15.1077V39.0821V39.0845V39.0871V43.3555C15.1077 43.7117 15.3964 44 15.7522 44H27.142C27.4979 44 27.7866 43.7117 27.7866 43.3555V36.8816H28.5657C28.9215 36.8816 29.2102 36.5929 29.2102 36.2371V34.0339H29.9894C30.3452 34.0339 30.6339 33.7456 30.6339 33.3894V31.1866H30.7014C31.0572 31.1866 31.3459 30.8979 31.3459 30.542C31.3459 30.1859 31.0572 29.8975 30.7014 29.8975H29.9911C29.9904 29.8975 29.99 29.8975 29.9894 29.8975C29.9887 29.8975 29.9884 29.8975 29.9877 29.8975H28.3112L31.9579 24.1239C32.023 24.0208 32.0576 23.9017 32.0576 23.7798V23.0678C32.0576 22.9577 32.0294 22.8496 31.9757 22.7536L23.4336 7.44895ZM21.4473 21.2208C21.877 21.2208 22.2264 21.5703 22.2264 22C22.2264 22.4296 21.877 22.7791 21.4473 22.7791C21.0176 22.7791 20.6682 22.4296 20.6682 22C20.6682 21.5703 21.0176 21.2208 21.4473 21.2208ZM27.9212 35.5922H20.8494C20.4936 35.5922 20.2049 35.8809 20.2049 36.2368C20.2049 36.5929 20.4936 36.8813 20.8494 36.8813H26.4975V38.4396H25.718C25.3622 38.4396 25.0735 38.7279 25.0735 39.0841C25.0735 39.4403 25.3622 39.7287 25.718 39.7287H26.4971V42.711H16.3968V39.729H17.1759C17.5318 39.729 17.8205 39.4406 17.8205 39.0845C17.8205 38.7283 17.5318 38.4399 17.1759 38.4399H16.3968V36.8813H18.0954C18.4516 36.8813 18.7399 36.5929 18.7399 36.2368C18.7399 35.8809 18.4516 35.5922 18.0954 35.5922H14.9728V34.0339H27.9212V35.5922ZM29.3448 32.7449H13.5494V31.1866H27.14H27.1413H27.1427H29.3448V32.7449ZM30.7685 23.5932L29.4842 25.6265H27.8537C27.4979 25.6265 27.2092 25.9148 27.2092 26.271C27.2092 26.6272 27.4979 26.9155 27.8537 26.9155H28.6701L26.7865 29.8975H22.0915V28.4064C22.0915 28.0505 21.8031 27.7618 21.447 27.7618C21.0911 27.7618 20.8024 28.0505 20.8024 28.4064V29.8975H16.1074L14.2242 26.9155H15.0402C15.3964 26.9155 15.6848 26.6272 15.6848 26.271C15.6848 25.9148 15.3964 25.6265 15.0402 25.6265H13.4098L12.1257 23.5932V23.2353L20.4019 8.40735H20.8024V20.0351C19.977 20.3067 19.3787 21.0845 19.3787 21.9996C19.3787 23.1403 20.3066 24.0682 21.447 24.0682C22.5877 24.0682 23.5155 23.1403 23.5155 21.9996C23.5155 21.0845 22.9173 20.3064 22.0918 20.0351V8.40735H22.4923L30.7685 23.2353V23.5932Z"/>
</mask>
<path d="M23.4336 7.44895C23.3198 7.24484 23.1046 7.11829 22.871 7.11829H20.0233C19.79 7.11829 19.5745 7.24484 19.4607 7.44895L10.9182 22.7536C10.8649 22.8496 10.8367 22.9577 10.8367 23.0678V23.7798C10.8367 23.9017 10.8712 24.0208 10.9364 24.1239L14.583 29.8975H12.1929C11.837 29.8975 11.5483 30.1859 11.5483 30.542C11.5483 30.8979 11.837 31.1866 12.1929 31.1866H12.2603V33.3894C12.2603 33.7456 12.5487 34.0339 12.9049 34.0339H13.6837V36.2371C13.6837 36.5929 13.9724 36.8816 14.3282 36.8816H15.1077V39.0821V39.0845V39.0871V43.3555C15.1077 43.7117 15.3964 44 15.7522 44H27.142C27.4979 44 27.7866 43.7117 27.7866 43.3555V36.8816H28.5657C28.9215 36.8816 29.2102 36.5929 29.2102 36.2371V34.0339H29.9894C30.3452 34.0339 30.6339 33.7456 30.6339 33.3894V31.1866H30.7014C31.0572 31.1866 31.3459 30.8979 31.3459 30.542C31.3459 30.1859 31.0572 29.8975 30.7014 29.8975H29.9911C29.9904 29.8975 29.99 29.8975 29.9894 29.8975C29.9887 29.8975 29.9884 29.8975 29.9877 29.8975H28.3112L31.9579 24.1239C32.023 24.0208 32.0576 23.9017 32.0576 23.7798V23.0678C32.0576 22.9577 32.0294 22.8496 31.9757 22.7536L23.4336 7.44895ZM21.4473 21.2208C21.877 21.2208 22.2264 21.5703 22.2264 22C22.2264 22.4296 21.877 22.7791 21.4473 22.7791C21.0176 22.7791 20.6682 22.4296 20.6682 22C20.6682 21.5703 21.0176 21.2208 21.4473 21.2208ZM27.9212 35.5922H20.8494C20.4936 35.5922 20.2049 35.8809 20.2049 36.2368C20.2049 36.5929 20.4936 36.8813 20.8494 36.8813H26.4975V38.4396H25.718C25.3622 38.4396 25.0735 38.7279 25.0735 39.0841C25.0735 39.4403 25.3622 39.7287 25.718 39.7287H26.4971V42.711H16.3968V39.729H17.1759C17.5318 39.729 17.8205 39.4406 17.8205 39.0845C17.8205 38.7283 17.5318 38.4399 17.1759 38.4399H16.3968V36.8813H18.0954C18.4516 36.8813 18.7399 36.5929 18.7399 36.2368C18.7399 35.8809 18.4516 35.5922 18.0954 35.5922H14.9728V34.0339H27.9212V35.5922ZM29.3448 32.7449H13.5494V31.1866H27.14H27.1413H27.1427H29.3448V32.7449ZM30.7685 23.5932L29.4842 25.6265H27.8537C27.4979 25.6265 27.2092 25.9148 27.2092 26.271C27.2092 26.6272 27.4979 26.9155 27.8537 26.9155H28.6701L26.7865 29.8975H22.0915V28.4064C22.0915 28.0505 21.8031 27.7618 21.447 27.7618C21.0911 27.7618 20.8024 28.0505 20.8024 28.4064V29.8975H16.1074L14.2242 26.9155H15.0402C15.3964 26.9155 15.6848 26.6272 15.6848 26.271C15.6848 25.9148 15.3964 25.6265 15.0402 25.6265H13.4098L12.1257 23.5932V23.2353L20.4019 8.40735H20.8024V20.0351C19.977 20.3067 19.3787 21.0845 19.3787 21.9996C19.3787 23.1403 20.3066 24.0682 21.447 24.0682C22.5877 24.0682 23.5155 23.1403 23.5155 21.9996C23.5155 21.0845 22.9173 20.3064 22.0918 20.0351V8.40735H22.4923L30.7685 23.2353V23.5932Z" fill="white" stroke="white" stroke-width="2" mask="url(#path-3-inside-2)"/>
</g>
<defs>
<filter id="filter0_d" x="-34" y="-28" width="110" height="110" filterUnits="userSpaceOnUse" color-interpolation-filters="sRGB">
<feFlood flood-opacity="0" result="BackgroundImageFix"/>
<feColorMatrix in="SourceAlpha" type="matrix" values="0 0 0 0 0 0 0 0 0 0 0 0 0 0 0 0 0 0 127 0"/>
<feOffset dy="5"/>
<feGaussianBlur stdDeviation="10"/>
<feColorMatrix type="matrix" values="0 0 0 0 0.890196 0 0 0 0 0.721569 0 0 0 0 0.45098 0 0 0 0.5 0"/>
<feBlend mode="normal" in2="BackgroundImageFix" result="effect1_dropShadow"/>
<feBlend mode="normal" in="SourceGraphic" in2="effect1_dropShadow" result="shape"/>
</filter>
<clipPath id="clip0">
<rect width="375" height="8796" fill="white" transform="translate(-32 -6770)"/>
</clipPath>
</defs>
</svg>
