<svg width="19" height="20" viewBox="0 0 19 20" fill="none" xmlns="http://www.w3.org/2000/svg">
<path d="M13.5714 1.69897H5.21422C2.90645 1.69897 1.03564 3.56978 1.03564 5.87755V14.2347C1.03564 16.5424 2.90645 18.4133 5.21422 18.4133H13.5714C15.8791 18.4133 17.7499 16.5424 17.7499 14.2347V5.87755C17.7499 3.56978 15.8791 1.69897 13.5714 1.69897Z" stroke="white" stroke-width="1.5"/>
<path d="M12.7356 9.52976C12.8388 10.2253 12.72 10.9356 12.3961 11.5597C12.0723 12.1838 11.5599 12.6899 10.9318 13.0061C10.3038 13.3222 9.59204 13.4322 8.89784 13.3205C8.20365 13.2088 7.56235 12.881 7.06516 12.3839C6.56798 11.8867 6.24022 11.2454 6.12852 10.5512C6.01681 9.85699 6.12685 9.14525 6.44296 8.51719C6.75908 7.88914 7.26519 7.37675 7.8893 7.05291C8.51341 6.72907 9.22374 6.61027 9.91926 6.71341C10.6287 6.81861 11.2855 7.1492 11.7927 7.65635C12.2998 8.1635 12.6304 8.82031 12.7356 9.52976Z" stroke="white" stroke-width="1.5" stroke-linecap="round" stroke-linejoin="round"/>
</svg>
