<svg width="513" height="637" viewBox="0 0 513 637" fill="none" xmlns="http://www.w3.org/2000/svg">
<path d="M-52.6096 551.488C-112.237 496.865 -148.701 421.495 -154.519 340.84C-160.338 260.185 -135.07 180.361 -83.8996 117.745C-32.7294 55.1297 40.4632 14.4704 120.661 4.10927C200.859 -6.25185 281.982 14.4708 347.386 62.0257" stroke="url(#paint0_linear)" stroke-width="3" stroke-linecap="round" stroke-linejoin="round"/>
<path d="M380.543 546.184C330.027 594.787 264.807 625.247 195.112 632.788C125.418 640.328 55.1927 624.522 -4.54975 587.848" stroke="url(#paint1_linear)" stroke-width="3" stroke-linecap="round" stroke-linejoin="round"/>
<path d="M399.385 109.657C414.39 126.793 427.502 145.499 438.492 165.449" stroke="url(#paint2_linear)" stroke-width="3" stroke-linecap="round" stroke-linejoin="round"/>
<path d="M463.453 224.544C473.095 255.674 477.871 288.107 477.614 320.696" stroke="url(#paint3_linear)" stroke-width="3" stroke-linecap="round" stroke-linejoin="round"/>
<path d="M469.183 390.817C461.348 424.06 448.185 455.816 430.205 484.854" stroke="url(#paint4_linear)" stroke-width="3" stroke-linecap="round"/>
<g filter="url(#filter0_d)">
<rect x="356.193" y="62.2163" width="41.7571" height="41.7571" rx="20.8785" fill="#E3B873"/>
</g>
<path d="M373.765 89.27C372.793 89.27 371.911 89.012 371.119 88.496C370.327 87.98 369.697 87.23 369.229 86.246C368.773 85.25 368.545 84.068 368.545 82.7C368.545 81.332 368.773 80.156 369.229 79.172C369.697 78.176 370.327 77.42 371.119 76.904C371.911 76.388 372.793 76.13 373.765 76.13C374.737 76.13 375.619 76.388 376.411 76.904C377.203 77.42 377.827 78.176 378.283 79.172C378.751 80.156 378.985 81.332 378.985 82.7C378.985 84.068 378.751 85.25 378.283 86.246C377.827 87.23 377.203 87.98 376.411 88.496C375.619 89.012 374.737 89.27 373.765 89.27ZM373.765 88.91C375.145 88.91 375.835 86.84 375.835 82.7C375.835 78.56 375.145 76.49 373.765 76.49C372.385 76.49 371.695 78.56 371.695 82.7C371.695 86.84 372.385 88.91 373.765 88.91ZM381.054 89V88.73L382.314 88.37V78.488L380.424 79.82L380.064 79.37L383.34 76.4H385.284V88.37L386.544 88.73V89H381.054Z" fill="white"/>
<g filter="url(#filter1_d)">
<rect x="430.853" y="173.518" width="41.7571" height="41.7571" rx="20.8785" fill="#E3B873"/>
</g>
<path d="M446.324 200.27C445.352 200.27 444.47 200.012 443.678 199.496C442.886 198.98 442.256 198.23 441.788 197.246C441.332 196.25 441.104 195.068 441.104 193.7C441.104 192.332 441.332 191.156 441.788 190.172C442.256 189.176 442.886 188.42 443.678 187.904C444.47 187.388 445.352 187.13 446.324 187.13C447.296 187.13 448.178 187.388 448.97 187.904C449.762 188.42 450.386 189.176 450.842 190.172C451.31 191.156 451.544 192.332 451.544 193.7C451.544 195.068 451.31 196.25 450.842 197.246C450.386 198.23 449.762 198.98 448.97 199.496C448.178 200.012 447.296 200.27 446.324 200.27ZM446.324 199.91C447.704 199.91 448.394 197.84 448.394 193.7C448.394 189.56 447.704 187.49 446.324 187.49C444.944 187.49 444.254 189.56 444.254 193.7C444.254 197.84 444.944 199.91 446.324 199.91ZM452.893 199.19C452.893 198.482 453.031 197.84 453.307 197.264C453.595 196.676 453.943 196.166 454.351 195.734C454.759 195.302 455.293 194.792 455.953 194.204C456.565 193.664 457.045 193.214 457.393 192.854C457.741 192.482 458.035 192.068 458.275 191.612C458.515 191.144 458.635 190.64 458.635 190.1C458.635 189.308 458.443 188.69 458.059 188.246C457.675 187.802 457.177 187.58 456.565 187.58C456.217 187.58 455.863 187.628 455.503 187.724L455.125 187.85V190.73L454.891 190.784C454.699 190.808 454.537 190.82 454.405 190.82C453.997 190.82 453.667 190.7 453.415 190.46C453.175 190.208 453.055 189.878 453.055 189.47C453.055 189.086 453.199 188.714 453.487 188.354C453.787 187.994 454.225 187.7 454.801 187.472C455.389 187.244 456.097 187.13 456.925 187.13C458.545 187.13 459.745 187.454 460.525 188.102C461.305 188.75 461.695 189.656 461.695 190.82C461.695 191.552 461.503 192.182 461.119 192.71C460.747 193.238 460.285 193.676 459.733 194.024C459.193 194.372 458.467 194.768 457.555 195.212C456.787 195.584 456.163 195.914 455.683 196.202C455.215 196.478 454.777 196.814 454.369 197.21C453.973 197.606 453.691 198.056 453.523 198.56H460.183C460.267 197.912 460.471 197.372 460.795 196.94C460.927 196.736 461.083 196.556 461.263 196.4H461.803V200H452.893V199.19Z" fill="white"/>
<g filter="url(#filter2_d)">
<rect x="456" y="334.138" width="41.7571" height="41.7571" rx="20.8785" fill="#E3B873"/>
</g>
<path d="M471.236 360.27C470.264 360.27 469.382 360.012 468.59 359.496C467.798 358.98 467.168 358.23 466.7 357.246C466.244 356.25 466.016 355.068 466.016 353.7C466.016 352.332 466.244 351.156 466.7 350.172C467.168 349.176 467.798 348.42 468.59 347.904C469.382 347.388 470.264 347.13 471.236 347.13C472.208 347.13 473.09 347.388 473.882 347.904C474.674 348.42 475.298 349.176 475.754 350.172C476.222 351.156 476.456 352.332 476.456 353.7C476.456 355.068 476.222 356.25 475.754 357.246C475.298 358.23 474.674 358.98 473.882 359.496C473.09 360.012 472.208 360.27 471.236 360.27ZM471.236 359.91C472.616 359.91 473.306 357.84 473.306 353.7C473.306 349.56 472.616 347.49 471.236 347.49C469.856 347.49 469.166 349.56 469.166 353.7C469.166 357.84 469.856 359.91 471.236 359.91ZM481.585 360.27C480.757 360.27 480.049 360.156 479.461 359.928C478.885 359.7 478.447 359.406 478.147 359.046C477.859 358.686 477.715 358.314 477.715 357.93C477.715 357.522 477.835 357.198 478.075 356.958C478.327 356.706 478.657 356.58 479.065 356.58C479.161 356.58 479.257 356.592 479.353 356.616C479.449 356.628 479.515 356.634 479.551 356.634L479.785 356.67V359.55C479.797 359.55 479.923 359.598 480.163 359.694C480.475 359.778 480.829 359.82 481.225 359.82C482.065 359.82 482.707 359.568 483.151 359.064C483.607 358.548 483.835 357.78 483.835 356.76C483.835 355.716 483.613 354.93 483.169 354.402C482.737 353.874 482.149 353.61 481.405 353.61H480.505V353.16H481.405C481.945 353.16 482.395 352.92 482.755 352.44C483.115 351.96 483.295 351.27 483.295 350.37C483.295 349.47 483.109 348.78 482.737 348.3C482.365 347.82 481.891 347.58 481.315 347.58C481.003 347.58 480.703 347.628 480.415 347.724C480.379 347.736 480.259 347.778 480.055 347.85V350.73L479.821 350.784C479.629 350.808 479.467 350.82 479.335 350.82C478.927 350.82 478.597 350.7 478.345 350.46C478.105 350.208 477.985 349.878 477.985 349.47C477.985 349.098 478.129 348.732 478.417 348.372C478.705 348.012 479.125 347.718 479.677 347.49C480.241 347.25 480.907 347.13 481.675 347.13C482.683 347.13 483.535 347.28 484.231 347.58C484.939 347.868 485.467 348.258 485.815 348.75C486.175 349.242 486.355 349.782 486.355 350.37C486.355 351.054 486.181 351.6 485.833 352.008C485.485 352.404 485.029 352.722 484.465 352.962C483.913 353.178 483.283 353.304 482.575 353.34V353.43C483.367 353.466 484.087 353.604 484.735 353.844C486.175 354.42 486.895 355.392 486.895 356.76C486.895 357.816 486.457 358.668 485.581 359.316C484.717 359.952 483.385 360.27 481.585 360.27Z" fill="white"/>
<g filter="url(#filter3_d)">
<rect x="391" y="494.138" width="41.7571" height="41.7571" rx="20.8785" fill="#E3B873"/>
</g>
<path d="M406.104 521.27C405.132 521.27 404.25 521.012 403.458 520.496C402.666 519.98 402.036 519.23 401.568 518.246C401.112 517.25 400.884 516.068 400.884 514.7C400.884 513.332 401.112 512.156 401.568 511.172C402.036 510.176 402.666 509.42 403.458 508.904C404.25 508.388 405.132 508.13 406.104 508.13C407.076 508.13 407.958 508.388 408.75 508.904C409.542 509.42 410.166 510.176 410.622 511.172C411.09 512.156 411.324 513.332 411.324 514.7C411.324 516.068 411.09 517.25 410.622 518.246C410.166 519.23 409.542 519.98 408.75 520.496C407.958 521.012 407.076 521.27 406.104 521.27ZM406.104 520.91C407.484 520.91 408.174 518.84 408.174 514.7C408.174 510.56 407.484 508.49 406.104 508.49C404.724 508.49 404.034 510.56 404.034 514.7C404.034 518.84 404.724 520.91 406.104 520.91ZM416.363 521V520.73L417.623 520.37V517.67H412.493L412.133 517.13L418.883 508.22H420.593V516.86H422.483V517.67H420.593V520.37L421.853 520.73V521H416.363ZM413.123 516.86H417.623V510.92L413.123 516.86Z" fill="white"/>
<defs>
<filter id="filter0_d" x="341.193" y="52.2163" width="71.7571" height="71.7571" filterUnits="userSpaceOnUse" color-interpolation-filters="sRGB">
<feFlood flood-opacity="0" result="BackgroundImageFix"/>
<feColorMatrix in="SourceAlpha" type="matrix" values="0 0 0 0 0 0 0 0 0 0 0 0 0 0 0 0 0 0 127 0"/>
<feOffset dy="5"/>
<feGaussianBlur stdDeviation="7.5"/>
<feColorMatrix type="matrix" values="0 0 0 0 0.890196 0 0 0 0 0.721569 0 0 0 0 0.45098 0 0 0 0.15 0"/>
<feBlend mode="normal" in2="BackgroundImageFix" result="effect1_dropShadow"/>
<feBlend mode="normal" in="SourceGraphic" in2="effect1_dropShadow" result="shape"/>
</filter>
<filter id="filter1_d" x="415.853" y="163.518" width="71.7571" height="71.7571" filterUnits="userSpaceOnUse" color-interpolation-filters="sRGB">
<feFlood flood-opacity="0" result="BackgroundImageFix"/>
<feColorMatrix in="SourceAlpha" type="matrix" values="0 0 0 0 0 0 0 0 0 0 0 0 0 0 0 0 0 0 127 0"/>
<feOffset dy="5"/>
<feGaussianBlur stdDeviation="7.5"/>
<feColorMatrix type="matrix" values="0 0 0 0 0.890196 0 0 0 0 0.721569 0 0 0 0 0.45098 0 0 0 0.15 0"/>
<feBlend mode="normal" in2="BackgroundImageFix" result="effect1_dropShadow"/>
<feBlend mode="normal" in="SourceGraphic" in2="effect1_dropShadow" result="shape"/>
</filter>
<filter id="filter2_d" x="441" y="324.138" width="71.7571" height="71.7571" filterUnits="userSpaceOnUse" color-interpolation-filters="sRGB">
<feFlood flood-opacity="0" result="BackgroundImageFix"/>
<feColorMatrix in="SourceAlpha" type="matrix" values="0 0 0 0 0 0 0 0 0 0 0 0 0 0 0 0 0 0 127 0"/>
<feOffset dy="5"/>
<feGaussianBlur stdDeviation="7.5"/>
<feColorMatrix type="matrix" values="0 0 0 0 0.890196 0 0 0 0 0.721569 0 0 0 0 0.45098 0 0 0 0.15 0"/>
<feBlend mode="normal" in2="BackgroundImageFix" result="effect1_dropShadow"/>
<feBlend mode="normal" in="SourceGraphic" in2="effect1_dropShadow" result="shape"/>
</filter>
<filter id="filter3_d" x="376" y="484.138" width="71.7571" height="71.7571" filterUnits="userSpaceOnUse" color-interpolation-filters="sRGB">
<feFlood flood-opacity="0" result="BackgroundImageFix"/>
<feColorMatrix in="SourceAlpha" type="matrix" values="0 0 0 0 0 0 0 0 0 0 0 0 0 0 0 0 0 0 127 0"/>
<feOffset dy="5"/>
<feGaussianBlur stdDeviation="7.5"/>
<feColorMatrix type="matrix" values="0 0 0 0 0.890196 0 0 0 0 0.721569 0 0 0 0 0.45098 0 0 0 0.15 0"/>
<feBlend mode="normal" in2="BackgroundImageFix" result="effect1_dropShadow"/>
<feBlend mode="normal" in="SourceGraphic" in2="effect1_dropShadow" result="shape"/>
</filter>
<linearGradient id="paint0_linear" x1="489.625" y1="283.859" x2="-1.45091" y2="283.859" gradientUnits="userSpaceOnUse">
<stop stop-color="#E3B873"/>
<stop offset="1" stop-color="#E3B873" stop-opacity="0"/>
</linearGradient>
<linearGradient id="paint1_linear" x1="489.465" y1="283.859" x2="-1.61095" y2="283.859" gradientUnits="userSpaceOnUse">
<stop stop-color="#E3B873"/>
<stop offset="1" stop-color="#E3B873" stop-opacity="0"/>
</linearGradient>
<linearGradient id="paint2_linear" x1="489.625" y1="283.996" x2="-1.45091" y2="283.996" gradientUnits="userSpaceOnUse">
<stop stop-color="#E3B873"/>
<stop offset="1" stop-color="#E3B873" stop-opacity="0"/>
</linearGradient>
<linearGradient id="paint3_linear" x1="489.465" y1="283.996" x2="-1.61095" y2="283.996" gradientUnits="userSpaceOnUse">
<stop stop-color="#E3B873"/>
<stop offset="1" stop-color="#E3B873" stop-opacity="0"/>
</linearGradient>
<linearGradient id="paint4_linear" x1="489.465" y1="283.996" x2="-1.61095" y2="283.996" gradientUnits="userSpaceOnUse">
<stop stop-color="#E3B873"/>
<stop offset="1" stop-color="#E3B873" stop-opacity="0"/>
</linearGradient>
</defs>
</svg>
