<svg width="114" height="29" viewBox="0 0 114 29" fill="none" xmlns="http://www.w3.org/2000/svg">
<rect x="0.000488281" y="13.8872" width="32" height="1.54334" rx="0.771672" fill="#E3B873"/>
<rect x="82.0005" y="13.8872" width="32" height="1.54334" rx="0.771672" fill="#E3B873"/>
<path d="M64.8924 22.7272C64.1457 23.4272 64.1457 24.5939 64.8924 25.3406C65.2657 25.7139 65.7324 25.9006 66.199 25.9006C66.6657 25.9006 67.1324 25.7139 67.5057 25.3406C68.2523 24.6406 68.2523 23.4739 67.5057 22.7272C66.8057 21.9806 65.639 21.9806 64.8924 22.7272ZM66.8524 24.7339C66.479 25.1072 65.919 25.1072 65.5457 24.7339C65.1724 24.3605 65.1724 23.8005 65.5457 23.4272C65.7324 23.2406 65.9657 23.1472 66.1991 23.1472C66.4324 23.1472 66.6657 23.2406 66.8524 23.4272C67.2257 23.8006 67.2257 24.3606 66.8524 24.7339Z" fill="#E3B873"/>
<path d="M70.6796 23.2872L62.2796 14.8872L65.593 11.5739L65.5931 11.5738L67.553 9.61386L67.5531 9.6138L70.3997 6.76721C71.193 5.97386 71.193 4.66721 70.3997 3.87386L68.0197 1.49386C67.6464 1.12056 67.133 0.887207 66.573 0.887207C66.013 0.887207 65.4996 1.12056 65.1264 1.49386L62.2797 4.3405L60.3197 6.3005L57.0064 9.61386L48.6996 1.30721C48.1863 0.793855 47.253 0.793855 46.7396 1.30721L43.4263 4.62056C42.8663 5.13391 42.8663 6.02056 43.4263 6.58056L44.4063 7.56056L47.0663 10.2206L49.6796 12.8339C49.6796 12.8339 49.6796 12.8339 49.6797 12.8339L51.733 14.8872L44.2416 22.3786C44.1019 22.4403 44.0266 22.5662 43.9863 22.7272L43.0063 28.3272C43.0063 28.5139 43.053 28.6539 43.1463 28.7472C43.2396 28.8406 43.333 28.8872 43.473 28.8872C43.5196 28.8872 43.5196 28.8872 43.5663 28.8872L48.9501 27.8919C48.9873 27.9017 49.0275 27.9072 49.073 27.9072C49.213 27.9072 49.353 27.8606 49.3996 27.7672L57.0063 20.1606L57.6129 20.7672C57.6129 20.7672 57.6129 20.7672 57.613 20.7673L57.6131 20.7673L58.9196 22.0739C58.9196 22.0739 58.9196 22.0739 58.9197 22.074L58.9198 22.074L65.4064 28.5606C65.6397 28.794 65.9197 28.8873 66.1997 28.8873C66.4797 28.8873 66.7597 28.7939 66.9464 28.5606L70.6797 24.8273C71.0997 24.4072 71.0996 23.7072 70.6796 23.2872ZM49.073 26.7406L47.4401 25.1077L62.9559 9.63671L64.5664 11.2472L49.073 26.7406ZM65.7796 2.14721C66.1996 1.72721 66.9463 1.72721 67.3663 2.14721L69.7463 4.52721C70.1663 4.94721 70.1663 5.69386 69.7463 6.11386L67.2263 8.63386L63.2596 4.66721L65.7796 2.14721ZM62.6064 5.32056L64.5897 7.30391L66.573 9.28721L65.2664 10.5939L61.2997 6.62721L62.6064 5.32056ZM51.9896 13.8372L52.993 12.8339C53.1796 12.6472 53.1796 12.3672 52.993 12.1805C52.8063 11.9938 52.5264 11.9939 52.3396 12.1805L51.3363 13.1839L50.6596 12.5072L52.293 10.8739C52.4796 10.6872 52.4796 10.4072 52.293 10.2205C52.1063 10.0338 51.8264 10.0339 51.6396 10.2205L50.0063 11.8539L49.3529 11.2005L50.3329 10.2205C50.5196 10.0339 50.5196 9.75385 50.3329 9.56715C50.1463 9.38045 49.8663 9.3805 49.6796 9.56715L48.6996 10.5472L48.0462 9.8938L49.6796 8.26045C49.8662 8.0738 49.8662 7.7938 49.6796 7.6071C49.4929 7.42039 49.2129 7.42045 49.0262 7.6071L47.393 9.24056L46.693 8.54056L47.673 7.56056C47.8596 7.37391 47.8596 7.09391 47.673 6.90721C47.4863 6.7205 47.2063 6.72056 47.0196 6.90721L46.0396 7.88721L45.3863 7.23386L47.0196 5.6005C47.2063 5.41386 47.2063 5.13386 47.0196 4.94715C46.833 4.76045 46.553 4.7605 46.3663 4.94715L44.733 6.58056L44.0796 5.92721C43.893 5.74056 43.893 5.46056 44.0796 5.27386L47.393 1.96056C47.4863 1.86721 47.5796 1.82056 47.7196 1.82056C47.813 1.82056 47.953 1.86721 48.0463 1.96056L56.353 10.2672L52.3863 14.2339L51.9896 13.8372ZM60.6464 7.32721L62.2792 8.96007L46.7635 24.431L45.153 22.8206L60.6464 7.32721ZM44.7796 23.7539L46.3107 25.2849C46.334 25.3382 46.3679 25.3888 46.413 25.4339L48.0999 27.1207L44.0797 27.8138L44.7796 23.7539ZM70.0264 24.1739L66.293 27.9072C66.2464 27.9539 66.1064 27.9539 66.0597 27.9072L61.2296 23.0772L62.8863 21.4206C63.0729 21.2339 63.0729 20.9539 62.8863 20.7672C62.6996 20.5806 62.4196 20.5806 62.2329 20.7672L60.5763 22.4239L59.8996 21.7472L60.8797 20.7672C61.0663 20.5806 61.0663 20.3006 60.8797 20.1139C60.693 19.9272 60.413 19.9272 60.2263 20.1139L59.2463 21.0939L58.5929 20.4405L60.2263 18.8072C60.4129 18.6205 60.4129 18.3405 60.2263 18.1538C60.0396 17.9672 59.7596 17.9672 59.5729 18.1538L57.9396 19.7872L57.6596 19.5072L61.6263 15.5406L70.0263 23.9406C70.073 23.9872 70.073 24.1272 70.0264 24.1739Z" fill="#E3B873"/>
</svg>
