<svg width="114" height="30" viewBox="0 0 114 30" fill="none" xmlns="http://www.w3.org/2000/svg">
<rect x="0.000488281" y="14" width="32" height="1.54334" rx="0.771672" fill="#E3B873"/>
<rect x="82.0005" y="14" width="32" height="1.54334" rx="0.771672" fill="#E3B873"/>
<g clip-path="url(#clip0)">
<path d="M56.5 9.8831C58.3054 9.8831 59.7742 8.41433 59.7742 6.60891C59.7742 4.80349 58.3054 3.33472 56.5 3.33472C54.6946 3.33472 53.2258 4.80349 53.2258 6.60891C53.2258 8.41433 54.6946 9.8831 56.5 9.8831ZM56.5 4.2702C57.7895 4.2702 58.8387 5.31942 58.8387 6.60891C58.8387 7.73807 58.0337 8.68291 56.9678 8.90034V7.07665H56.0323V8.90034C54.9664 8.68291 54.1613 7.73852 54.1613 6.60891C54.1613 5.31942 55.2105 4.2702 56.5 4.2702Z" fill="#E3B873"/>
<path d="M56.0322 5.67355C56.0322 5.41523 56.2416 5.20581 56.5 5.20581C56.7583 5.20581 56.9677 5.41523 56.9677 5.67355C56.9677 5.93188 56.7583 6.14129 56.5 6.14129C56.2416 6.14129 56.0322 5.93188 56.0322 5.67355Z" fill="#E3B873"/>
<path d="M56.5011 7.2262L56.5011 8.97708" stroke="#E3B873" stroke-linecap="round"/>
<path d="M69.1683 22.6657L66.7903 22.1372V21.4536C67.6374 20.8612 68.1935 19.8802 68.1935 18.7707V17.8352C68.1935 16.1892 66.9714 14.8267 65.3871 14.5985V12.3735L61.0646 10.6442L61.7322 9.9768L61.0641 8.97485C61.1989 8.71517 61.3113 8.4443 61.3996 8.16476L62.5806 7.92792V5.29002L61.4001 5.05363C61.3117 4.77408 61.1989 4.50321 61.0646 4.24353L61.7326 3.24159L59.8678 1.37679L58.8659 2.04483C58.6062 1.91008 58.3353 1.79771 58.0558 1.70932L57.8189 0.52832H55.1811L54.9447 1.70887C54.6651 1.79725 54.3942 1.91008 54.1346 2.04437L53.1326 1.37633L51.2678 3.24113L51.9359 4.24308C51.8011 4.50276 51.6887 4.77363 51.6004 5.05318L50.4194 5.29002V7.92792L51.5999 8.1643C51.6883 8.44385 51.8011 8.71472 51.9354 8.9744L51.2674 9.97634L51.9349 10.6437L47.6129 12.3731V14.598C46.0286 14.8262 44.8065 16.1888 44.8065 17.8348V18.7703C44.8065 19.8802 45.3626 20.8612 46.2097 21.4531V22.1365L43.8317 22.6652C42.753 22.905 42 23.8439 42 24.9482V29.5283H71V24.9482C71 23.8439 70.247 22.905 69.1683 22.6657ZM65.8548 22.3836C65.7388 22.5627 65.4166 22.9799 64.9194 22.9799C64.4222 22.9799 64.0999 22.5622 63.9839 22.3836V21.907C64.2803 21.9953 64.5944 22.0444 64.9194 22.0444C65.2444 22.0444 65.5584 21.9953 65.8548 21.9065V22.3836ZM67.2581 17.8348V18.7703C67.2581 20.0597 66.2088 21.109 64.9194 21.109C63.6299 21.109 62.5806 20.0597 62.5806 18.7703V17.8348C62.5806 16.5453 63.6299 15.4961 64.9194 15.4961C66.2088 15.4961 67.2581 16.5453 67.2581 17.8348ZM64.4516 13.0062V14.598C62.8673 14.8262 61.6452 16.1888 61.6452 17.8348V18.7703C61.6452 19.8802 62.2013 20.8612 63.0484 21.4531V22.1365L60.7097 22.6563L58.371 22.1365V21.4531C59.2181 20.8607 59.7742 19.8798 59.7742 18.7703V17.8348C59.7742 16.1888 58.5521 14.8262 56.9677 14.598V12.6896H57.8189L58.0553 11.5091C58.3349 11.4207 58.6058 11.3079 58.8654 11.1736L59.8674 11.8416L60.3449 11.364L64.4516 13.0062ZM61.6452 28.5928H51.3548V24.9482C51.3548 24.2854 51.8066 23.7222 52.4536 23.5781L54.8825 23.0384C55.15 23.3929 55.6819 23.9154 56.5 23.9154C57.3181 23.9154 57.85 23.3929 58.1175 23.0389L60.5464 23.5785C61.1934 23.7222 61.6452 24.2859 61.6452 24.9482V28.5928ZM56.5 15.4961C57.7895 15.4961 58.8387 16.5453 58.8387 17.8348V18.7703C58.8387 20.0597 57.7895 21.109 56.5 21.109C55.2105 21.109 54.1613 20.0597 54.1613 18.7703V17.8348C54.1613 16.5453 55.2105 15.4961 56.5 15.4961ZM56.5 22.0444C56.825 22.0444 57.139 21.9953 57.4355 21.9065V22.3832C57.3195 22.5627 56.9972 22.9799 56.5 22.9799C56.0028 22.9799 55.6805 22.5622 55.5645 22.3836V21.907C55.861 21.9953 56.175 22.0444 56.5 22.0444ZM51.3548 7.16098V6.05695L52.352 5.85734L52.4246 5.57208C52.5242 5.17993 52.679 4.80629 52.8844 4.46119L53.0353 4.20768L52.471 3.36104L53.2516 2.5804L54.0983 3.14498L54.3518 2.99379C54.6969 2.78846 55.0705 2.63316 55.4627 2.53404L55.7479 2.46141L55.948 1.4638H57.052L57.2516 2.46095L57.5369 2.53358C57.929 2.63316 58.3027 2.78801 58.6478 2.99333L58.9013 3.14429L59.7479 2.57994L60.5286 3.36058L59.964 4.20722L60.1152 4.46073C60.3205 4.80583 60.4758 5.17947 60.5749 5.57162L60.6476 5.85688L61.6452 6.05695V7.16098L60.648 7.3606L60.5754 7.64585C60.4758 8.038 60.321 8.41164 60.1156 8.75674L59.9647 9.01025L60.529 9.85689L59.7484 10.6375L58.9017 10.073L58.6482 10.2241C58.3031 10.4295 57.9295 10.5848 57.5373 10.6839L57.2521 10.7565L57.052 11.7541H55.948L55.7484 10.757L55.4631 10.6844C55.071 10.5848 54.6973 10.4299 54.3522 10.2246L54.0987 10.0736L53.2521 10.638L52.4714 9.85735L53.036 9.01071L52.8848 8.7572C52.6795 8.4121 52.5242 8.03846 52.4251 7.64631L52.3524 7.36105L51.3548 7.16098ZM52.6551 11.3636L53.1326 11.8411L54.1346 11.1731C54.3942 11.3079 54.6651 11.4202 54.9447 11.5086L55.1811 12.6896H56.0323V14.598C54.4479 14.8262 53.2258 16.1888 53.2258 17.8348V18.7703C53.2258 19.8802 53.7819 20.8612 54.629 21.4531V22.1365L52.2903 22.6563L49.9516 22.1365V21.4531C50.7987 20.8607 51.3548 19.8798 51.3548 18.7703V17.8348C51.3548 16.1888 50.1327 14.8262 48.5484 14.598V13.0062L52.6551 11.3636ZM45.7419 18.7703V17.8348C45.7419 16.5453 46.7912 15.4961 48.0806 15.4961C49.3701 15.4961 50.4194 16.5453 50.4194 17.8348V18.7703C50.4194 20.0597 49.3701 21.109 48.0806 21.109C46.7912 21.109 45.7419 20.0597 45.7419 18.7703ZM48.0806 22.0444C48.4056 22.0444 48.7197 21.9953 49.0161 21.9065V22.3832C48.9001 22.5627 48.5778 22.9799 48.0806 22.9799C47.5825 22.9799 47.2598 22.5608 47.1452 22.3836V21.9065C47.4416 21.9953 47.7556 22.0444 48.0806 22.0444ZM42.9355 24.9482C42.9355 24.2854 43.3872 23.7222 44.0343 23.5781L46.4632 23.0384C46.7306 23.3929 47.2626 23.9154 48.0806 23.9154C48.8987 23.9154 49.4307 23.3929 49.6981 23.0389L51.0639 23.3424C50.6635 23.7638 50.4194 24.327 50.4194 24.9482V28.5928H42.9355V24.9482ZM70.0645 28.5928H62.5806V24.9482C62.5806 24.327 62.3365 23.7633 61.9361 23.3419L63.3019 23.0384C63.5693 23.3929 64.1013 23.9154 64.9194 23.9154C65.7374 23.9154 66.2694 23.3929 66.5368 23.0389L68.9657 23.5785C69.6128 23.7222 70.0645 24.2859 70.0645 24.9482V28.5928Z" fill="#E3B873"/>
</g>
<defs>
<clipPath id="clip0">
<rect width="29" height="29" fill="white" transform="translate(42 0.52832)"/>
</clipPath>
</defs>
</svg>
