<svg width="114" height="30" viewBox="0 0 114 30" fill="none" xmlns="http://www.w3.org/2000/svg">
<rect x="0.000610352" y="13.8726" width="32" height="1.54334" rx="0.771672" fill="#E3B873"/>
<rect x="82.0006" y="13.8726" width="32" height="1.54334" rx="0.771672" fill="#E3B873"/>
<path d="M62.4261 9.43274L57.5806 7.97899C57.2169 7.87047 56.843 7.83226 56.4726 7.84579V7.83332H50.5833L40.1396 4.36279L40.1712 19.0377L43.1692 20.5363L44.9443 16.1968L47.5373 17.2343L48.2097 15.5539L49.1835 16.5277L48.275 17.4364C47.9592 17.7522 47.7783 18.1889 47.7783 18.6357C47.7783 19.5501 48.5074 20.2935 49.4143 20.3256C49.4459 21.2118 50.1583 21.9243 51.0445 21.9558C51.0761 22.842 51.7885 23.5544 52.6747 23.586C52.7073 24.4929 53.4502 25.222 54.3648 25.222C54.8114 25.222 55.2484 25.0411 55.5639 24.7253L56.4726 23.8169L56.8377 24.182C57.1535 24.4977 57.5902 24.6787 58.037 24.6787C58.9516 24.6787 59.6948 23.9495 59.7269 23.0426C60.6131 23.011 61.3255 22.2986 61.3571 21.4124C62.2433 21.3809 62.9557 20.6684 62.9873 19.7822C63.8942 19.7496 64.6236 19.0067 64.6236 18.0923C64.6236 18.0151 64.6111 17.939 64.6008 17.8623L65.3806 17.0825L66.0107 18.3433L69.424 16.6365L71.4866 20.5745L73.8613 18.9921V4.94732L62.4261 9.43274ZM42.6062 19.0398L41.257 18.3651L41.2296 5.87014L47.1842 7.84924L42.6062 19.0398ZM46.9321 15.8214L45.3553 15.1909L48.2179 8.19258L49.7757 8.71051L46.9321 15.8214ZM48.8651 18.6357C48.8651 18.4752 48.9295 18.3184 49.0431 18.2046L49.9985 17.2494C50.1121 17.1358 50.2692 17.0711 50.4294 17.0711C50.7654 17.0711 51.0386 17.3446 51.0386 17.6803C51.0386 17.8405 50.9739 17.9976 50.8603 18.1112L49.9052 19.0666C49.7916 19.1802 49.6345 19.2447 49.4743 19.2447C49.1383 19.2447 48.8651 18.9714 48.8651 18.6357ZM50.4952 20.2659C50.4952 20.1054 50.5597 19.9486 50.6733 19.8348L51.6287 18.8796C51.7423 18.766 51.8994 18.7013 52.0596 18.7013C52.3955 18.7013 52.6688 18.9748 52.6688 19.3105C52.6688 19.4707 52.6041 19.6278 52.4905 19.7414L51.5353 20.6968C51.4218 20.8104 51.2647 20.8749 51.1044 20.8749C50.7685 20.8749 50.4952 20.6016 50.4952 20.2659ZM52.1254 21.8961C52.1254 21.7356 52.1899 21.5788 52.3035 21.465L53.2589 20.5098C53.3725 20.3962 53.5296 20.3315 53.6898 20.3315C54.0257 20.3315 54.299 20.605 54.299 20.9407C54.299 21.1009 54.2343 21.258 54.1207 21.3716L53.1655 22.327C53.052 22.4406 52.8949 22.5051 52.7346 22.5051C52.3987 22.5051 52.1254 22.2318 52.1254 21.8961ZM55.7509 23.0018L54.7957 23.9572C54.6822 24.0708 54.5251 24.1353 54.3648 24.1353C54.0289 24.1353 53.7556 23.862 53.7556 23.5263C53.7556 23.3658 53.8201 23.209 53.9337 23.0952L54.8891 22.14C55.0027 22.0264 55.1598 21.9617 55.32 21.9617C55.6559 21.9617 55.9292 22.2352 55.9292 22.5709C55.9292 22.7311 55.8645 22.8882 55.7509 23.0018ZM62.9276 18.7013C62.7673 18.7013 62.6103 18.6368 62.4967 18.5232L57.9436 13.9699L57.1752 14.7383L61.7283 19.2914C61.8419 19.4052 61.9066 19.562 61.9066 19.7225C61.9066 20.0582 61.6333 20.3315 61.2974 20.3315C61.1371 20.3315 60.9801 20.267 60.8665 20.1534L56.3134 15.6001L55.545 16.3685L60.0981 20.9216C60.2117 21.0354 60.2764 21.1922 60.2764 21.3527C60.2764 21.6884 60.0031 21.9617 59.6672 21.9617C59.5069 21.9617 59.3499 21.8972 59.2363 21.7836L54.6832 17.2303L53.9148 17.9987L58.4679 22.5518C58.5815 22.6656 58.6462 22.8224 58.6462 22.9829C58.6462 23.3186 58.3729 23.5919 58.037 23.5919C57.8768 23.5919 57.7197 23.5274 57.6061 23.4138L56.9932 22.8006C57.0041 22.7248 57.016 22.6486 57.016 22.5709C57.016 21.6563 56.2866 20.9131 55.3797 20.881C55.3482 19.9948 54.6357 19.2824 53.7495 19.2508C53.718 18.3646 53.0055 17.6522 52.1193 17.6206C52.0867 16.7137 51.344 15.9843 50.4294 15.9843C50.3522 15.9843 50.2761 15.9968 50.1997 16.0071L48.6483 14.4557L50.863 8.92012H54.074L52.0787 10.9157C51.758 11.2357 51.582 11.6618 51.582 12.115C51.582 13.05 52.3427 13.8107 53.278 13.8107C53.7246 13.8107 54.1616 13.6297 54.4771 13.314L55.9168 11.874C56.2113 11.5806 56.73 11.5692 57.0367 11.8502L58.3071 13.0147C58.7293 13.4016 59.1984 13.7234 59.7004 13.9755L63.3585 17.6612C63.4721 17.775 63.5368 17.9318 63.5368 18.0923C63.5368 18.428 63.2635 18.7013 62.9276 18.7013ZM64.0802 16.8461L61.8466 14.5955C62.0462 14.6144 62.2473 14.6258 62.45 14.6258V13.539C61.1849 13.539 59.9742 13.068 59.0418 12.2131L57.7712 11.0491C57.054 10.3906 55.8374 10.4168 55.1489 11.1062L53.7095 12.5459C53.5954 12.6589 53.4383 12.7239 53.278 12.7239C52.9421 12.7239 52.6688 12.4506 52.6688 12.115C52.6688 11.9518 52.7317 11.7992 52.8469 11.6838L54.9183 9.61263C55.527 9.00396 56.441 8.77233 57.2681 9.02015L62.0685 10.4601L64.8674 16.0588L64.0802 16.8461ZM66.4966 16.8854L63.2019 10.2956L65.6082 9.35154L68.9196 15.6736L66.4966 16.8854ZM72.7746 18.4107L71.8886 19.0014L66.626 8.95275L72.7746 6.54116V18.4107Z" fill="#E3B873"/>
<circle cx="59.6667" cy="1.57397" r="0.485591" fill="#E3B873"/>
<circle cx="47.4099" cy="24.5032" r="0.485591" fill="#E3B873"/>
<circle cx="49.468" cy="26.1916" r="0.485591" fill="#E3B873"/>
<circle cx="51.8166" cy="27.4304" r="0.485591" fill="#E3B873"/>
<circle cx="54.3655" cy="28.2229" r="0.485591" fill="#E3B873"/>
<circle cx="62.2141" cy="2.34692" r="0.485591" fill="#E3B873"/>
<circle cx="64.5632" cy="3.60131" r="0.485591" fill="#E3B873"/>
<path d="M66.8305 2.89941V5.70111H63.9971" stroke="#E3B873" stroke-linecap="round" stroke-linejoin="round"/>
<path d="M45.0104 24.1865L45.0104 21.9197L47.2744 21.9197" stroke="#E3B873" stroke-linecap="round" stroke-linejoin="round"/>
<path d="M47.8008 4.88243C49.3359 3.54661 50.3124 2.93205 52.1519 2.2138C54.1033 1.45186 55.4237 1.27294 57.5441 1.27295" stroke="#E3B873" stroke-linecap="round"/>
<path d="M68.4046 22.3709C67.2633 24.1511 65.1376 25.8893 63.4089 26.8437C61.575 27.8563 59.6102 28.4268 56.9931 28.5632" stroke="#E3B873" stroke-linecap="round"/>
</svg>
