<svg width="287" height="14" viewBox="0 0 287 14" fill="none" xmlns="http://www.w3.org/2000/svg">
<path fill-rule="evenodd" clip-rule="evenodd" d="M280.362 0.325806L287 6.96385L280.362 13.6019L279.414 12.6543L285.105 6.96385L279.414 1.27337L280.362 0.325806Z" fill="white"/>
<path fill-rule="evenodd" clip-rule="evenodd" d="M286.052 7.63364L245.544 7.63364L245.544 6.29358L286.052 6.29358L286.052 7.63364Z" fill="white"/>
<path fill-rule="evenodd" clip-rule="evenodd" d="M6.63807 13.6019L2.29917e-05 6.96389L6.63807 0.325844L7.58563 1.27341L1.89516 6.96389L7.58563 12.6544L6.63807 13.6019Z" fill="white"/>
<path fill-rule="evenodd" clip-rule="evenodd" d="M0.947579 6.29396L41.4556 6.29397L41.4556 7.63403L0.947578 7.63403L0.947579 6.29396Z" fill="white"/>
<rect x="179.375" y="1.7821" width="9.56667" height="9.56667" rx="4.78333" fill="white" fill-opacity="0.3"/>
<rect x="206.481" y="1.7821" width="9.56667" height="9.56667" rx="4.78333" fill="white" fill-opacity="0.3"/>
<rect x="152.269" y="1.7821" width="9.56667" height="9.56667" rx="4.78333" fill="white" fill-opacity="0.3"/>
<rect x="125.164" y="1.7821" width="9.56667" height="9.56667" rx="4.78333" fill="white" fill-opacity="0.3"/>
<rect x="98.0583" y="1.7821" width="9.56667" height="9.56667" rx="4.78333" fill="white" fill-opacity="0.3"/>
<rect x="70.9528" y="1.78198" width="9.56667" height="9.56667" rx="4.78333" fill="white"/>
</svg>
