<?xml version="1.0" encoding="UTF-8" standalone="no"?>
<svg
   xmlns:dc="http://purl.org/dc/elements/1.1/"
   xmlns:cc="http://creativecommons.org/ns#"
   xmlns:rdf="http://www.w3.org/1999/02/22-rdf-syntax-ns#"
   xmlns:svg="http://www.w3.org/2000/svg"
   xmlns="http://www.w3.org/2000/svg"
   xmlns:sodipodi="http://sodipodi.sourceforge.net/DTD/sodipodi-0.dtd"
   xmlns:inkscape="http://www.inkscape.org/namespaces/inkscape"
   viewBox="0 0 32 32"
   version="1.1"
   id="svg7"
   sodipodi:docname="Email_security_.svg"
   inkscape:version="0.92.3 (2405546, 2018-03-11)">
  <metadata
     id="metadata13">
    <rdf:RDF>
      <cc:Work
         rdf:about="">
        <dc:format>image/svg+xml</dc:format>
        <dc:type
           rdf:resource="http://purl.org/dc/dcmitype/StillImage" />
      </cc:Work>
    </rdf:RDF>
  </metadata>
  <defs
     id="defs11" />
  <sodipodi:namedview
     pagecolor="#ffffff"
     bordercolor="#666666"
     borderopacity="1"
     objecttolerance="10"
     gridtolerance="10"
     guidetolerance="10"
     inkscape:pageopacity="0"
     inkscape:pageshadow="2"
     inkscape:window-width="1920"
     inkscape:window-height="1052"
     id="namedview9"
     showgrid="false"
     inkscape:zoom="7.375"
     inkscape:cx="16"
     inkscape:cy="16"
     inkscape:window-x="0"
     inkscape:window-y="0"
     inkscape:window-maximized="1"
     inkscape:current-layer="Layer_17" />
  <title
     id="title2" />
  <g
     data-name="Layer 17"
     id="Layer_17">
    <path
       d="M25.12,6H6.88A3.89,3.89,0,0,0,3,9.89V21.11A3.89,3.89,0,0,0,6.88,25H25.12A3.89,3.89,0,0,0,29,21.11V9.89A3.89,3.89,0,0,0,25.12,6Zm0,2,.16,0L16,14.76,6.72,8l.16,0ZM27,21.11A1.89,1.89,0,0,1,25.12,23H6.88A1.89,1.89,0,0,1,5,21.11V9.89a1.92,1.92,0,0,1,.1-.59l10.32,7.51a1,1,0,0,0,1.18,0L26.91,9.3a1.92,1.92,0,0,1,.1.59Z"
       id="path4"
       style="fill:#f9f9f9" />
  </g>
</svg>
