<?xml version="1.0" ?><!DOCTYPE svg  PUBLIC '-//W3C//DTD SVG 1.1//EN'  'http://www.w3.org/Graphics/SVG/1.1/DTD/svg11.dtd'><svg enable-background="new 0 0 512 512" id="Layer_1" version="1.1" viewBox="0 0 512 512" xml:space="preserve" xmlns="http://www.w3.org/2000/svg" xmlns:xlink="http://www.w3.org/1999/xlink"><g><path d="M251,381c-4.9,0-9-4-9-8.9l-0.6-63.8c0,0,0,0,0,0l-0.6-57c-0.7-24.6,2.7-38.4,11.8-47.4   c11-11,28.5-12,45.9-11.5c5,0.1,8.9,4.3,8.7,9.3c-0.2,5-4.3,8.9-9.3,8.7c-18-0.5-27.7,1.3-32.6,6.2c-5,5-7,15.6-6.5,34.3   c0,0.1,0,0.1,0,0.2l0.1,10l35.2-0.7c0.1,0,0.1,0,0.2,0c4.9,0,8.9,3.9,9,8.8c0,0.1,0,0.1,0,0.2c0,4.9-3.9,8.9-8.8,9l-35.3,0.7   l0.2,29.1c0,0,0,0,0,0l0.6,63.8C260.1,376.9,256.1,381,251,381C251.1,381,251,381,251,381z M213.8,279.8c-4.8,0-8.8-3.8-9-8.7   c-0.2-5,3.7-9.1,8.7-9.3l8.8-0.3c4.9-0.2,9.1,3.7,9.3,8.7c0.2,5-3.7,9.1-8.7,9.3l-8.8,0.3C214,279.8,213.9,279.8,213.8,279.8z" fill="#3B5999"/></g><g><path d="M315.5,381.6h-117c-5,0-9-4-9-9s4-9,9-9h117c23.6,0,42.8-19,42.8-42.4V190.8c0-23.4-19.2-42.4-42.8-42.4   H196.1c-23.4,0-42.4,19-42.4,42.4v128.9c0,5-4,9-9,9s-9-4-9-9V190.8c0-33.3,27.1-60.4,60.4-60.4h119.3c33.5,0,60.8,27.1,60.8,60.4   v130.5C376.3,354.5,349,381.6,315.5,381.6z" fill="#3B5999"/></g></svg>