<?xml version="1.0" encoding="UTF-8" standalone="no"?>
<svg
   xmlns:dc="http://purl.org/dc/elements/1.1/"
   xmlns:cc="http://creativecommons.org/ns#"
   xmlns:rdf="http://www.w3.org/1999/02/22-rdf-syntax-ns#"
   xmlns:svg="http://www.w3.org/2000/svg"
   xmlns="http://www.w3.org/2000/svg"
   xmlns:sodipodi="http://sodipodi.sourceforge.net/DTD/sodipodi-0.dtd"
   xmlns:inkscape="http://www.inkscape.org/namespaces/inkscape"
   height="60px"
   id="Layer_1"
   style="enable-background:new 0 0 60 60;"
   version="1.1"
   viewBox="0 0 60 60"
   width="60px"
   xml:space="preserve"
   sodipodi:docname="Google_Maps__icons.svg"
   inkscape:version="0.92.3 (2405546, 2018-03-11)"><metadata
     id="metadata12"><rdf:RDF><cc:Work
         rdf:about=""><dc:format>image/svg+xml</dc:format><dc:type
           rdf:resource="http://purl.org/dc/dcmitype/StillImage" /></cc:Work></rdf:RDF></metadata><defs
     id="defs10" /><sodipodi:namedview
     pagecolor="#ffffff"
     bordercolor="#666666"
     borderopacity="1"
     objecttolerance="10"
     gridtolerance="10"
     guidetolerance="10"
     inkscape:pageopacity="0"
     inkscape:pageshadow="2"
     inkscape:window-width="1920"
     inkscape:window-height="1052"
     id="namedview8"
     showgrid="false"
     inkscape:zoom="3.9333333"
     inkscape:cx="-19.830509"
     inkscape:cy="30"
     inkscape:window-x="0"
     inkscape:window-y="0"
     inkscape:window-maximized="1"
     inkscape:current-layer="g5" /><style
     type="text/css"
     id="style2">
<![CDATA[
	.st0{fill:none;stroke:#231F20;stroke-width:1.5;stroke-linecap:round;stroke-linejoin:round;stroke-miterlimit:10;}
]]>
</style><g
     id="g5"><path
       class="st0"
       d="M 49.032,15.437 C 48.827,14.663 48.407,13.837 48.097,13.116 46.354571,8.9287235 43.642782,6.002474 40.578258,4.076193 37.116003,1.8999091 33.203512,1 29.73,1 23.9678,1 17.821818,3.5404013 13.920775,8.7229207 11.887861,11.423638 10.464598,14.841866 10.023,18.992 v 2.476 c 0,0.104 0.035,1.031 0.086,1.495 0.723,5.773 5.277,11.909 8.68,17.684 1.517894,2.565074 3.059695,5.112949 4.61292,7.650685 2.191969,3.581346 4.40669,7.142502 6.60908,10.703315 2.32,-3.97 4.633,-7.989 6.9,-11.859 0.618,-1.134 1.336,-2.267 1.954,-3.351 0.412,-0.721 1.2,-1.443 1.561,-2.113 3.66,-6.701 9.551,-13.455 9.551,-20.104 v -2.735 c 0,-0.721 -0.892,-3.247 -0.945,-3.402 z M 29.89,27.86 c -2.576,0 -5.396,-1.288 -6.786,-4.847 -0.208,-0.566 -0.193,-1.701 -0.193,-1.805 V 19.61 c 0,-4.537 3.853,-6.598 7.203,-6.598 4.124,0 7.313,3.298 7.313,7.423 0,4.127 -3.412,7.425 -7.537,7.425 z"
       id="Facebook_Places_3_"
       style="fill:#f9f9f9;stroke:#231f20;stroke-width:1.5;stroke-linecap:round;stroke-linejoin:round;stroke-miterlimit:10"
       inkscape:connector-curvature="0"
       sodipodi:nodetypes="ccssscsccsccccsscscsssss" /></g></svg>