<?xml version="1.0" encoding="UTF-8" standalone="no"?>
<svg
   xmlns:dc="http://purl.org/dc/elements/1.1/"
   xmlns:cc="http://creativecommons.org/ns#"
   xmlns:rdf="http://www.w3.org/1999/02/22-rdf-syntax-ns#"
   xmlns:svg="http://www.w3.org/2000/svg"
   xmlns="http://www.w3.org/2000/svg"
   xmlns:sodipodi="http://sodipodi.sourceforge.net/DTD/sodipodi-0.dtd"
   xmlns:inkscape="http://www.inkscape.org/namespaces/inkscape"
   height="60px"
   id="Layer_1"
   style="enable-background:new 0 0 60 60;"
   version="1.1"
   viewBox="0 0 60 60"
   width="60px"
   xml:space="preserve"
   sodipodi:docname="Google_Maps__icons.svg"
   inkscape:version="0.92.3 (2405546, 2018-03-11)"><metadata
     id="metadata12"><rdf:RDF><cc:Work
         rdf:about=""><dc:format>image/svg+xml</dc:format><dc:type
           rdf:resource="http://purl.org/dc/dcmitype/StillImage" /></cc:Work></rdf:RDF></metadata><defs
     id="defs10" /><sodipodi:namedview
     pagecolor="#ffffff"
     bordercolor="#666666"
     borderopacity="1"
     objecttolerance="10"
     gridtolerance="10"
     guidetolerance="10"
     inkscape:pageopacity="0"
     inkscape:pageshadow="2"
     inkscape:window-width="1920"
     inkscape:window-height="1052"
     id="namedview8"
     showgrid="false"
     inkscape:zoom="5.5608766"
     inkscape:cx="13.789013"
     inkscape:cy="35.563983"
     inkscape:window-x="0"
     inkscape:window-y="0"
     inkscape:window-maximized="1"
     inkscape:current-layer="g5"
     inkscape:snap-grids="true"
     inkscape:snap-to-guides="true"
     inkscape:snap-page="true"
     inkscape:snap-center="true"
     inkscape:snap-object-midpoints="true" /><style
     type="text/css"
     id="style2">
<![CDATA[
	.st0{fill:none;stroke:#231F20;stroke-width:1.5;stroke-linecap:round;stroke-linejoin:round;stroke-miterlimit:10;}
]]>
</style><g
     id="g5"
     style="fill:#000000;stroke:#fcffff;stroke-width:2.68061686;stroke-miterlimit:4;stroke-dasharray:none;stroke-opacity:1"
     transform="matrix(0.70310312,0,0,0.70684877,9.8045732,5.7964207)"><path
       class="st0"
       d="m 39.268146,17.082826 c -0.143,-0.507851 -0.435977,-1.049819 -0.652222,-1.522895 -1.215454,-2.747429 -3.1071,-4.66745 -5.244798,-5.9313555 -2.415142,-1.4279415 -5.144353,-2.0184058 -7.567347,-2.0184058 -4.0195,0 -8.306713,1.6668522 -11.027936,5.0672983 -1.418087,1.772042 -2.410903,4.014869 -2.718945,6.737927 v 1.624596 c 0,0.06824 0.02442,0.676478 0.06,0.980926 0.504339,3.787881 3.681042,7.813941 6.05485,11.603134 1.058827,1.683041 2.134331,3.354798 3.217804,5.019901 1.529036,2.349855 3.073945,4.686464 4.610252,7.022846 1.618346,-2.604865 3.231811,-5.241882 4.813187,-7.781133 0.431094,-0.744061 0.931945,-1.487464 1.363039,-2.198717 0.287395,-0.473075 0.837075,-0.946807 1.088895,-1.386419 2.553082,-4.396777 6.662428,-8.82833 6.662428,-13.190987 v -1.794537 c 0,-0.473074 -0.622226,-2.130478 -0.659197,-2.232179 z m -13.352757,8.151196 c -1.796924,0 -3.764053,-0.845105 -4.733665,-3.180299 -0.145094,-0.371373 -0.13463,-1.116089 -0.13463,-1.184328 v -1.048507 c 0,-2.976896 2.687712,-4.329194 5.024549,-4.329194 2.876751,0 5.10128,2.16394 5.10128,4.870507 0,2.70788 -2.380085,4.871821 -5.257534,4.871821 z"
       id="Facebook_Places_3_"
       style="fill:#000000;stroke:#fcffff;stroke-width:2.68061686;stroke-linecap:round;stroke-linejoin:round;stroke-miterlimit:4;stroke-dasharray:none;stroke-opacity:1"
       inkscape:connector-curvature="0"
       sodipodi:nodetypes="ccssscsccsccccsscscsssss" /></g></svg>