<?xml version="1.0" ?><!DOCTYPE svg  PUBLIC '-//W3C//DTD SVG 1.1//EN'  'http://www.w3.org/Graphics/SVG/1.1/DTD/svg11.dtd'><svg enable-background="new 0 0 512 512" id="Layer_1" version="1.1" viewBox="0 0 512 512" xml:space="preserve" xmlns="http://www.w3.org/2000/svg" xmlns:xlink="http://www.w3.org/1999/xlink"><g><linearGradient gradientUnits="userSpaceOnUse" id="SVGID_1_" x1="162.1285" x2="361.1548" y1="349.8155" y2="150.7893"><stop offset="0" style="stop-color:#FFF33B"/><stop offset="0.4266" style="stop-color:#ED0013"/><stop offset="0.6126" style="stop-color:#DB004A"/><stop offset="0.8771" style="stop-color:#C30092"/><stop offset="1" style="stop-color:#BA00AF"/></linearGradient><path d="M315.5,130.4H196.1c-33.3,0-60.4,27.1-60.4,60.4v128.9c0,5,4,9,9,9s9-4,9-9V190.8   c0-23.4,19-42.4,42.4-42.4h119.3c23.6,0,42.8,19,42.8,42.4v130.5c0,23.4-19.2,42.4-42.8,42.4h-117c-5,0-9,4-9,9s4,9,9,9h117   c33.5,0,60.8-27.1,60.8-60.4V190.8C376.3,157.5,349,130.4,315.5,130.4z" fill="url(#SVGID_1_)"/><linearGradient gradientUnits="userSpaceOnUse" id="SVGID_2_" x1="208.9127" x2="333.2492" y1="302.9881" y2="178.6516"><stop offset="0" style="stop-color:#FFF33B"/><stop offset="0.4266" style="stop-color:#ED0013"/><stop offset="0.6126" style="stop-color:#DB004A"/><stop offset="0.8771" style="stop-color:#C30092"/><stop offset="1" style="stop-color:#BA00AF"/></linearGradient><path d="M256,189.4c-36.7,0-66.6,29.9-66.6,66.6s29.9,66.6,66.6,66.6c17.6,0,34.3-7,46.9-19.6   c12.6-12.6,19.6-29.3,19.6-46.9C322.6,219.3,292.7,189.4,256,189.4z M256,304.6c-26.8,0-48.6-21.8-48.6-48.6s21.8-48.6,48.6-48.6   s48.6,21.8,48.6,48.6C304.6,282.3,282.3,304.6,256,304.6z M332.2,182c0-5.8-4.7-10.6-10.6-10.6s-10.6,4.7-10.6,10.6   s4.7,10.6,10.6,10.6S332.2,187.8,332.2,182z" fill="url(#SVGID_2_)"/></g></svg>