<?xml version="1.0" ?><svg id="Layer_1_1_" style="enable-background:new 0 0 64 64;" version="1.1" viewBox="0 0 64 64" xml:space="preserve" xmlns="http://www.w3.org/2000/svg" xmlns:xlink="http://www.w3.org/1999/xlink"><g><path d="M41.505,11.189L35,18.625V21h9v-2h-6.671l5.682-6.493C43.648,11.777,44,10.842,44,9.873V9c0-2.206-1.794-4-4-4   s-4,1.794-4,4v2h2V9c0-1.103,0.897-2,2-2s2,0.897,2,2v0.873C42,10.357,41.824,10.825,41.505,11.189z"/><path d="M54.479,5L47,15.685V18h8v3h2v-3h2v-2h-2V5H54.479z M55,16h-5.779L55,7.744V16z"/><path d="M58,25c2.757,0,5-2.243,5-5V6c0-2.757-2.243-5-5-5H26c-2.757,0-5,2.243-5,5v3h2V6c0-1.654,1.346-3,3-3h32   c1.654,0,3,1.346,3,3v14c0,1.654-1.346,3-3,3h-7.184c-0.414-1.161-1.514-2-2.816-2s-2.402,0.839-2.816,2H22v2h23v22.551   c-0.163-0.186-0.275-0.418-0.316-0.68l-1.451-9.434c-0.046-0.298-0.143-0.573-0.269-0.831c-0.148-1.458-0.846-2.834-1.952-3.8   l-4.99-4.367C34.96,27.511,33.599,27,32.188,27h-0.19c-1.555,0-3.018,0.605-4.117,1.706l-1.173,1.173   c-1.446,1.446-3.968,1.446-5.414,0l-2.172-2.172C18.398,26.984,18,26.022,18,25s0.398-1.984,1.121-2.707l1.173-1.173   c1.1-1.1,1.706-2.562,1.706-4.117v-0.19c0-1.411-0.511-2.772-1.44-3.834l-4.366-4.989C15.088,6.725,13.491,6,11.812,6   C10.401,6,9.04,6.511,7.978,7.44l-3.773,3.302C2.168,12.524,1,15.098,1,17.804c0,1.608,0.417,3.199,1.205,4.6   c5.267,9.364,12.896,17.274,22.064,22.876l2.25,1.376C27.958,47.535,29.61,48,31.296,48c2.522,0,4.918-1.048,6.645-2.872   l0.92,6.902c0.12,0.901,0.484,1.752,1.052,2.462l2.429,3.036C42.767,58.059,43,58.725,43,59.403V63h16v-3.789   c0-0.594,0.174-1.169,0.504-1.664l2.656-3.984c0.549-0.825,0.84-1.784,0.84-2.773V40c0-1.654-1.346-3-3-3   c-0.395,0-0.77,0.081-1.116,0.22C58.539,35.945,57.383,35,56,35c-0.395,0-0.77,0.081-1.116,0.22C54.539,33.945,53.383,33,52,33   c-0.352,0-0.686,0.072-1,0.184V25H58z M32.188,29c0.926,0,1.82,0.336,2.517,0.945l4.99,4.367c0.231,0.202,0.426,0.438,0.6,0.688   h-0.42c-0.768,0-1.49,0.299-2.033,0.842c-0.099,0.099-0.181,0.211-0.264,0.321l-6.914-6.914c0.422-0.157,0.87-0.25,1.334-0.25   H32.188z M14.688,9.306l4.366,4.989C19.664,14.992,20,15.886,20,16.812v0.19c0,0.464-0.092,0.912-0.25,1.334L9.921,8.507   C10.494,8.181,11.143,8,11.812,8C12.915,8,13.963,8.476,14.688,9.306z M36.687,43.554C35.326,45.108,33.362,46,31.296,46   c-1.318,0-2.609-0.363-3.734-1.05l-2.25-1.376C16.436,38.15,9.048,30.49,3.948,21.424C3.328,20.321,3,19.07,3,17.804   c0-2.129,0.919-4.155,2.521-5.557l2.833-2.479L18.586,20l-0.879,0.879C16.606,21.979,16,23.443,16,25s0.606,3.021,1.707,4.121   l2.172,2.172C20.979,32.394,22.443,33,24,33s3.021-0.606,4.121-1.707L29,30.414l8.054,8.054l0.54,4.049L36.687,43.554z M52,35   c0.551,0,1,0.449,1,1v2v8h2v-8c0-0.551,0.449-1,1-1s1,0.449,1,1v2v4v2h2v-2v-4c0-0.551,0.449-1,1-1s1,0.449,1,1v10.789   c0,0.594-0.174,1.169-0.504,1.664l-2.656,3.984C57.291,57.262,57,58.221,57,59.211V61H45v-1.597c0-1.131-0.389-2.24-1.096-3.124   l-2.429-3.036c-0.34-0.426-0.559-0.937-0.631-1.478l-1.837-13.778C39.002,37.95,39,37.913,39,37.875   c0-0.234,0.091-0.454,0.256-0.619C39.421,37.091,39.641,37,39.875,37h0.516c0.435,0,0.799,0.312,0.865,0.742l1.451,9.434   C42.959,48.812,44.344,50,46,50h1V24c0-0.551,0.449-1,1-1s1,0.449,1,1v12v6v4h2v-4v-6C51,35.449,51.449,35,52,35z"/></g></svg>