<?xml version="1.0" encoding="UTF-8" standalone="no"?>
<svg
   xmlns:dc="http://purl.org/dc/elements/1.1/"
   xmlns:cc="http://creativecommons.org/ns#"
   xmlns:rdf="http://www.w3.org/1999/02/22-rdf-syntax-ns#"
   xmlns:svg="http://www.w3.org/2000/svg"
   xmlns="http://www.w3.org/2000/svg"
   xmlns:sodipodi="http://sodipodi.sourceforge.net/DTD/sodipodi-0.dtd"
   xmlns:inkscape="http://www.inkscape.org/namespaces/inkscape"
   id="Layer_1_1_"
   style="enable-background:new 0 0 64 64;"
   version="1.1"
   viewBox="0 0 64 64"
   xml:space="preserve"
   sodipodi:docname="iconfinder_phone-call-service-support-customer_3802010.svg"
   inkscape:version="0.92.3 (2405546, 2018-03-11)"><metadata
     id="metadata9"><rdf:RDF><cc:Work
         rdf:about=""><dc:format>image/svg+xml</dc:format><dc:type
           rdf:resource="http://purl.org/dc/dcmitype/StillImage" /></cc:Work></rdf:RDF></metadata><defs
     id="defs7" /><sodipodi:namedview
     pagecolor="#ffffff"
     bordercolor="#666666"
     borderopacity="1"
     objecttolerance="10"
     gridtolerance="10"
     guidetolerance="10"
     inkscape:pageopacity="0"
     inkscape:pageshadow="2"
     inkscape:window-width="1920"
     inkscape:window-height="1052"
     id="namedview5"
     showgrid="false"
     inkscape:zoom="3.6875"
     inkscape:cx="32"
     inkscape:cy="32"
     inkscape:window-x="0"
     inkscape:window-y="0"
     inkscape:window-maximized="1"
     inkscape:current-layer="Layer_1_1_" /><path
     d="m 63.059,40.525 c 0,-3.109 -2.088,-5.877 -5.077,-6.73 l -8.923,-2.549 v -2.61 c 1.093,-0.999 1.938,-2.261 2.435,-3.688 1.222,-0.123 2.373,-0.668 3.206,-1.585 0.836,-0.919 1.269,-2.125 1.272,-3.363 H 56 V 14 C 56,6.832 50.168,1 43,1 35.832,1 30,6.832 30,14 v 6 h 0.028 c 0.003,1.239 0.437,2.444 1.272,3.363 0.833,0.916 1.984,1.461 3.206,1.585 0.506,1.453 1.372,2.734 2.494,3.741 v 2.557 l -8.923,2.549 C 25.088,34.648 23,37.416 23,40.525 v 5.296 C 22.367,45.659 21.769,45.355 21.293,44.879 L 19.121,42.707 C 18.409,41.994 18,41.008 18,40 c 0,-1.008 0.409,-1.994 1.121,-2.707 l 1.173,-1.174 C 21.394,35.02 22,33.558 22,32.003 v -0.191 c 0,-1.41 -0.512,-2.771 -1.44,-3.833 l -4.366,-4.99 C 15.087,21.725 13.491,21 11.812,21 10.401,21 9.04,21.512 7.978,22.44 L 4.205,25.742 C 2.168,27.524 1,30.098 1,32.804 c 0,1.608 0.417,3.199 1.205,4.601 5.267,9.363 12.896,17.274 22.064,22.877 l 2.25,1.375 c 1.439,0.878 3.09,1.343 4.777,1.343 2.643,0 5.156,-1.141 6.895,-3.129 l 3.368,-3.85 C 42.488,54.96 43,53.599 43,52.188 43,51.785 42.956,51.387 42.875,51 H 63.059 Z M 52.18,34.218 48.712,40.459 44.481,36.933 48.304,33.11 Z m 1.04,-12.2 c -0.345,0.379 -0.785,0.646 -1.262,0.808 C 51.983,22.553 52,22.279 52,22 v -4.785 c 1.076,0.408 1.878,1.356 1.986,2.487 0.082,0.86 -0.19,1.683 -0.766,2.316 z M 43,3 c 3.407058,0 6.45752,1.5573439 8.476858,3.9975025 C 53.0522,8.9011394 54,11.342058 54,14 v 2.085 C 53.115,15.415 52.016,15 50.828,15 h -0.585 c -2.469,0 -4.79,-0.961 -6.536,-2.707 L 43,11.586 42.293,12.293 C 40.547,14.039 38.226,15 35.757,15 H 35 v 0.003 c -1.123,0.036 -2.158,0.444 -3,1.082 V 14 C 32,10.962867 33.237522,8.2090985 35.234759,6.2165016 37.225903,4.2299834 39.972133,3 43,3 Z M 32.78,22.018 C 32.204,21.385 31.932,20.563 32.014,19.703 32.122,18.572 32.924,17.624 34,17.216 V 22 c 0,0.279 0.017,0.553 0.042,0.826 -0.477,-0.163 -0.917,-0.429 -1.262,-0.808 z M 36,22 v -5.011 c 2.59,-0.055 5.037,-0.973 7,-2.632 1.963,1.659 4.41,2.577 7,2.632 V 22 c 0,3.859 -3.14,7 -7,7 -3.86,0 -7,-3.141 -7,-7 z m 7,9 c 1.461,0 2.837,-0.357 4.059,-0.978 v 1.505 L 43,35.586 l -4,-4 V 30.05 c 1.207,0.603 2.562,0.95 4,0.95 z m -5.291,2.123 3.81,3.81 -4.231,3.526 -3.459,-6.227 z m -23.021,-8.818 4.366,4.99 C 19.664,29.992 20,30.886 20,31.812 v 0.191 c 0,0.464 -0.092,0.911 -0.25,1.334 L 9.922,23.508 C 10.495,23.18 11.144,23 11.812,23 c 1.102,0 2.15,0.476 2.876,1.305 z m 21.999,34.25 C 35.327,60.108 33.362,61 31.296,61 c -1.319,0 -2.61,-0.363 -3.734,-1.051 l -2.25,-1.375 C 16.436,53.149 9.048,45.49 3.948,36.424 3.328,35.321 3,34.069 3,32.804 3,30.675 3.919,28.65 5.521,27.248 L 8.355,24.769 18.586,35 17.708,35.879 C 16.622,36.964 16,38.466 16,40 c 0,1.534 0.622,3.036 1.707,4.121 l 2.172,2.172 C 20.979,47.394 22.443,48 24,48 c 1.557,0 3.021,-0.606 4.121,-1.707 L 29,45.414 39.232,55.646 Z M 40.493,54.079 30.664,44.25 C 31.086,44.093 31.534,44 31.998,44 h 0.19 c 0.926,0 1.82,0.336 2.517,0.946 l 4.99,4.366 c 0.829,0.725 1.305,1.774 1.305,2.876 0,0.669 -0.181,1.318 -0.507,1.891 z M 61.059,49 H 55.03 v -7 h -2 v 7 H 42.04 C 41.753,48.563 41.413,48.158 41.012,47.807 L 36.023,43.441 C 34.96,42.512 33.599,42 32.188,42 h -0.19 c -1.555,0 -3.017,0.605 -4.117,1.705 l -1.173,1.174 c -0.477,0.476 -1.074,0.78 -1.707,0.942 v -5.296 c 0,-2.221 1.491,-4.197 3.626,-4.807 l 3.228,-0.922 4.858,8.745 L 42,39.135 V 47 h 2 v -7.865 l 5.288,4.406 4.866,-8.759 3.279,0.937 c 2.135,0.609 3.626,2.586 3.626,4.807 V 49 Z"
     id="path2"
     inkscape:connector-curvature="0"
     sodipodi:nodetypes="scccccccssscccccccscscsccssccsccscccsccsccscccccccscccssscssscsscccssscccsccscccsssscccccscccccccssccsccscccsccccsscsccccccssccscccccccccsscccsccccccccccscc"
     style="fill:#f9f9f9" /></svg>